<svg xmlns="http://www.w3.org/2000/svg" viewBox="0 0 64 64"><defs><style>.a,.b{fill:none;stroke:#1c7ed6;stroke-miterlimit:10;stroke-width:2px;}.b{stroke-linejoin:round;}</style></defs><path class="a" d="M44,7h9l7,14"/><path class="a" d="M4,21,11,7h9"/><path class="a" d="M17,16a15,15,0,0,1,30,0"/><line class="b" x1="64" transform="translate(0 21)"/><line class="a" y1="19" transform="translate(8 32)"/><line class="a" y2="19" transform="translate(14 32)"/><rect class="a" width="10" height="4" transform="translate(6 25)"/><rect class="a" width="10" height="4" transform="translate(6 51)"/><line class="a" y1="19" transform="translate(22 32)"/><line class="a" y2="19" transform="translate(28 32)"/><rect class="a" width="10" height="4" transform="translate(20 25)"/><rect class="a" width="10" height="4" transform="translate(20 51)"/><line class="a" y1="19" transform="translate(36 32)"/><line class="a" y2="19" transform="translate(42 32)"/><rect class="a" width="10" height="4" transform="translate(34 25)"/><rect class="a" width="10" height="4" transform="translate(34 51)"/><line class="a" y1="19" transform="translate(50 32)"/><line class="a" y2="19" transform="translate(56 32)"/><rect class="a" width="10" height="4" transform="translate(48 25)"/><rect class="a" width="10" height="4" transform="translate(48 51)"/><line class="a" x1="64" transform="translate(0 25)"/><line class="a" x2="58" transform="translate(3 55)"/><circle class="a" cx="4" cy="4" r="4" transform="translate(28 7)"/><line class="a" x2="2" transform="translate(39 11)"/><line class="a" x1="2" transform="translate(23 11)"/><rect class="a" width="62" height="4" transform="translate(1 59)"/></svg>