<svg xmlns="http://www.w3.org/2000/svg" viewBox="0 0 64 64"><defs><style>.a{opacity:0.35;}.b,.c{fill:#f00;stroke:#fff;stroke-miterlimit:10;stroke-width:2px;}.c{stroke-linejoin:round;}</style></defs><g class="a"><path class="b" d="M61,21a30.7,30.7,0,0,1,2,11A31,31,0,1,1,32,1,30.7,30.7,0,0,1,43,3"/><path class="b" d="M32,32,54,10l9-9"/><path class="b" d="M64,7H57V0"/><path class="b" d="M60,11H53V4"/><circle class="b" cx="25" cy="25" r="25" transform="translate(7 7)"/><circle class="b" cx="19" cy="19" r="19" transform="translate(13 13)"/><circle class="b" cx="13" cy="13" r="13" transform="translate(19 19)"/><circle class="b" cx="7" cy="7" r="7" transform="translate(25 25)"/><circle class="b" cx="1" cy="1" r="1" transform="translate(31 31)"/><path class="c" d="M12,56,5,63H1L7,51"/><path class="c" d="M52,56l7,7h4L57,51"/></g></svg>