<svg xmlns="http://www.w3.org/2000/svg" viewBox="0 0 64 64"><defs><style>.a,.b{fill:none;stroke:#1c7ed6;stroke-miterlimit:10;stroke-width:2px;}.a{stroke-linejoin:round;}</style></defs><line class="a" y1="4" transform="translate(14)"/><line class="a" y1="4" transform="translate(18)"/><line class="a" y1="4" transform="translate(22)"/><line class="a" y1="4" transform="translate(26)"/><line class="a" y1="4" transform="translate(30)"/><line class="a" y1="4" transform="translate(34)"/><line class="a" y1="4" transform="translate(38)"/><line class="a" y1="4" transform="translate(42)"/><line class="a" y1="4" transform="translate(46)"/><line class="a" y1="4" transform="translate(50)"/><line class="a" y1="4" transform="translate(14 60)"/><line class="a" y1="4" transform="translate(18 60)"/><line class="a" y1="4" transform="translate(22 60)"/><line class="a" y1="4" transform="translate(26 60)"/><line class="a" y1="4" transform="translate(30 60)"/><line class="a" y1="4" transform="translate(34 60)"/><line class="a" y1="4" transform="translate(38 60)"/><line class="a" y1="4" transform="translate(42 60)"/><line class="a" y1="4" transform="translate(46 60)"/><line class="a" y1="4" transform="translate(50 60)"/><line class="a" x2="4" transform="translate(60 14)"/><line class="a" x2="4" transform="translate(60 18)"/><line class="a" x2="4" transform="translate(60 22)"/><line class="a" x2="4" transform="translate(60 26)"/><line class="a" x2="4" transform="translate(60 30)"/><line class="a" x2="4" transform="translate(60 34)"/><line class="a" x2="4" transform="translate(60 38)"/><line class="a" x2="4" transform="translate(60 42)"/><line class="a" x2="4" transform="translate(60 46)"/><line class="a" x2="4" transform="translate(60 50)"/><line class="a" x2="4" transform="translate(0 14)"/><line class="a" x2="4" transform="translate(0 18)"/><line class="a" x2="4" transform="translate(0 22)"/><line class="a" x2="4" transform="translate(0 26)"/><line class="a" x2="4" transform="translate(0 30)"/><line class="a" x2="4" transform="translate(0 34)"/><line class="a" x2="4" transform="translate(0 38)"/><line class="a" x2="4" transform="translate(0 42)"/><line class="a" x2="4" transform="translate(0 46)"/><line class="a" x2="4" transform="translate(0 50)"/><line class="a" x2="2" transform="translate(52 53)"/><path class="a" d="M57,55a2.006,2.006,0,0,1-2,2H9a2.006,2.006,0,0,1-2-2V9A2.006,2.006,0,0,1,9,7H55a2.006,2.006,0,0,1,2,2Z"/><line class="a" x2="2" transform="translate(31 23)"/><line class="a" x2="2" transform="translate(27 23)"/><line class="a" x2="2" transform="translate(35 23)"/><path class="a" d="M50,53H11V11H53V50"/><rect class="b" width="30" height="12" transform="translate(17 17)"/><line class="a" x2="21" transform="translate(16 33)"/><line class="a" x2="13" transform="translate(16 37)"/></svg>