<svg xmlns="http://www.w3.org/2000/svg" viewBox="0 0 64 60"><defs><style>.a{fill:none;stroke:#1c7ed6;stroke-miterlimit:10;stroke-width:2px;}</style></defs><path class="a" d="M34,42s3-9.5,3-12V19H55V30c0,6,8,22,8,24v5H52"/><line class="a" x2="18" transform="translate(37 30)"/><path class="a" d="M25,41V33H13v8"/><path class="a" d="M34,59H1V45H49v7"/><line class="a" y1="9" transform="translate(17 24)"/><line class="a" y1="5" transform="translate(21 28)"/><path class="a" d="M1,42V9H9V29l4,4"/><rect class="a" width="23" height="4" transform="translate(7 41)"/><line class="a" y2="2" transform="translate(17 36)"/><line class="a" y2="2" transform="translate(21 36)"/><line class="a" y2="2" transform="translate(5 22)"/><line class="a" y2="2" transform="translate(5 26)"/><line class="a" y2="2" transform="translate(5 30)"/><line class="a" x2="8" transform="translate(1 13)"/><line class="a" x2="8" transform="translate(1 17)"/><line class="a" x2="18" transform="translate(37 23)"/><line class="a" x1="11" transform="translate(52 55)"/><line class="a" x2="6" transform="translate(4 55)"/><line class="a" x2="6" transform="translate(12 55)"/><line class="a" x2="6" transform="translate(20 55)"/><line class="a" x2="6" transform="translate(28 55)"/><path class="a" d="M32,1h0c-1.7,0-3,2-3,2s-1.3,2-3,2h0c-1.7,0-3-2-3-2s-1.3-2-3-2h0c-1.7,0-3,2-3,2s-1.3,2-3,2h0c-1.7,0-3-2-3-2S9.7,1,8,1H8"/><line class="a" transform="translate(8 1)"/><path class="a" d="M5,4A2.946,2.946,0,0,1,8,1"/><line class="a" y2="2" transform="translate(5 4)"/><path class="a" d="M64,11h0c-1.7,0-3,2-3,2s-1.3,2-3,2h0c-1.7,0-3-2-3-2s-1.3-2-3-2h0"/><line class="a" transform="translate(52 11)"/><path class="a" d="M49,14a2.946,2.946,0,0,1,3-3"/><line class="a" y2="2" transform="translate(49 14)"/><path class="a" d="M52,11H46"/><line class="a" transform="translate(46 11)"/><path class="a" d="M43,14a2.946,2.946,0,0,1,3-3"/><line class="a" y2="2" transform="translate(43 14)"/><rect class="a" width="12" height="4" transform="translate(37 55)"/></svg>