<svg xmlns="http://www.w3.org/2000/svg" viewBox="0 0 64 60"><defs><style>.a{fill:none;stroke:#1c7ed6;stroke-linejoin:round;stroke-miterlimit:10;stroke-width:2px;}</style></defs><path class="a" d="M28,9h7a4.012,4.012,0,0,1,4,4v7l6,14v1H39V45a4.012,4.012,0,0,1-4,4H17V59L7,49H5a4.012,4.012,0,0,1-4-4V13A4.012,4.012,0,0,1,5,9H22"/><path class="a" d="M42,41h5V51L57,41h2a4.012,4.012,0,0,0,4-4V5a4.012,4.012,0,0,0-4-4H29a4.012,4.012,0,0,0-4,4v9L19,28v1h6v8a4.012,4.012,0,0,0,4,4h7"/><line class="a" x2="14" transform="translate(44 9)"/><line class="a" x2="14" transform="translate(44 13)"/><line class="a" x2="10" transform="translate(44 17)"/><line class="a" x2="12" transform="translate(6 15)"/><line class="a" x2="12" transform="translate(6 19)"/><line class="a" x2="8" transform="translate(6 23)"/></svg>