<svg xmlns="http://www.w3.org/2000/svg" viewBox="0 0 64 56"><defs><style>.a,.b{fill:none;stroke:#1c7ed6;stroke-miterlimit:10;stroke-width:2px;}.a{stroke-linejoin:round;}</style></defs><line class="a" x2="22" transform="translate(21 15)"/><line class="a" x2="8" transform="translate(28 35)"/><path class="a" d="M44,14V10a.945.945,0,0,1,1-1h8a.945.945,0,0,1,1,1v4"/><path class="a" d="M10,14V10a.945.945,0,0,1,1-1h8a.945.945,0,0,1,1,1v4"/><circle class="a" cx="5" cy="5" r="5" transform="translate(36 30)"/><circle class="a" cx="5" cy="5" r="5" transform="translate(18 30)"/><path class="a" d="M39.9,30.1A10.518,10.518,0,0,1,38,24,11,11,0,1,1,49,35H46"/><path class="a" d="M18,35H15A11,11,0,1,1,26,24a10.518,10.518,0,0,1-1.9,6.1"/><path class="a" d="M17,42S12,55,7,55c-3.9,0-6-2-6-6S4,24,4,24"/><path class="a" d="M47,42s5,13,10,13c3.9,0,6-2,6-6s-3-25-3-25"/><line class="a" y2="10" transform="translate(15 19)"/><line class="a" x2="10" transform="translate(10 24)"/><line class="a" x2="2" transform="translate(31 31)"/><line class="a" x2="2" transform="translate(29 21)"/><line class="a" x2="2" transform="translate(33 21)"/><circle class="a" cx="1" cy="1" r="1" transform="translate(48 19)"/><circle class="a" cx="1" cy="1" r="1" transform="translate(48 27)"/><circle class="a" cx="1" cy="1" r="1" transform="translate(52 23)"/><circle class="a" cx="1" cy="1" r="1" transform="translate(44 23)"/><path class="b" d="M32,15V12a2.946,2.946,0,0,1,3-3h2a2.946,2.946,0,0,0,3-3,2.946,2.946,0,0,0-3-3H27a2.946,2.946,0,0,1-3-3"/></svg>