<svg xmlns="http://www.w3.org/2000/svg" viewBox="0 0 64 60"><defs><style>.a,.b{fill:none;stroke:#1c7ed6;stroke-miterlimit:10;stroke-width:2px;}.b{stroke-linejoin:round;}</style></defs><path class="a" d="M48,40"/><path class="a" d="M19,60V53c0-10,7-9,14-13"/><path class="a" d="M49,40c7,4,14,3,14,13v7"/><path class="a" d="M45,44l-4-2-4,2-4-4,2-3,6,1,6-1,2,3Z"/><line class="a" y2="4" transform="translate(46 33)"/><line class="a" y1="4" transform="translate(36 33)"/><line class="a" x2="2" transform="translate(40 51)"/><line class="a" x2="2" transform="translate(40 47)"/><path class="a" d="M50,20c0-6.1-2.9-9-9-9s-9,2.9-9,9v4c1,7,4,9,4,9a13,13,0,0,0,10,0s3-2,4-9Z"/><path class="a" d="M32,20l4-2,5,2,5,2,4-2"/><line class="a" y1="6" transform="translate(27 54)"/><line class="a" y1="6" transform="translate(55 54)"/><path class="b" d="M17,43C11.2,39.5,1,30.8,1,13V7H7L21,1,35,7"/><path class="a" d="M29.6,30.9A30.079,30.079,0,0,1,21,38S7,31,7,15V13h3L21,8l9,4.1"/><line class="b" y2="2" transform="translate(21 14)"/><line class="b" y2="2" transform="translate(21 18)"/><line class="b" y2="2" transform="translate(21 22)"/></svg>