<svg xmlns="http://www.w3.org/2000/svg" viewBox="0 0 64 60"><defs><style>.a,.b{fill:none;stroke:#1c7ed6;stroke-miterlimit:10;stroke-width:2px;}.b{stroke-linejoin:round;}</style></defs><line class="a" x2="64" transform="translate(0 59)"/><path class="a" d="M27,25V53a6.018,6.018,0,0,1-6,6H11a6.018,6.018,0,0,1-6-6V34L1,27V25Z"/><line class="a" x2="19" transform="translate(5 40)"/><line class="a" x2="5" transform="translate(5 36)"/><line class="a" x2="5" transform="translate(5 48)"/><line class="a" x2="5" transform="translate(5 44)"/><line class="a" x2="5" transform="translate(5 52)"/><path class="a" d="M37,9V30L51,50a8.963,8.963,0,0,1-9,9H26a8.963,8.963,0,0,1-9-9L31,30V9"/><line class="a" x2="12" transform="translate(28 9)"/><line class="a" x2="6" transform="translate(18 50)"/><line class="a" x2="20" transform="translate(30 50)"/><line class="a" x1="3" transform="translate(34 15)"/><line class="a" x1="3" transform="translate(34 19)"/><line class="a" x1="3" transform="translate(34 23)"/><line class="a" x1="3" transform="translate(34 27)"/><path class="b" d="M43,27l6-4H61a2.006,2.006,0,0,0,2-2V13a2.006,2.006,0,0,0-2-2H45a2.006,2.006,0,0,0-2,2Z"/><line class="b" x1="2" transform="translate(52 17)"/><line class="b" x1="2" transform="translate(56 17)"/><line class="b" x1="2" transform="translate(48 17)"/><circle class="a" cx="4" cy="4" r="4" transform="translate(15 13)"/><circle class="a" cx="3" cy="3" r="3" transform="translate(5 9)"/><circle class="a" cx="3" cy="3" r="3" transform="translate(13 1)"/><line class="a" x1="2" transform="translate(10 19)"/><line class="a" x1="2" transform="translate(6 5)"/><line class="a" x1="2" transform="translate(22 9)"/></svg>