<svg xmlns="http://www.w3.org/2000/svg" viewBox="0 0 17 17"><defs><style>.a{fill:#1c7ed6;}</style></defs><g transform="translate(-0.002 0)"><path class="a" d="M15.68,7.7l-3.191,3.19a4.459,4.459,0,0,1-7.066-.91L6.906,8.5a1.065,1.065,0,0,1,.241-.16A2.22,2.22,0,0,0,7.7,9.3a2.258,2.258,0,0,0,3.19,0l3.19-3.19a2.256,2.256,0,0,0-3.19-3.191L9.76,4.052a5.661,5.661,0,0,0-2.878-.313L9.3,1.321A4.512,4.512,0,1,1,15.68,7.7ZM7.244,12.948,6.109,14.084a2.256,2.256,0,1,1-3.191-3.191L6.109,7.7a2.257,2.257,0,0,1,3.19,0,2.233,2.233,0,0,1,.557.956A1.084,1.084,0,0,0,10.1,8.5l1.483-1.482a4.434,4.434,0,0,0-.685-.91,4.512,4.512,0,0,0-6.381,0L1.323,9.3A4.512,4.512,0,0,0,7.7,15.679l2.418-2.418A5.657,5.657,0,0,1,7.244,12.948Z"/></g></svg>