<svg xmlns="http://www.w3.org/2000/svg" viewBox="0 0 64 64"><defs><style>.a,.b{fill:none;stroke:#1c7ed6;stroke-miterlimit:10;stroke-width:2px;}.b{stroke-linejoin:round;}</style></defs><line class="a" y1="30" transform="translate(32 9)"/><line class="a" y1="20" transform="translate(32 43)"/><circle class="a" cx="4" cy="4" r="4" transform="translate(28 1)"/><path class="a" d="M32,53c2,1,5,2.2,5,5a5,5,0,0,1-10,0,5.142,5.142,0,0,1,1-3"/><path class="a" d="M32,53c-2-1-7-3-7-7,0-2.5,2-3.8,4-5"/><path class="a" d="M36,51a5.2,5.2,0,0,0,3-5c0-3.9-5-6-7-7"/><path class="a" d="M35,25c2,0,5,2,5,6,0,4.4-6,7-8,8-2-1-8-3.6-8-8,0-4,3-6,5-6"/><path class="b" d="M29,21H25C11,21,3,16,1,10c14,0,14-5,19-5a4.148,4.148,0,0,1,4,4v3a2.946,2.946,0,0,0,3,3h2"/><line class="a" y1="4" transform="translate(22 17)"/><line class="a" y1="5" transform="translate(18 16)"/><line class="a" y1="5" transform="translate(14 15)"/><line class="a" y1="4" transform="translate(10 14)"/><path class="b" d="M35,21h4c14,0,22-5,24-11C49,10,49,5,44,5a4.148,4.148,0,0,0-4,4v3a2.946,2.946,0,0,1-3,3H35"/><line class="a" y1="4" transform="translate(42 17)"/><line class="a" y1="5" transform="translate(46 16)"/><line class="a" y1="5" transform="translate(50 15)"/><line class="a" y1="4" transform="translate(54 14)"/></svg>