<svg xmlns="http://www.w3.org/2000/svg" viewBox="0 0 64 64"><defs><style>.a,.b{fill:none;stroke:#1c7ed6;stroke-miterlimit:10;stroke-width:2px;}.a{stroke-linejoin:round;}</style></defs><path class="a" d="M29,26l3-8V11"/><line class="a" x1="16" transform="translate(34 63)"/><path class="a" d="M42,11v7l5,13v9"/><line class="a" x2="18" transform="translate(29 35)"/><line class="a" x1="8" transform="translate(31 51)"/><path class="a" d="M32,7H42a2,2,0,0,1,0,4H32a2,2,0,0,1,0-4Z"/><rect class="a" width="12" height="22" transform="translate(19 41)"/><path class="a" d="M19,41H1V63H19"/><path class="a" d="M19,41l6-14,6,14"/><path class="a" d="M1,41,7,27H25"/><path class="a" d="M25,27V23H7v4"/><circle class="a" cx="12" cy="12" r="12" transform="translate(39 39)"/><line class="a" y2="2" transform="translate(51 42)"/><path class="a" d="M59,51a8.024,8.024,0,0,1-8,8"/><line class="b" x2="8" transform="translate(6 59)"/><path class="a" d="M7,20V1H51V36"/><line class="b" x2="16" transform="translate(10 5)"/><line class="b" x2="8" transform="translate(10 9)"/><path class="a" d="M51,1l6,6V36"/><circle class="a" cx="3" cy="3" r="3" transform="translate(10 31)"/><line class="a" y2="2" transform="translate(25 44)"/><line class="a" y2="2" transform="translate(25 48)"/><line class="a" y2="2" transform="translate(25 52)"/></svg>