<svg xmlns="http://www.w3.org/2000/svg" viewBox="0 0 510.867 510.846"><defs><style>.a{fill:#5c9eff;}.b{fill:#ffce54;}.c{fill:#d7e9ff;}.d{fill:#fff;}.e{fill:#94c1ff;}.f{opacity:0.7;}.g{fill:#116fff;}</style></defs><g transform="translate(-0.566 -0.577)"><path class="a" d="M483.8,384.008H451.82a15.992,15.992,0,0,0,0-31.984H419.836a15.993,15.993,0,0,0,0-31.985H371.858a15.992,15.992,0,1,0,0-31.984h87.958a15.994,15.994,0,0,0,0-31.988h-39.98a15.992,15.992,0,0,0,0-31.984H403.844a15.993,15.993,0,0,0,0-31.985H483.8a15.993,15.993,0,0,0,0-31.985H451.821a15.992,15.992,0,0,0,0-31.984H419.837a15.992,15.992,0,1,0,0-31.984H395.849a15.992,15.992,0,0,0,0-31.985H155.958a15.992,15.992,0,0,0,0,31.985H99.984a15.992,15.992,0,0,0,0,31.984H83.992a15.992,15.992,0,0,0,0,31.984h47.977a15.993,15.993,0,0,0,0,31.985H44.011a15.993,15.993,0,0,0,0,31.985H83.992a15.992,15.992,0,0,0,0,31.984H44.011a15.994,15.994,0,0,0,0,31.988H28.019a15.992,15.992,0,1,0,0,31.984H68a15.993,15.993,0,0,0,0,31.985H52.008a15.992,15.992,0,1,0,0,31.984h79.961a15.992,15.992,0,0,0,0,31.984H99.984a15.993,15.993,0,0,0,0,31.985H371.857a15.993,15.993,0,1,0,0-31.985H483.8a15.992,15.992,0,0,0,0-31.984Z"/><path class="b" d="M403.835,256.069A147.929,147.929,0,1,1,255.9,108.136,147.934,147.934,0,0,1,403.835,256.069Z"/><path class="c" d="M403.835,256.069A147.929,147.929,0,1,1,255.9,108.136,147.934,147.934,0,0,1,403.835,256.069Z"/><path class="d" d="M139.961,256.069A147.925,147.925,0,0,1,271.9,109.034a149.428,149.428,0,0,0-15.992-.9A147.931,147.931,0,0,0,255.9,404a150.475,150.475,0,0,0,15.992-.9A147.927,147.927,0,0,1,139.961,256.069Z"/><path class="e" d="M371.85,256.062A147.925,147.925,0,0,1,239.913,403.1a150.284,150.284,0,0,0,15.992.9,147.931,147.931,0,0,0,0-295.862,149.5,149.5,0,0,0-15.992.9A147.925,147.925,0,0,1,371.85,256.062Z"/><path class="c" d="M379.206,327.16c-23.747-26.12-49.984-53.825-78.033-82.214-5.544-5.767-11.2-11.42-16.961-17.187-34.374-34.378-68.014-66.433-99.339-94.931C90.958,47.623,17.4-5.926,5.639,5.834-5.328,16.8,42.047,83.293,117.589,168.221l11.588,11.588a140.713,140.713,0,0,1,13.517-18.827l-.457-.34-10.229-10.229c-28.217-32.855-59.936-62.989-56.371-66.554C82.7,76.792,177.92,152.67,268.665,243.309c5.653,5.654,11.252,11.362,16.906,17.016,83.9,85.381,157.189,169.4,150.568,176.017-3.562,3.562-41.387-27.932-73.785-55.691l-11.307-11.315a140.53,140.53,0,0,1-18.827,13.518l11.588,11.588c84.928,75.542,151.364,122.863,162.328,111.9C517.905,494.579,464.415,421.076,379.206,327.16Z"/><g class="f"><path class="d" d="M179.247,138.481c31.321,28.494,64.961,60.553,99.335,94.931,5.763,5.767,11.417,11.42,16.961,17.188,28.049,28.389,54.286,56.094,78.032,82.214,78.268,86.264,129.719,155.254,128.485,175.057a6.116,6.116,0,0,0,4.1-1.53c11.768-11.761-41.722-85.264-126.931-179.18-23.747-26.12-49.984-53.825-78.033-82.214-5.544-5.767-11.2-11.42-16.961-17.187-34.366-34.378-68.014-66.437-99.335-94.931C90.981,47.623,17.423-5.926,5.663,5.834A6.06,6.06,0,0,0,4.136,9.941C23.939,8.712,92.984,60.218,179.247,138.481Z"/></g><path class="c" d="M484.179,52.19A23.988,23.988,0,1,1,460.191,28.2,23.992,23.992,0,0,1,484.179,52.19Z"/><path class="d" d="M444.2,52.19A23.946,23.946,0,0,1,464.188,28.6a23.992,23.992,0,1,0,0,47.173A23.95,23.95,0,0,1,444.2,52.19Z"/><path class="e" d="M476.183,52.19a23.947,23.947,0,0,1-19.99,23.587,23.992,23.992,0,1,0,0-47.173A23.951,23.951,0,0,1,476.183,52.19Z"/><path class="g" d="M492.417,232.108a4.029,4.029,0,0,1-4.037-4,3.961,3.961,0,0,1,3.951-4h.086a4,4,0,0,1,0,8Z"/><path class="g" d="M204.551,48.2a4.032,4.032,0,0,1-4.037-4,3.963,3.963,0,0,1,3.959-4h.078a4,4,0,1,1,0,8Z"/><path class="g" d="M4.647,144.15a4.032,4.032,0,0,1-4.037-4,3.962,3.962,0,0,1,3.959-4h.078a4,4,0,0,1,0,8Z"/><path class="g" d="M316.5,40.2a4.03,4.03,0,0,1-4.037-4,3.961,3.961,0,0,1,3.951-4h.086a4,4,0,0,1,0,8Z"/><path class="g" d="M428.448,160.143a4.028,4.028,0,0,1-4.037-4,3.96,3.96,0,0,1,3.951-4h.086a4,4,0,0,1,0,8Z"/><path class="g" d="M324.5,503.981a4.03,4.03,0,0,1-4.037-4,3.961,3.961,0,0,1,3.951-4h.086a4,4,0,0,1,0,8Z"/><path class="g" d="M196.555,472a4.032,4.032,0,0,1-4.037-4,3.963,3.963,0,0,1,3.959-4h.078a4,4,0,1,1,0,8Z"/><path class="g" d="M12.644,352.055a4.032,4.032,0,0,1-4.037-4,3.962,3.962,0,0,1,3.959-4h.078a4,4,0,1,1,0,8Z"/><path class="g" d="M76.613,400.031a4.032,4.032,0,0,1-4.037-4,3.963,3.963,0,0,1,3.959-4h.078a4,4,0,1,1,0,8Z"/><path class="g" d="M76.379,503.974a4,4,0,0,1-4-4V468a4,4,0,0,1,8,0v31.977A4,4,0,0,1,76.379,503.974Z"/><path class="g" d="M84.371,487.981H68.382a4,4,0,1,1,0-8H84.371a4,4,0,1,1,0,8Z"/><path class="g" d="M36.394,272.093a4,4,0,0,1-4-4V236.107a4,4,0,0,1,8,0V268.1A4,4,0,0,1,36.394,272.093Z"/><path class="g" d="M44.39,256.1h0L28.4,256.089a4,4,0,0,1,0-8h0l15.993.008a4,4,0,1,1,0,8Z"/><path class="g" d="M468.187,344.059a4,4,0,0,1-4-4V308.076a4,4,0,1,1,8,0v31.985A4,4,0,0,1,468.187,344.059Z"/><path class="g" d="M476.183,328.065H460.19a4,4,0,1,1,0-8h15.992a4,4,0,0,1,0,8Z"/><path class="g" d="M460.19,80.169a27.979,27.979,0,1,1,27.986-27.987A28.016,28.016,0,0,1,460.19,80.169Zm0-47.961a19.983,19.983,0,1,0,19.99,19.974A20.007,20.007,0,0,0,460.19,32.208Z"/><path class="g" d="M460.19,88.166a6.646,6.646,0,0,1-4.771-2.12c-5.333-5.322-7.223-21.564-7.223-33.855,0-6.005.578-35.967,11.994-35.967a4,4,0,0,1,.727,7.93c-1.711,1.917-4.725,11.752-4.725,28.037s3.014,26.125,4.717,28.045a4,4,0,0,1-.711,7.93Z"/><path class="g" d="M16.259,20.19a4.032,4.032,0,0,1-4.037-4,3.963,3.963,0,0,1,3.959-4h.078a4,4,0,0,1,0,8Z"/><path class="g" d="M32.251,36.183a4.032,4.032,0,0,1-4.037-4,3.962,3.962,0,0,1,3.959-4h.078a4,4,0,1,1,0,8Z"/><path class="g" d="M48.244,52.175a4.032,4.032,0,0,1-4.037-4,3.964,3.964,0,0,1,3.959-4h.078a4,4,0,0,1,0,8Z"/><path class="g" d="M80.229,52.175a4.032,4.032,0,0,1-4.037-4,3.963,3.963,0,0,1,3.959-4h.078a4,4,0,0,1,0,8Z"/><path class="g" d="M64.236,68.167a4.032,4.032,0,0,1-4.037-4,3.962,3.962,0,0,1,3.959-4h.078a4,4,0,1,1,0,8Z"/><path class="g" d="M48.244,84.16a4.032,4.032,0,0,1-4.037-4,3.964,3.964,0,0,1,3.959-4h.078a4,4,0,0,1,0,8Z"/><path class="g" d="M96.221,68.167a4.032,4.032,0,0,1-4.037-4,3.962,3.962,0,0,1,3.959-4h.078a4,4,0,0,1,0,8Z"/><path class="g" d="M80.229,84.16a4.032,4.032,0,0,1-4.037-4,3.963,3.963,0,0,1,3.959-4h.078a4,4,0,0,1,0,8Z"/><path class="g" d="M64.236,100.152a4.032,4.032,0,0,1-4.037-4,3.962,3.962,0,0,1,3.959-4h.078a4,4,0,1,1,0,8Z"/><path class="g" d="M112.213,84.16a4.032,4.032,0,0,1-4.037-4,3.963,3.963,0,0,1,3.959-4h.078a4,4,0,0,1,0,8Z"/><path class="g" d="M80.229,116.145a4.032,4.032,0,0,1-4.037-4,3.962,3.962,0,0,1,3.959-4h.078a4,4,0,1,1,0,8Z"/><path class="g" d="M128.205,100.152a4.032,4.032,0,0,1-4.037-4,3.962,3.962,0,0,1,3.959-4h.078a4,4,0,0,1,0,8Z"/><path class="g" d="M96.221,132.137a4.032,4.032,0,0,1-4.037-4,3.962,3.962,0,0,1,3.959-4h.078a4,4,0,0,1,0,8Z"/><path class="g" d="M144.2,116.145a4.032,4.032,0,0,1-4.037-4,3.963,3.963,0,0,1,3.959-4h.078a4,4,0,0,1,0,8Z"/><path class="g" d="M112.213,148.129a4.032,4.032,0,0,1-4.037-4,3.962,3.962,0,0,1,3.959-4h.078a4,4,0,1,1,0,8Z"/><path class="g" d="M160.19,132.137a4.032,4.032,0,0,1-4.037-4,3.962,3.962,0,0,1,3.959-4h.078a4,4,0,0,1,0,8Z"/><path class="g" d="M176.182,148.129a4.032,4.032,0,0,1-4.037-4,3.963,3.963,0,0,1,3.959-4h.078a4,4,0,1,1,0,8Z"/><path class="g" d="M192.175,164.121a4.032,4.032,0,0,1-4.037-4,3.962,3.962,0,0,1,3.959-4h.078a4,4,0,0,1,0,8Z"/><path class="g" d="M208.167,180.114a4.032,4.032,0,0,1-4.037-4,3.963,3.963,0,0,1,3.959-4h.078a4,4,0,0,1,0,8Z"/><path class="g" d="M224.159,196.106a4.032,4.032,0,0,1-4.037-4,3.962,3.962,0,0,1,3.959-4h.078a4,4,0,0,1,0,8Z"/><path class="g" d="M240.151,212.1a4.032,4.032,0,0,1-4.037-4,3.963,3.963,0,0,1,3.959-4h.078a4,4,0,0,1,0,8Z"/><path class="g" d="M256.144,228.091a4.032,4.032,0,0,1-4.037-4,3.962,3.962,0,0,1,3.959-4h.078a4,4,0,0,1,0,8Z"/><path class="g" d="M272.14,244.083a4.03,4.03,0,0,1-4.037-4,3.961,3.961,0,0,1,3.951-4h.086a4,4,0,0,1,0,8Z"/><path class="g" d="M288.132,260.075a4.03,4.03,0,0,1-4.037-4,3.961,3.961,0,0,1,3.951-4h.086a4,4,0,0,1,0,8Z"/><path class="g" d="M304.124,276.067a4.03,4.03,0,0,1-4.037-4,3.962,3.962,0,0,1,3.952-4h.085a4,4,0,1,1,0,8Z"/><path class="g" d="M320.117,292.06a4.029,4.029,0,0,1-4.037-4,3.961,3.961,0,0,1,3.951-4h.086a4,4,0,0,1,0,8Z"/><path class="g" d="M336.109,308.052a4.029,4.029,0,0,1-4.037-4,3.961,3.961,0,0,1,3.951-4h.086a4,4,0,0,1,0,8Z"/><path class="g" d="M352.1,324.044a4.028,4.028,0,0,1-4.037-4,3.961,3.961,0,0,1,3.951-4h.086a4,4,0,0,1,0,8Z"/><path class="g" d="M368.094,340.037a4.029,4.029,0,0,1-4.037-4,3.962,3.962,0,0,1,3.951-4h.086a4,4,0,0,1,0,8Z"/><path class="g" d="M384.086,356.029a4.029,4.029,0,0,1-4.037-4,3.961,3.961,0,0,1,3.951-4h.086a4,4,0,0,1,0,8Z"/><path class="g" d="M400.078,372.021a4.029,4.029,0,0,1-4.037-4,3.961,3.961,0,0,1,3.952-4h.085a4,4,0,1,1,0,8Z"/><path class="g" d="M368.094,404.006a4.029,4.029,0,0,1-4.037-4,3.961,3.961,0,0,1,3.951-4h.086a4,4,0,1,1,0,8Z"/><path class="g" d="M416.071,388.014a4.028,4.028,0,0,1-4.037-4,3.96,3.96,0,0,1,3.951-4h.086a4,4,0,0,1,0,8Z"/><path class="g" d="M384.086,420a4.029,4.029,0,0,1-4.037-4A3.961,3.961,0,0,1,384,412h.086a4,4,0,0,1,0,8Z"/><path class="g" d="M432.063,404.006a4.029,4.029,0,0,1-4.037-4,3.961,3.961,0,0,1,3.951-4h.086a4,4,0,1,1,0,8Z"/><path class="g" d="M400.078,435.991a4.03,4.03,0,0,1-4.037-4,3.96,3.96,0,0,1,3.952-4h.085a4,4,0,1,1,0,8Z"/><path class="g" d="M448.056,420a4.029,4.029,0,0,1-4.037-4,3.961,3.961,0,0,1,3.951-4h.086a4,4,0,1,1,0,8Z"/><path class="g" d="M416.071,451.983a4.029,4.029,0,0,1-4.037-4,3.96,3.96,0,0,1,3.951-4h.086a4,4,0,0,1,0,8Z"/><path class="g" d="M464.048,435.991a4.03,4.03,0,0,1-4.037-4,3.96,3.96,0,0,1,3.951-4h.086a4,4,0,0,1,0,8Z"/><path class="g" d="M448.056,451.983a4.03,4.03,0,0,1-4.037-4,3.961,3.961,0,0,1,3.951-4h.086a4,4,0,0,1,0,8Z"/><path class="g" d="M432.063,467.976a4.03,4.03,0,0,1-4.037-4,3.961,3.961,0,0,1,3.951-4h.086a4,4,0,1,1,0,8Z"/><path class="g" d="M464.048,467.976a4.03,4.03,0,0,1-4.037-4,3.961,3.961,0,0,1,3.951-4h.086a4,4,0,1,1,0,8Z"/><path class="g" d="M480.04,483.968a4.029,4.029,0,0,1-4.037-4,3.961,3.961,0,0,1,3.951-4h.086a4,4,0,0,1,0,8Z"/><path class="g" d="M496.032,499.96a4.029,4.029,0,0,1-4.037-4,3.961,3.961,0,0,1,3.951-4h.086a4,4,0,0,1,0,8Z"/><path class="g" d="M255.9,408c-83.772,0-151.927-68.154-151.927-151.927A151.155,151.155,0,0,1,146.965,150.19a4,4,0,1,1,5.731,5.575,143.192,143.192,0,0,0-40.723,100.312c0,79.368,64.567,143.931,143.931,143.931a143.166,143.166,0,0,0,100.319-40.723,4,4,0,0,1,5.575,5.731A151.125,151.125,0,0,1,255.9,408Z"/><path class="g" d="M391.013,320.421a3.989,3.989,0,0,1-3.647-5.63,142.849,142.849,0,0,0,12.471-58.714c0-79.364-64.571-143.931-143.932-143.931a142.943,142.943,0,0,0-58.714,12.482,4,4,0,0,1-3.263-7.3,150.894,150.894,0,0,1,61.978-13.177c83.772,0,151.928,68.154,151.928,151.927a150.691,150.691,0,0,1-13.174,61.979A3.988,3.988,0,0,1,391.013,320.421Z"/><path class="g" d="M502.3,511.423c-15.1,0-55.364-19.928-161.173-114.039a4,4,0,1,1,5.31-5.973c103.739,92.26,151.31,117.717,156.908,112.094,10.636-10.643-68.646-119.622-221.939-272.916C128.123,77.319,19.164-2.018,8.478,8.649,2.872,14.263,28.347,61.822,120.584,165.542a4,4,0,1,1-5.974,5.31C.091,42.082-4.583,10.414,2.82,3c22.849-22.774,182.5,120.208,284.242,221.94C388.787,326.668,531.842,486.311,509,509.16,507.683,510.486,505.583,511.423,502.3,511.423Z"/><path class="g" d="M435.679,440.84c-5.475,0-20.061-9.245-75.925-57.168a4,4,0,1,1,5.2-6.068c40.379,34.632,58.026,47.883,65.655,52.615-12.119-21.739-78.915-98.2-164.771-184.06C182.367,162.7,105.536,101.452,82.762,89.5c4.845,6.146,13.99,16.043,22.337,25.078,9.269,10.034,19.776,21.4,29.9,33.187a4,4,0,0,1-6.068,5.209C118.9,141.3,108.449,129.99,99.226,120.006,73.816,92.5,68,85.827,72.84,81,85.888,67.98,207.22,176.244,271.491,240.507c44.275,44.283,88.23,90.964,120.59,128.07,54.724,62.76,50.21,67.281,46.907,70.576A4.3,4.3,0,0,1,435.679,440.84Z"/></g></svg>