<svg xmlns="http://www.w3.org/2000/svg" viewBox="0 0 503.992 511.754"><defs><style>.a{fill:#94c1ff;}.b{fill:#d7e9ff;}.c{fill:#5c9eff;}.d{fill:#116fff;}</style></defs><g transform="translate(-4.004 -0.123)"><path class="a" d="M480.268,59.591a32.484,32.484,0,1,1-32.484-32.484A32.483,32.483,0,0,1,480.268,59.591Z"/><path class="b" d="M423.3,59.591a32.382,32.382,0,0,1,28.486-32.083,31.955,31.955,0,0,0-4-.4,32.486,32.486,0,0,0,0,64.972,31.954,31.954,0,0,0,4-.4A32.379,32.379,0,0,1,423.3,59.591Z"/><path class="c" d="M471.771,59.6a32.38,32.38,0,0,1-28.486,32.082,31.955,31.955,0,0,0,4,.4,32.486,32.486,0,0,0,0-64.972,31.954,31.954,0,0,0-4,.4A32.381,32.381,0,0,1,471.771,59.6Z"/><path class="c" d="M483.773,387.937H451.789a15.992,15.992,0,0,0,0-31.984H419.8a15.993,15.993,0,0,0,0-31.985H371.827a15.992,15.992,0,1,0,0-31.984h87.958a15.992,15.992,0,0,0,0-31.984H419.8a15.992,15.992,0,0,0,0-31.984H403.813a15.993,15.993,0,0,0,0-31.985h79.961a15.993,15.993,0,0,0,0-31.985H451.79a15.992,15.992,0,0,0,0-31.984H419.806a15.992,15.992,0,1,0,0-31.984H395.818a15.993,15.993,0,0,0,0-31.985H155.932a15.992,15.992,0,0,0,0,31.985H99.958a15.992,15.992,0,0,0,0,31.984H83.966a15.992,15.992,0,0,0,0,31.984h47.977a15.993,15.993,0,0,0,0,31.985H43.986a15.993,15.993,0,1,0,0,31.985h39.98a15.992,15.992,0,0,0,0,31.984H43.986a15.992,15.992,0,1,0,0,31.984H27.993a15.992,15.992,0,1,0,0,31.984H67.974a15.993,15.993,0,0,0,0,31.985H51.982a15.992,15.992,0,1,0,0,31.984h79.961a15.992,15.992,0,0,0,0,31.984H99.958a15.993,15.993,0,0,0,0,31.985H371.827a15.993,15.993,0,1,0,0-31.985H483.773a15.992,15.992,0,0,0,0-31.984Z"/><path class="b" d="M55.98,499.883a8,8,0,1,1-8-8A7.994,7.994,0,0,1,55.98,499.883Z"/><path class="a" d="M403.812,260A147.929,147.929,0,1,1,255.883,112.069,147.934,147.934,0,0,1,403.812,260Z"/><path class="b" d="M139.939,260A147.92,147.92,0,0,1,271.875,112.967a147.929,147.929,0,1,0,0,294.063A147.917,147.917,0,0,1,139.939,260Z"/><path class="c" d="M371.827,260A147.918,147.918,0,0,1,239.891,407.029a147.93,147.93,0,1,0,0-294.063A147.924,147.924,0,0,1,371.827,260Z"/><path class="c" d="M339.843,228.014c0,6.622-12.533,11.994-27.986,11.994s-27.987-5.373-27.987-11.994,12.525-11.994,27.987-11.994S339.843,221.392,339.843,228.014Z"/><path class="c" d="M235.893,168.042c0,4.42-7.16,8-15.992,8s-15.992-3.577-15.992-8,7.161-8,15.992-8S235.893,163.623,235.893,168.042Z"/><path class="c" d="M211.9,295.98c0,4.42-10.741,8-23.988,8s-23.989-3.576-23.989-8,10.741-8,23.989-8S211.9,291.568,211.9,295.98Z"/><path class="c" d="M331.847,335.962c0,4.419-8.957,8-19.99,8s-19.99-3.577-19.99-8,8.948-8,19.99-8S331.847,331.55,331.847,335.962Z"/><path class="d" d="M24.233,216.02a4.032,4.032,0,0,1-4.037-4,3.963,3.963,0,0,1,3.959-4h.078a4,4,0,1,1,0,8Z"/><path class="d" d="M232.133,495.885a4.032,4.032,0,0,1-4.037-4,3.962,3.962,0,0,1,3.959-4h.078a4,4,0,1,1,0,8Z"/><path class="d" d="M184.157,439.912a4.032,4.032,0,0,1-4.037-4,3.962,3.962,0,0,1,3.959-4h.078a4,4,0,1,1,0,8Z"/><path class="d" d="M120.187,479.893a4.032,4.032,0,0,1-4.037-4,3.962,3.962,0,0,1,3.959-4h.078a4,4,0,1,1,0,8Z"/><path class="d" d="M360.067,463.9a4.035,4.035,0,0,1-4.037-4,3.962,3.962,0,0,1,3.959-4h.078a4,4,0,1,1,0,8Z"/><path class="d" d="M40.226,311.973a4.032,4.032,0,0,1-4.037-4,3.963,3.963,0,0,1,3.959-4h.078a4,4,0,1,1,0,8Z"/><path class="d" d="M80.207,136.058a4.032,4.032,0,0,1-4.037-4,3.962,3.962,0,0,1,3.959-4h.078a4,4,0,1,1,0,8Z"/><path class="d" d="M64.214,407.927a4.032,4.032,0,0,1-4.037-4,3.962,3.962,0,0,1,3.959-4h.078a4,4,0,1,1,0,8Z"/><path class="d" d="M112.191,32.107a4.032,4.032,0,0,1-4.037-4,3.962,3.962,0,0,1,3.959-4h.078a4,4,0,1,1,0,8Z"/><path class="d" d="M296.1,80.084a4.035,4.035,0,0,1-4.037-4,3.964,3.964,0,0,1,3.959-4h.078a4,4,0,0,1,0,8Z"/><path class="d" d="M344.075,8.119a4.034,4.034,0,0,1-4.037-4,3.962,3.962,0,0,1,3.959-4h.078a4,4,0,1,1,0,8Z"/><path class="d" d="M216.141,8.119a4.032,4.032,0,0,1-4.037-4,3.962,3.962,0,0,1,3.959-4h.078a4,4,0,1,1,0,8Z"/><path class="d" d="M456.021,184.035a4.035,4.035,0,0,1-4.037-4,3.962,3.962,0,0,1,3.959-4h.078a4,4,0,0,1,0,8Z"/><path class="d" d="M504,319.969a4.033,4.033,0,0,1-4.037-4,3.963,3.963,0,0,1,3.959-4H504a4,4,0,1,1,0,8Z"/><path class="d" d="M424.037,383.938a4.034,4.034,0,0,1-4.037-4,3.962,3.962,0,0,1,3.959-4h.078a4,4,0,1,1,0,8Z"/><path class="d" d="M479.768,495.885a4,4,0,0,1-4-4V459.9a4,4,0,1,1,8,0v31.984A4,4,0,0,1,479.768,495.885Z"/><path class="d" d="M487.764,479.893H471.772a4,4,0,1,1,0-8h15.992a4,4,0,1,1,0,8Z"/><path class="d" d="M39.983,72.088a4,4,0,0,1-4-4V36.1a4,4,0,0,1,8,0V68.09A4,4,0,0,1,39.983,72.088Z"/><path class="d" d="M47.98,56.1H31.987a4,4,0,0,1,0-8H47.98a4,4,0,0,1,0,8Z"/><path class="d" d="M47.984,511.877a11.994,11.994,0,1,1,11.994-11.994A12.008,12.008,0,0,1,47.984,511.877Zm0-15.992a4,4,0,1,0,4,4A4,4,0,0,0,47.984,495.885Z"/><path class="d" d="M41.639,499.031a4.017,4.017,0,0,1-2.483-.866c-1.093-.875-26.874-21.747-35.069-61.439a4,4,0,1,1,7.832-1.624c7.614,36.889,31.965,56.613,32.211,56.8a4,4,0,0,1-2.491,7.128Z"/><path class="d" d="M255.883,411.925c-83.772,0-151.927-68.154-151.927-151.927s68.155-151.927,151.927-151.927S407.81,176.225,407.81,260,339.655,411.925,255.883,411.925Zm0-295.858c-79.364,0-143.931,64.566-143.931,143.931s64.567,143.931,143.931,143.931S399.814,339.367,399.814,260,335.243,116.067,255.883,116.067Z"/><path class="d" d="M171.924,228.014H112.366a4,4,0,1,1,0-8h59.558a4,4,0,1,1,0,8Z"/><path class="d" d="M399.4,299.979H275.873a4,4,0,0,1,0-8H399.4a4,4,0,0,1,0,8Z"/><path class="d" d="M371.757,172.04h-39.91a4,4,0,0,1,0-8h39.91a4,4,0,0,1,0,8Z"/><path class="d" d="M251.885,363.948H146.834a4,4,0,1,1,0-8H251.885a4,4,0,1,1,0,8Z"/><path class="d" d="M311.856,244.006c-15.9,0-31.985-5.493-31.985-15.992,0-21,63.97-21,63.97,0C343.841,238.513,327.747,244.006,311.856,244.006Zm0-23.988c-14.884,0-23.989,5.177-23.989,8s9.105,8,23.989,8,23.988-5.177,23.988-8S326.732,220.018,311.856,220.018Z"/><path class="d" d="M219.9,180.037c-11.4,0-19.99-5.158-19.99-11.995s8.594-11.994,19.99-11.994,19.99,5.158,19.99,11.994S231.3,180.037,219.9,180.037Zm0-15.993c-7.738,0-11.994,3-11.994,4s4.256,4,11.994,4,11.994-3,11.994-4S227.639,164.044,219.9,164.044Z"/><path class="d" d="M187.917,307.975c-13.931,0-27.987-3.709-27.987-11.994s14.056-11.994,27.987-11.994S215.9,287.7,215.9,295.981,201.847,307.975,187.917,307.975ZM168.289,295.98c1.878,1.484,8.574,4,19.627,4s17.749-2.514,19.627-4c-1.878-1.476-8.582-4-19.627-4S170.167,294.505,168.289,295.98Z"/><path class="d" d="M311.856,347.956c-11.558,0-23.989-3.749-23.989-11.994s12.432-11.995,23.989-11.995,23.988,3.749,23.988,11.995S323.4,347.956,311.856,347.956Zm0-15.992c-9.933,0-15.493,3.014-16.031,4.216.538.766,6.091,3.78,16.031,3.78s15.484-3.015,16.023-4.217C327.341,334.978,321.781,331.964,311.856,331.964Z"/><path class="d" d="M447.783,96.077a35.983,35.983,0,1,1,35.982-35.983A36.022,36.022,0,0,1,447.783,96.077Zm0-63.97a27.987,27.987,0,1,0,27.986,27.987A28.021,28.021,0,0,0,447.783,32.107Z"/><path class="d" d="M427.1,65.65a50.714,50.714,0,0,1-12.268-1.679,4,4,0,0,1,1.937-7.754c15.157,3.776,20.889-.5,28.158-5.931,6.935-5.173,14.751-10.986,30.782-10.179a4,4,0,0,1,3.779,4.209,4.069,4.069,0,0,1-4.209,3.779c-13.079-.71-19.154,3.815-25.565,8.6C443.793,61.113,437.718,65.65,427.1,65.65Z"/><path class="d" d="M455.779,80.084h-8a4,4,0,0,1,0-8h8a4,4,0,0,1,0,8Z"/></g></svg>