<svg xmlns="http://www.w3.org/2000/svg" viewBox="0 0 64 64"><defs><style>.a,.b{fill:none;stroke:#1c7ed6;stroke-miterlimit:10;stroke-width:2px;}.b{stroke-linejoin:round;}</style></defs><path class="a" d="M39,62a.945.945,0,0,1-1,1H2a.945.945,0,0,1-1-1V10A.945.945,0,0,1,2,9H38a.945.945,0,0,1,1,1Z"/><circle class="a" cx="13" cy="13" r="13" transform="translate(7 17)"/><line class="a" x2="24" transform="translate(8 26)"/><line class="a" x2="24" transform="translate(8 34)"/><line class="a" y2="26" transform="translate(20 17)"/><ellipse class="a" cx="7" cy="13" rx="7" ry="13" transform="translate(13 17)"/><line class="a" x2="28" transform="translate(6 49)"/><line class="a" x2="28" transform="translate(6 53)"/><line class="a" x1="2" transform="translate(52 41)"/><line class="a" x1="2" transform="translate(56 41)"/><line class="a" x1="2" transform="translate(48 41)"/><line class="a" x1="2" transform="translate(44 41)"/><line class="a" y2="12" transform="translate(51 46)"/><line class="a" y2="12" transform="translate(47 46)"/><line class="a" y2="16" transform="translate(51 20)"/><line class="a" y2="16" transform="translate(47 20)"/><line class="b" y2="10" transform="translate(49 6)"/><path class="b" d="M47,17l2-2,2,2"/><path class="b" d="M45,13l4-4,4,4"/><line class="b" y2="19" transform="translate(57 44)"/><line class="b" y2="37" transform="translate(57 1)"/><line class="a" y2="5" transform="translate(39 1)"/><path class="a" d="M29,6V4a2.946,2.946,0,0,1,3-3H60a2.946,2.946,0,0,1,3,3V38a2.946,2.946,0,0,1-3,3,2.946,2.946,0,0,1,3,3V60a2.946,2.946,0,0,1-3,3H42"/></svg>