<svg xmlns="http://www.w3.org/2000/svg" viewBox="0 0 18.465 15"><defs><style>.a{fill:#fff;}</style></defs><g transform="translate(-0.003 -57.441)"><g transform="translate(0.001 57.441)"><path class="a" d="M18.467,59.216a7.565,7.565,0,0,1-2.175.6,3.8,3.8,0,0,0,1.665-2.094,7.637,7.637,0,0,1-2.407.92A3.791,3.791,0,0,0,9.1,62.091a10.755,10.755,0,0,1-7.807-3.958A3.793,3.793,0,0,0,2.46,63.19a3.788,3.788,0,0,1-1.716-.475v.047a3.792,3.792,0,0,0,3.038,3.715,3.838,3.838,0,0,1-1,.133,3.636,3.636,0,0,1-.713-.07A3.79,3.79,0,0,0,5.609,69.17,7.6,7.6,0,0,1,.9,70.789a8.053,8.053,0,0,1-.9-.052,10.708,10.708,0,0,0,5.807,1.7A10.7,10.7,0,0,0,16.585,61.663l-.013-.49A7.565,7.565,0,0,0,18.467,59.216Z" transform="translate(-0.001 -57.441)"/></g></g></svg>