<svg xmlns="http://www.w3.org/2000/svg" viewBox="0 0 22 12.553"><defs><style>.a{fill:#1c7ed6;}</style></defs><g transform="translate(0 -117.748)"><path class="a" d="M21.883,129.084a1.506,1.506,0,0,0-.075-.143,11.4,11.4,0,0,0-2.188-2.532l-.023-.023-.011-.011-.012-.012h-.012q-.733-.7-.928-.939a.882.882,0,0,1-.161-.928,8.649,8.649,0,0,1,1.031-1.5q.47-.607.744-.974,1.982-2.635,1.718-3.368l-.068-.114a.67.67,0,0,0-.355-.189,1.8,1.8,0,0,0-.733-.029l-3.3.023a.428.428,0,0,0-.229.006l-.149.034-.057.029-.046.034a.509.509,0,0,0-.126.12.786.786,0,0,0-.114.2,18.7,18.7,0,0,1-1.226,2.577q-.424.71-.779,1.231a5.925,5.925,0,0,1-.6.767,4.155,4.155,0,0,1-.435.4q-.195.149-.3.126l-.195-.046a.762.762,0,0,1-.258-.281,1.257,1.257,0,0,1-.132-.447q-.034-.269-.04-.464t.006-.55q.012-.355.012-.481,0-.435.017-.945t.029-.807q.012-.3.011-.63a2.647,2.647,0,0,0-.04-.521,1.783,1.783,0,0,0-.12-.367.617.617,0,0,0-.235-.275,1.324,1.324,0,0,0-.384-.155,7.623,7.623,0,0,0-1.546-.149,7.514,7.514,0,0,0-2.738.275,1.543,1.543,0,0,0-.435.344q-.206.252-.057.275a1.4,1.4,0,0,1,.974.492l.069.138a2.191,2.191,0,0,1,.16.527,5.316,5.316,0,0,1,.1.836,8.916,8.916,0,0,1,0,1.432q-.057.6-.109.928a1.858,1.858,0,0,1-.155.538,2.272,2.272,0,0,1-.138.252.2.2,0,0,1-.057.057.858.858,0,0,1-.309.057.726.726,0,0,1-.389-.16,2.748,2.748,0,0,1-.475-.441,5.894,5.894,0,0,1-.556-.785q-.309-.5-.641-1.191l-.183-.332q-.172-.321-.47-.933t-.527-1.186a.755.755,0,0,0-.275-.366l-.057-.034a.783.783,0,0,0-.183-.1,1.217,1.217,0,0,0-.263-.074l-3.139.023a.8.8,0,0,0-.653.218l-.046.069a.371.371,0,0,0-.034.183.912.912,0,0,0,.069.309q.687,1.615,1.495,3.116t1.4,2.417q.6.916,1.214,1.73T5,127.406q.2.229.315.344l.286.275a6.8,6.8,0,0,0,.807.659,13.779,13.779,0,0,0,1.18.756,6.4,6.4,0,0,0,1.506.607,5.209,5.209,0,0,0,1.672.189h1.317a.912.912,0,0,0,.607-.252l.046-.057a.759.759,0,0,0,.086-.212,1.164,1.164,0,0,0,.04-.315,3.774,3.774,0,0,1,.074-.888,2.334,2.334,0,0,1,.195-.6,1.464,1.464,0,0,1,.246-.338,1,1,0,0,1,.2-.166.754.754,0,0,1,.091-.04.727.727,0,0,1,.647.178,3.8,3.8,0,0,1,.7.664q.326.4.785.888a5.391,5.391,0,0,0,.8.733l.229.137a2.788,2.788,0,0,0,.6.252,1.284,1.284,0,0,0,.641.057L21,130.236a1.329,1.329,0,0,0,.676-.143.568.568,0,0,0,.286-.315.887.887,0,0,0,.006-.39A1.437,1.437,0,0,0,21.883,129.084Z"/></g></svg>