<svg xmlns="http://www.w3.org/2000/svg" viewBox="0 0 250 43.002" fill="#495057"><path d="M33.616,4.886l4.111,7.148a3.243,3.243,0,0,0,2.828,1.623h4.9A1.64,1.64,0,0,0,46.865,11.2l-.34-.6a1.431,1.431,0,0,1,1.231-2.147h19.35a1.426,1.426,0,0,1,1.231,2.147L58.674,27.352a1.425,1.425,0,0,1-2.461,0l-3.168-5.5a3.267,3.267,0,0,0-2.828-1.65H45.974a2.034,2.034,0,0,0-1.754,3.037l10.4,18.041a3.268,3.268,0,0,0,5.656,0l21-36.37a3.265,3.265,0,0,0-2.828-4.9h-42a3.223,3.223,0,0,0-2.828,4.87ZM21.309,15.307a3.212,3.212,0,0,1,2.828-1.623H31.18a1.36,1.36,0,0,0,1.178-2.042L26.572,1.587a3.268,3.268,0,0,0-5.656,0L8.348,23.346a3.265,3.265,0,0,0,2.828,4.9H31a3.273,3.273,0,0,1,0,6.546H4.08a4.045,4.045,0,1,0,0,8.091H44.77a3.265,3.265,0,0,0,2.828-4.9L38.25,21.827A3.243,3.243,0,0,0,35.422,20.2H24.137a3.265,3.265,0,0,1-2.828-4.9Zm78.841-2.985c0-1.2-1.414-1.466-3.142-1.571-3.718-.262-6.153-1.545-6.206-5.263-.157-7.384,13.145-7.384,13.066,0H99.7c0-2.278-4.608-2.069-4.739-.052-.1,1.309,1.178,1.571,2.723,1.728,3.4.367,6.729.89,6.729,5.158,0,7.2-13.93,7.305-13.851-.209h4.242c-.026,2.2,5.342,2.226,5.342.209ZM122.721.2h1.571V17.376h-4.478V9.73l-3.64,3.823h-.5L112.064,9.73v7.62h-4.478V.2h1.623l6.7,7.436L122.721.2Zm15.789,15h-6.756l-.995,2.147h-4.268v-.628l7.7-16.706h1.885L143.8,16.721v.628h-4.268L138.51,15.2Zm-3.378-8.248-1.911,4.5H137.1ZM160.5,16.721v.628h-4.9l-2.933-5.027H150.4v5.027h-4.373V.225h7.515c6.729.026,7.96,8.117,3.613,11.05ZM153.539,4.153c-1.021-.026-2.095,0-3.142,0V8.394h3.142C155.922,8.394,156.027,4.179,153.539,4.153Zm7.934,0V.251H174.2v3.9h-4.189v13.2h-4.32V4.153ZM97.008,42.591H90.54V25.467h6.468C108.162,25.519,108.162,42.539,97.008,42.591Zm-2.069-4.006h2.069c5.446,0,5.446-9.138,0-9.138H94.939ZM119.4,29.368h-6.337v2.409h5.813v3.9h-5.813V38.69H119.6v3.9H108.686V25.467h10.683C119.4,26.723,119.4,28.059,119.4,29.368Zm10.369,5.813h.131l3.9-9.714h4.216v.655l-7.253,16.653H128.9l-7.332-16.653v-.655h4.216Zm21.471-5.813H144.9v2.409h5.813v3.9H144.9V38.69h6.546v3.9H140.526V25.467h10.683c.026,1.257.026,2.592.026,3.9Zm8.379,9.269h6.206v3.928h-10.6v-17.1h4.4V38.637Zm8.17-4.582c0-11.835,17.57-11.835,17.57,0C185.327,45.916,167.784,45.916,167.784,34.055Zm13.066,0a4.305,4.305,0,1,0-8.588,0A4.308,4.308,0,1,0,180.85,34.055Zm7.777,8.536V25.467h7.541c8.2.026,8.2,12.752,0,12.752h-3.142v4.373Zm7.515-13.223c-1.021-.026-2.121,0-3.142,0v4.9h3.142c2.409,0,2.54-4.87,0-4.9Zm20.162,0h-6.337v2.409h5.813v3.9h-5.813V38.69h6.546v3.9H205.594V25.467h10.683c.026,1.257.026,2.592.026,3.9Zm18.434,12.568v.628h-4.9l-2.933-5.027H224.63v5.027h-4.373V25.44h7.515c6.729.026,7.96,8.117,3.613,11.05l3.352,5.446Zm-6.965-12.568c-1.021-.026-2.095,0-3.142,0V33.61h3.142C230.128,33.61,230.259,29.394,227.772,29.368Zm17.989,8.091c0-1.2-1.414-1.388-3.142-1.493-3.718-.262-6.153-1.545-6.206-5.263-.157-7.384,13.145-7.384,13.066,0h-4.163c0-2.278-4.608-2.069-4.739-.052-.1,1.309,1.178,1.571,2.723,1.728,3.4.367,6.729.812,6.729,5.08,0,7.2-13.93,7.384-13.851-.157h4.242c0,2.226,5.342,2.173,5.342.157Z" transform="translate(-0.029 0.051)"/></svg>