<svg xmlns="http://www.w3.org/2000/svg" viewBox="0 0 64 64"><defs><style>.a,.b,.c{fill:none;stroke-linejoin:round;stroke-miterlimit:10;stroke-width:2px;}.a{stroke:#222829;}.b{stroke:#1c7ed6;}.c{stroke:#2f9e44;}</style></defs><line class="a" x2="36" transform="translate(15 7)"/><line class="a" x2="36" transform="translate(15 57)"/><path class="a" d="M15,30V58a4.951,4.951,0,0,0,5,5H46a4.951,4.951,0,0,0,5-5V48"/><path class="a" d="M51,20V6a4.951,4.951,0,0,0-5-5H20a4.951,4.951,0,0,0-5,5v4"/><line class="a" y1="8" transform="translate(51 26)"/><path class="a" d="M21,21H6L1,26V13H21Z"/><path class="a" d="M63,45H35V37H58l5-5Z"/><line class="b" x2="2" transform="translate(6 17)"/><line class="b" x2="2" transform="translate(10 17)"/><line class="b" x2="2" transform="translate(14 17)"/><line class="a" x2="12" transform="translate(40 41)"/><line class="a" x2="4" transform="translate(54 41)"/><rect class="a" width="4" height="4" transform="translate(19 49)"/><rect class="c" width="4" height="4" transform="translate(27 49)"/><rect class="a" width="4" height="4" transform="translate(35 49)"/><rect class="c" width="4" height="4" transform="translate(43 49)"/><circle class="b" cx="6" cy="6" r="6" transform="translate(27 21)"/><path class="a" d="M32,41H19V30"/><line class="a" y2="8" transform="translate(47 26)"/><path class="a" d="M24,13H47v7"/><line class="a" x2="2" transform="translate(18 45)"/><line class="a" x2="2" transform="translate(22 45)"/><line class="a" x2="2" transform="translate(26 45)"/><line class="a" x2="2" transform="translate(30 45)"/><line class="a" x2="22" transform="translate(42 23)"/><line class="a" x1="10" transform="translate(54 17)"/><line class="a" x1="10" transform="translate(54 13)"/><path class="a" d="M7,38V29a2.006,2.006,0,0,1,2-2H24"/><circle class="a" cx="4" cy="4" r="4" transform="translate(3 41)"/><line class="a" x1="2" transform="translate(42 27)"/><line class="a" x1="2" transform="translate(22 38)"/><line class="a" x1="2" transform="translate(24 17)"/><line class="a" x2="2" transform="translate(4 53)"/><line class="a" x2="2" transform="translate(8 53)"/></svg>