<svg xmlns="http://www.w3.org/2000/svg" viewBox="0 0 64 64"><defs><style>.a,.b,.c,.d,.e{fill:none;stroke-miterlimit:10;stroke-width:2px;}.a,.c{stroke:#495057;}.b,.d{stroke:#1c7ed6;}.c,.d,.e{stroke-linejoin:round;}.e{stroke:#2f9e44;}</style></defs><rect class="a" width="62" height="62" transform="translate(1 1)"/><line class="a" x2="62" transform="translate(1 9)"/><line class="a" x2="2" transform="translate(4 5)"/><line class="a" x2="2" transform="translate(8 5)"/><line class="a" x2="2" transform="translate(12 5)"/><line class="a" y2="8" transform="translate(17 1)"/><line class="a" x2="40" transform="translate(20 5)"/><rect class="a" width="54" height="46" transform="translate(5 13)"/><line class="a" y2="38" transform="translate(17 17)"/><line class="b" x2="5" transform="translate(9 18)"/><line class="a" x2="8" transform="translate(9 22)"/><line class="a" x2="2" transform="translate(12 26)"/><line class="a" x2="2" transform="translate(12 30)"/><line class="a" x2="8" transform="translate(9 34)"/><line class="a" x2="2" transform="translate(12 42)"/><line class="b" x2="2" transform="translate(12 38)"/><line class="a" x2="2" transform="translate(12 46)"/><line class="a" x2="2" transform="translate(12 50)"/><line class="c" x2="34" transform="translate(21 32)"/><line class="c" y1="8" transform="translate(22 24)"/><line class="c" y1="6" transform="translate(26 26)"/><line class="c" y1="4" transform="translate(34 28)"/><line class="c" y1="8" transform="translate(38 24)"/><line class="c" y1="4" transform="translate(42 28)"/><line class="c" y1="8" transform="translate(46 24)"/><line class="c" y1="4" transform="translate(50 28)"/><line class="c" y1="6" transform="translate(54 26)"/><line class="c" y1="10" transform="translate(30 22)"/><rect class="d" width="5" height="5" transform="translate(22 36)"/><rect class="c" width="5" height="5" transform="translate(31 36)"/><rect class="e" width="5" height="5" transform="translate(40 36)"/><rect class="c" width="5" height="5" transform="translate(49 36)"/><line class="e" x2="10" transform="translate(45 18)"/><line class="e" x1="4" transform="translate(39 18)"/><line class="d" x2="7" transform="translate(21 45)"/><line class="d" x2="7" transform="translate(21 49)"/><line class="c" x2="7" transform="translate(30 45)"/><line class="c" x2="7" transform="translate(30 49)"/><line class="e" x2="7" transform="translate(39 45)"/><line class="e" x2="7" transform="translate(39 49)"/><line class="c" x2="7" transform="translate(48 45)"/><line class="c" x2="7" transform="translate(48 49)"/></svg>