<svg xmlns="http://www.w3.org/2000/svg" viewBox="0 0 64 64"><defs><style>.a,.b,.c{fill:none;stroke-miterlimit:10;stroke-width:2px;}.a{stroke:#2f9e44;}.b{stroke:#222829;}.c{stroke:#1c7ed6;}</style></defs><line class="a" y1="21" transform="translate(30 43)"/><line class="a" y1="21" transform="translate(34 43)"/><path class="b" d="M47,41h4A12.035,12.035,0,0,0,63,29c0-5.9-4-11-10-11,0-5-3-9-9-9H43A15.81,15.81,0,0,0,29,1,16.047,16.047,0,0,0,13,17a12,12,0,0,0,0,24h4"/><rect class="b" width="16" height="16" transform="translate(24 27)"/><line class="b" y1="5" transform="translate(26 22)"/><line class="b" y1="5" transform="translate(30 22)"/><line class="b" y1="5" transform="translate(34 22)"/><line class="b" y1="5" transform="translate(38 22)"/><line class="b" x2="5" transform="translate(40 29)"/><line class="b" x2="5" transform="translate(40 33)"/><line class="b" x2="5" transform="translate(40 37)"/><line class="b" x2="5" transform="translate(40 41)"/><line class="b" x2="5" transform="translate(19 29)"/><line class="b" x2="5" transform="translate(19 33)"/><line class="b" x2="5" transform="translate(19 37)"/><line class="b" x2="5" transform="translate(19 41)"/><rect class="c" width="4" height="4" transform="translate(30 33)"/><path class="b" d="M26,43V53H0"/><path class="b" d="M38,43V53H64"/><line class="c" y1="2" transform="translate(26 18)"/><line class="c" y1="2" transform="translate(30 18)"/><line class="c" y1="2" transform="translate(30 14)"/><line class="c" y1="2" transform="translate(34 14)"/><line class="c" y1="2" transform="translate(34 18)"/><line class="c" y1="2" transform="translate(38 18)"/><line class="b" x1="2" transform="translate(15 29)"/><line class="b" x1="2" transform="translate(11 29)"/><line class="b" x1="2" transform="translate(15 33)"/><line class="b" x1="2" transform="translate(11 33)"/><line class="b" x1="2" transform="translate(15 37)"/><line class="b" x1="2" transform="translate(7 29)"/><line class="b" x2="2" transform="translate(47 29)"/><line class="b" x2="2" transform="translate(51 29)"/><line class="b" x2="2" transform="translate(47 33)"/><line class="b" x2="2" transform="translate(51 33)"/><line class="b" x2="2" transform="translate(47 37)"/><line class="b" x2="2" transform="translate(55 29)"/></svg>