<svg xmlns="http://www.w3.org/2000/svg" viewBox="0 0 60 64"><defs><style>.a,.b,.c,.d{fill:none;stroke-miterlimit:10;stroke-width:2px;}.a{stroke:#2f9e44;}.b,.c{stroke:#222829;}.b{stroke-linejoin:round;}.d{stroke:#1c7ed6;}</style></defs><path class="a" d="M31,9h6v5"/><line class="b" x2="3" transform="translate(41 52)"/><line class="b" y1="6" transform="translate(21 1)"/><line class="c" x2="11" transform="translate(0 17)"/><rect class="c" width="4" height="4" transform="translate(27 15)"/><rect class="c" width="4" height="4" transform="translate(27 23)"/><rect class="c" width="4" height="4" transform="translate(19 7)"/><rect class="c" width="4" height="4" transform="translate(19 23)"/><rect class="d" width="4" height="4" transform="translate(11 7)"/><rect class="c" width="4" height="4" transform="translate(11 15)"/><rect class="c" width="4" height="4" transform="translate(11 23)"/><rect class="c" width="4" height="4" transform="translate(27 7)"/><path class="c" d="M29,27v6h4v4H48"/><line class="c" x1="2" transform="translate(46 21)"/><path class="c" d="M31,25h6V17H31"/><line class="c" x2="2" transform="translate(40 9)"/><line class="a" x2="2" transform="translate(40 13)"/><line class="a" x2="2" transform="translate(44 13)"/><line class="a" x2="2" transform="translate(40 17)"/><path class="c" d="M21,27V39h4V64"/><line class="b" y1="6" transform="translate(29 1)"/><path class="c" d="M11,25H5V9h6"/><path class="b" d="M19,64V49L13,37V27"/><line class="c" y2="2" transform="translate(29 36)"/><line class="a" y2="2" transform="translate(25 30)"/><line class="a" y2="2" transform="translate(25 34)"/><line class="c" y2="2" transform="translate(29 40)"/><line class="c" x2="2" transform="translate(32 41)"/><line class="c" x1="7" transform="translate(37 21)"/><rect class="d" width="4" height="4" transform="translate(19 15)"/><path class="c" d="M25,45h4V64"/><path class="b" d="M16,1H32A21,21,0,0,1,53,22l6,13v2H53v9a6.018,6.018,0,0,1-6,6H41V64"/></svg>