<svg xmlns="http://www.w3.org/2000/svg" viewBox="0 0 250 43.002" fill="#495057">
    <path d="M33.587 4.937l4.111 7.148a3.243 3.243 0 0 0 2.828 1.623h4.9a1.64 1.64 0 0 0 1.41-2.457l-.34-.6a1.431 1.431 0 0 1 1.231-2.147h19.35a1.426 1.426 0 0 1 1.231 2.147l-9.663 16.752a1.425 1.425 0 0 1-2.461 0l-3.168-5.5a3.267 3.267 0 0 0-2.828-1.65h-4.243a2.034 2.034 0 0 0-1.754 3.037l10.4 18.041a3.268 3.268 0 0 0 5.656 0l21-36.37a3.265 3.265 0 0 0-2.828-4.9h-42a3.223 3.223 0 0 0-2.828 4.87zM21.28 15.358a3.212 3.212 0 0 1 2.828-1.623h7.043a1.36 1.36 0 0 0 1.178-2.042L26.543 1.638a3.268 3.268 0 0 0-5.656 0L8.319 23.397a3.265 3.265 0 0 0 2.828 4.9h19.824a3.273 3.273 0 0 1 0 6.546H4.051a4.045 4.045 0 1 0 0 8.091h40.69a3.265 3.265 0 0 0 2.828-4.9l-9.348-16.156a3.243 3.243 0 0 0-2.828-1.627H24.108a3.265 3.265 0 0 1-2.828-4.9zm78.841-2.985c0-1.2-1.414-1.466-3.142-1.571-3.718-.262-6.153-1.545-6.206-5.263-.157-7.384 13.145-7.384 13.066 0h-4.168c0-2.278-4.608-2.069-4.739-.052-.1 1.309 1.178 1.571 2.723 1.728 3.4.367 6.729.89 6.729 5.158 0 7.2-13.93 7.305-13.851-.209h4.242c-.026 2.2 5.342 2.226 5.342.209zM122.692.251h1.571v17.176h-4.478V9.781l-3.64 3.823h-.5l-3.61-3.823v7.62h-4.478V.251h1.623l6.7 7.436 6.812-7.436zm15.789 15h-6.756l-.995 2.147h-4.268v-.628l7.7-16.706h1.885l7.724 16.708v.628h-4.268l-1.022-2.149zm-3.378-8.248l-1.911 4.5h3.879zm25.368 9.769v.628h-4.9l-2.933-5.027h-2.267V17.4h-4.373V.276h7.515c6.729.026 7.96 8.117 3.613 11.05zM153.51 4.204c-1.021-.026-2.095 0-3.142 0v4.241h3.142c2.383 0 2.488-4.215 0-4.241zm7.934 0V.302h12.727v3.9h-4.189v13.2h-4.32V4.204zM96.979 42.642h-6.468V25.518h6.468c11.154.052 11.154 17.072 0 17.124zm-2.069-4.006h2.069c5.446 0 5.446-9.138 0-9.138H94.91zm24.461-9.217h-6.337v2.409h5.813v3.9h-5.813v3.013h6.537v3.9h-10.914V25.518h10.683c.031 1.256.031 2.592.031 3.901zm10.369 5.813h.131l3.9-9.714h4.216v.655l-7.253 16.653h-1.863l-7.332-16.653v-.655h4.216zm21.471-5.813h-6.34v2.409h5.813v3.9h-5.813v3.013h6.546v3.9h-10.92V25.518h10.683c.026 1.257.026 2.592.026 3.9zm8.379 9.269h6.206v3.928h-10.6v-17.1h4.4v13.172zm8.17-4.582c0-11.835 17.57-11.835 17.57 0-.032 11.861-17.575 11.861-17.575 0zm13.066 0a4.305 4.305 0 1 0-8.588 0 4.308 4.308 0 1 0 8.583 0zm7.777 8.536V25.518h7.541c8.2.026 8.2 12.752 0 12.752h-3.142v4.373zm7.515-13.223c-1.021-.026-2.121 0-3.142 0v4.9h3.142c2.409 0 2.54-4.87 0-4.9zm20.162 0h-6.337v2.409h5.813v3.9h-5.813v3.013h6.546v3.9h-10.924V25.518h10.683c.026 1.257.026 2.592.026 3.9zm18.434 12.568v.628h-4.9l-2.933-5.027h-2.28v5.027h-4.373V25.491h7.515c6.729.026 7.96 8.117 3.613 11.05l3.352 5.446zm-6.965-12.568c-1.021-.026-2.095 0-3.142 0v4.242h3.142c2.35 0 2.481-4.216-.006-4.242zm17.989 8.091c0-1.2-1.414-1.388-3.142-1.493-3.718-.262-6.153-1.545-6.206-5.263-.157-7.384 13.145-7.384 13.066 0h-4.163c0-2.278-4.608-2.069-4.739-.052-.1 1.309 1.178 1.571 2.723 1.728 3.4.367 6.729.812 6.729 5.08 0 7.2-13.93 7.384-13.851-.157h4.242c0 2.226 5.342 2.173 5.342.157z"/>
</svg>
