<svg xmlns="http://www.w3.org/2000/svg" viewBox="0 0 510.867 510.846">
    <defs>
        <style>
            .a{fill:#5c9eff}.b{fill:#ffce54}.c{fill:#d7e9ff}.d{fill:#fff}.e{fill:#94c1ff}.f{opacity:.7}.g{fill:#116fff}
        </style>
    </defs>
    <path class="a" d="M483.234 383.431h-31.98a15.992 15.992 0 0 0 0-31.984H419.27a15.993 15.993 0 0 0 0-31.985h-47.978a15.992 15.992 0 1 0 0-31.984h87.958a15.994 15.994 0 0 0 0-31.988h-39.98a15.992 15.992 0 0 0 0-31.984h-15.992a15.993 15.993 0 0 0 0-31.985h79.956a15.993 15.993 0 0 0 0-31.985h-31.979a15.992 15.992 0 0 0 0-31.984h-31.984a15.992 15.992 0 1 0 0-31.984h-23.988a15.992 15.992 0 0 0 0-31.985H155.392a15.992 15.992 0 0 0 0 31.985H99.418a15.992 15.992 0 0 0 0 31.984H83.426a15.992 15.992 0 0 0 0 31.984h47.977a15.993 15.993 0 0 0 0 31.985H43.445a15.993 15.993 0 0 0 0 31.985h39.981a15.992 15.992 0 0 0 0 31.984H43.445a15.994 15.994 0 0 0 0 31.988H27.453a15.992 15.992 0 1 0 0 31.984h39.981a15.993 15.993 0 0 0 0 31.985H51.442a15.992 15.992 0 1 0 0 31.984h79.961a15.992 15.992 0 0 0 0 31.984H99.418a15.993 15.993 0 0 0 0 31.985h271.873a15.993 15.993 0 1 0 0-31.985h111.943a15.992 15.992 0 0 0 0-31.984z"/>
    <path class="b" d="M403.269 255.492a147.929 147.929 0 1 1-147.935-147.933 147.934 147.934 0 0 1 147.935 147.933z"/>
    <path class="c" d="M403.269 255.492a147.929 147.929 0 1 1-147.935-147.933 147.934 147.934 0 0 1 147.935 147.933z"/>
    <path class="d" d="M139.395 255.492a147.925 147.925 0 0 1 131.939-147.035 149.428 149.428 0 0 0-15.992-.9 147.933 147.933 0 0 0-.008 295.866 150.475 150.475 0 0 0 15.992-.9 147.927 147.927 0 0 1-131.931-147.031z"/>
    <path class="e" d="M371.284 255.485a147.925 147.925 0 0 1-131.937 147.038 150.284 150.284 0 0 0 15.992.9 147.931 147.931 0 0 0 0-295.862 149.5 149.5 0 0 0-15.992.9 147.925 147.925 0 0 1 131.937 147.024z"/>
    <path class="c" d="M378.64 326.583c-23.747-26.12-49.984-53.825-78.033-82.214-5.544-5.767-11.2-11.42-16.961-17.187-34.374-34.378-68.014-66.433-99.339-94.931C90.392 47.046 16.834-6.503 5.073 5.257c-10.967 10.966 36.408 77.459 111.95 162.387l11.588 11.588a140.713 140.713 0 0 1 13.517-18.827l-.457-.34-10.229-10.229c-28.217-32.855-59.936-62.989-56.371-66.554 7.063-7.067 102.283 68.811 193.028 159.45 5.653 5.654 11.252 11.362 16.906 17.016 83.9 85.381 157.189 169.4 150.568 176.017-3.562 3.562-41.387-27.932-73.785-55.691l-11.307-11.315a140.53 140.53 0 0 1-18.827 13.518l11.588 11.588c84.928 75.542 151.364 122.863 162.328 111.9 11.769-11.763-41.721-85.266-126.93-179.182z"/>
    <g class="f">
        <path class="d" d="M178.681 137.904c31.321 28.494 64.961 60.553 99.335 94.931 5.763 5.767 11.417 11.42 16.961 17.188 28.049 28.389 54.286 56.094 78.032 82.214 78.268 86.264 129.719 155.254 128.485 175.057a6.116 6.116 0 0 0 4.1-1.53c11.768-11.761-41.722-85.264-126.931-179.18-23.747-26.12-49.984-53.825-78.033-82.214-5.544-5.767-11.2-11.42-16.961-17.187-34.366-34.378-68.014-66.437-99.335-94.931C90.415 47.046 16.857-6.503 5.097 5.257A6.06 6.06 0 0 0 3.57 9.364c19.803-1.229 88.848 50.277 175.111 128.54z"/>
    </g>
    <path class="c" d="M483.613 51.613a23.988 23.988 0 1 1-23.988-23.99 23.992 23.992 0 0 1 23.988 23.99z"/>
    <path class="d" d="M443.634 51.613a23.946 23.946 0 0 1 19.988-23.59 23.992 23.992 0 1 0 0 47.173 23.95 23.95 0 0 1-19.988-23.583z"/>
    <path class="e" d="M475.617 51.613a23.947 23.947 0 0 1-19.99 23.587 23.992 23.992 0 1 0 0-47.173 23.951 23.951 0 0 1 19.99 23.586z"/>
    <path class="g" d="M491.851 231.531a4.029 4.029 0 0 1-4.037-4 3.961 3.961 0 0 1 3.951-4h.086a4 4 0 0 1 0 8z"/>
    <path class="g" d="M203.985 47.623a4.032 4.032 0 0 1-4.037-4 3.963 3.963 0 0 1 3.959-4h.078a4 4 0 1 1 0 8z"/>
    <path class="g" d="M4.081 143.573a4.032 4.032 0 0 1-4.037-4 3.962 3.962 0 0 1 3.959-4h.078a4 4 0 0 1 0 8z"/>
    <path class="g" d="M315.934 39.623a4.03 4.03 0 0 1-4.037-4 3.961 3.961 0 0 1 3.951-4h.086a4 4 0 0 1 0 8z"/>
    <path class="g" d="M427.882 159.566a4.028 4.028 0 0 1-4.037-4 3.96 3.96 0 0 1 3.951-4h.086a4 4 0 0 1 0 8z"/>
    <path class="g" d="M323.934 503.404a4.03 4.03 0 0 1-4.037-4 3.961 3.961 0 0 1 3.951-4h.086a4 4 0 0 1 0 8z"/>
    <path class="g" d="M195.989 471.423a4.032 4.032 0 0 1-4.037-4 3.963 3.963 0 0 1 3.959-4h.078a4 4 0 1 1 0 8z"/>
    <path class="g" d="M12.078 351.478a4.032 4.032 0 0 1-4.037-4 3.962 3.962 0 0 1 3.959-4h.078a4 4 0 1 1 0 8z"/>
    <path class="g" d="M76.047 399.454a4.032 4.032 0 0 1-4.037-4 3.963 3.963 0 0 1 3.959-4h.078a4 4 0 1 1 0 8z"/>
    <path class="g" d="M75.813 503.397a4 4 0 0 1-4-4v-31.974a4 4 0 0 1 8 0V499.4a4 4 0 0 1-4 3.997z"/>
    <path class="g" d="M83.805 487.404H67.816a4 4 0 1 1 0-8h15.989a4 4 0 1 1 0 8z"/>
    <path class="g" d="M35.828 271.516a4 4 0 0 1-4-4V235.53a4 4 0 0 1 8 0v31.993a4 4 0 0 1-4 3.993z"/>
    <path class="g" d="M43.824 255.523l-15.99-.011a4 4 0 0 1 0-8l15.993.008a4 4 0 1 1 0 8z"/>
    <path class="g" d="M467.621 343.482a4 4 0 0 1-4-4v-31.983a4 4 0 1 1 8 0v31.985a4 4 0 0 1-4 3.998z"/>
    <path class="g" d="M475.617 327.488h-15.993a4 4 0 1 1 0-8h15.992a4 4 0 0 1 0 8z"/>
    <path class="g" d="M459.624 79.592a27.979 27.979 0 1 1 27.986-27.987 28.016 28.016 0 0 1-27.986 27.987zm0-47.961a19.983 19.983 0 1 0 19.99 19.974 20.007 20.007 0 0 0-19.99-19.974z"/>
    <path class="g" d="M459.624 87.589a6.646 6.646 0 0 1-4.771-2.12c-5.333-5.322-7.223-21.564-7.223-33.855 0-6.005.578-35.967 11.994-35.967a4 4 0 0 1 .727 7.93c-1.711 1.917-4.725 11.752-4.725 28.037s3.014 26.125 4.717 28.045a4 4 0 0 1-.711 7.93z"/>
    <path class="g" d="M15.693 19.613a4.032 4.032 0 0 1-4.037-4 3.963 3.963 0 0 1 3.959-4h.078a4 4 0 0 1 0 8z"/>
    <path class="g" d="M31.685 35.606a4.032 4.032 0 0 1-4.037-4 3.962 3.962 0 0 1 3.959-4h.078a4 4 0 1 1 0 8z"/>
    <path class="g" d="M47.678 51.598a4.032 4.032 0 0 1-4.037-4 3.964 3.964 0 0 1 3.959-4h.078a4 4 0 0 1 0 8z"/>
    <path class="g" d="M79.663 51.598a4.032 4.032 0 0 1-4.037-4 3.963 3.963 0 0 1 3.959-4h.078a4 4 0 0 1 0 8z"/>
    <path class="g" d="M63.67 67.59a4.032 4.032 0 0 1-4.037-4 3.962 3.962 0 0 1 3.959-4h.078a4 4 0 1 1 0 8z"/>
    <path class="g" d="M47.678 83.583a4.032 4.032 0 0 1-4.037-4 3.964 3.964 0 0 1 3.959-4h.078a4 4 0 0 1 0 8z"/>
    <path class="g" d="M95.655 67.59a4.032 4.032 0 0 1-4.037-4 3.962 3.962 0 0 1 3.959-4h.078a4 4 0 0 1 0 8z"/>
    <path class="g" d="M79.663 83.583a4.032 4.032 0 0 1-4.037-4 3.963 3.963 0 0 1 3.959-4h.078a4 4 0 0 1 0 8z"/>
    <path class="g" d="M63.67 99.575a4.032 4.032 0 0 1-4.037-4 3.962 3.962 0 0 1 3.959-4h.078a4 4 0 1 1 0 8z"/>
    <path class="g" d="M111.647 83.583a4.032 4.032 0 0 1-4.037-4 3.963 3.963 0 0 1 3.959-4h.078a4 4 0 0 1 0 8z"/>
    <path class="g" d="M79.663 115.568a4.032 4.032 0 0 1-4.037-4 3.962 3.962 0 0 1 3.959-4h.078a4 4 0 1 1 0 8z"/>
    <path class="g" d="M127.639 99.575a4.032 4.032 0 0 1-4.037-4 3.962 3.962 0 0 1 3.959-4h.078a4 4 0 0 1 0 8z"/>
    <path class="g" d="M95.655 131.56a4.032 4.032 0 0 1-4.037-4 3.962 3.962 0 0 1 3.959-4h.078a4 4 0 0 1 0 8z"/>
    <path class="g" d="M143.634 115.568a4.032 4.032 0 0 1-4.037-4 3.963 3.963 0 0 1 3.959-4h.078a4 4 0 0 1 0 8z"/>
    <path class="g" d="M111.647 147.552a4.032 4.032 0 0 1-4.037-4 3.962 3.962 0 0 1 3.959-4h.078a4 4 0 1 1 0 8z"/>
    <path class="g" d="M159.624 131.56a4.032 4.032 0 0 1-4.037-4 3.962 3.962 0 0 1 3.959-4h.078a4 4 0 0 1 0 8z"/>
    <path class="g" d="M175.616 147.552a4.032 4.032 0 0 1-4.037-4 3.963 3.963 0 0 1 3.959-4h.078a4 4 0 1 1 0 8z"/>
    <path class="g" d="M191.609 163.544a4.032 4.032 0 0 1-4.037-4 3.962 3.962 0 0 1 3.959-4h.078a4 4 0 0 1 0 8z"/>
    <path class="g" d="M207.601 179.537a4.032 4.032 0 0 1-4.037-4 3.963 3.963 0 0 1 3.959-4h.078a4 4 0 0 1 0 8z"/>
    <path class="g" d="M223.593 195.529a4.032 4.032 0 0 1-4.037-4 3.962 3.962 0 0 1 3.959-4h.078a4 4 0 0 1 0 8z"/>
    <path class="g" d="M239.585 211.523a4.032 4.032 0 0 1-4.037-4 3.963 3.963 0 0 1 3.959-4h.078a4 4 0 0 1 0 8z"/>
    <path class="g" d="M255.578 227.514a4.032 4.032 0 0 1-4.037-4 3.962 3.962 0 0 1 3.959-4h.078a4 4 0 0 1 0 8z"/>
    <path class="g" d="M271.574 243.506a4.03 4.03 0 0 1-4.037-4 3.961 3.961 0 0 1 3.951-4h.086a4 4 0 0 1 0 8z"/>
    <path class="g" d="M287.566 259.498a4.03 4.03 0 0 1-4.037-4 3.961 3.961 0 0 1 3.951-4h.086a4 4 0 0 1 0 8z"/>
    <path class="g" d="M303.558 275.49a4.03 4.03 0 0 1-4.037-4 3.962 3.962 0 0 1 3.952-4h.085a4 4 0 1 1 0 8z"/>
    <path class="g" d="M319.551 291.483a4.029 4.029 0 0 1-4.037-4 3.961 3.961 0 0 1 3.951-4h.086a4 4 0 0 1 0 8z"/>
    <path class="g" d="M335.543 307.475a4.029 4.029 0 0 1-4.037-4 3.961 3.961 0 0 1 3.951-4h.086a4 4 0 0 1 0 8z"/>
    <path class="g" d="M351.534 323.467a4.028 4.028 0 0 1-4.037-4 3.961 3.961 0 0 1 3.951-4h.086a4 4 0 0 1 0 8z"/>
    <path class="g" d="M367.528 339.46a4.029 4.029 0 0 1-4.037-4 3.962 3.962 0 0 1 3.951-4h.086a4 4 0 0 1 0 8z"/>
    <path class="g" d="M383.52 355.452a4.029 4.029 0 0 1-4.037-4 3.961 3.961 0 0 1 3.951-4h.086a4 4 0 0 1 0 8z"/>
    <path class="g" d="M399.512 371.444a4.029 4.029 0 0 1-4.037-4 3.961 3.961 0 0 1 3.952-4h.085a4 4 0 1 1 0 8z"/>
    <path class="g" d="M367.528 403.429a4.029 4.029 0 0 1-4.037-4 3.961 3.961 0 0 1 3.951-4h.086a4 4 0 1 1 0 8z"/>
    <path class="g" d="M415.505 387.437a4.028 4.028 0 0 1-4.037-4 3.96 3.96 0 0 1 3.951-4h.086a4 4 0 0 1 0 8z"/>
    <path class="g" d="M383.52 419.423a4.029 4.029 0 0 1-4.037-4 3.961 3.961 0 0 1 3.951-4h.086a4 4 0 0 1 0 8z"/>
    <path class="g" d="M431.497 403.429a4.029 4.029 0 0 1-4.037-4 3.961 3.961 0 0 1 3.951-4h.086a4 4 0 1 1 0 8z"/>
    <path class="g" d="M399.512 435.414a4.03 4.03 0 0 1-4.037-4 3.96 3.96 0 0 1 3.952-4h.085a4 4 0 1 1 0 8z"/>
    <path class="g" d="M447.49 419.423a4.029 4.029 0 0 1-4.037-4 3.961 3.961 0 0 1 3.951-4h.086a4 4 0 1 1 0 8z"/>
    <path class="g" d="M415.505 451.406a4.029 4.029 0 0 1-4.037-4 3.96 3.96 0 0 1 3.951-4h.086a4 4 0 0 1 0 8z"/>
    <path class="g" d="M463.482 435.414a4.03 4.03 0 0 1-4.037-4 3.96 3.96 0 0 1 3.951-4h.086a4 4 0 0 1 0 8z"/>
    <path class="g" d="M447.49 451.406a4.03 4.03 0 0 1-4.037-4 3.961 3.961 0 0 1 3.951-4h.086a4 4 0 0 1 0 8z"/>
    <path class="g" d="M431.497 467.399a4.03 4.03 0 0 1-4.037-4 3.961 3.961 0 0 1 3.951-4h.086a4 4 0 1 1 0 8z"/>
    <path class="g" d="M463.482 467.399a4.03 4.03 0 0 1-4.037-4 3.961 3.961 0 0 1 3.951-4h.086a4 4 0 1 1 0 8z"/>
    <path class="g" d="M479.474 483.391a4.029 4.029 0 0 1-4.037-4 3.961 3.961 0 0 1 3.951-4h.086a4 4 0 0 1 0 8z"/>
    <path class="g" d="M495.466 499.383a4.029 4.029 0 0 1-4.037-4 3.961 3.961 0 0 1 3.951-4h.086a4 4 0 0 1 0 8z"/>
    <path class="g" d="M255.334 407.423c-83.772 0-151.927-68.154-151.927-151.927a151.155 151.155 0 0 1 42.992-105.883 4 4 0 1 1 5.731 5.575A143.192 143.192 0 0 0 111.407 255.5c0 79.368 64.567 143.931 143.931 143.931a143.166 143.166 0 0 0 100.319-40.723 4 4 0 0 1 5.575 5.731 151.125 151.125 0 0 1-105.898 42.984z"/>
    <path class="g" d="M390.447 319.844a3.989 3.989 0 0 1-3.647-5.63 142.849 142.849 0 0 0 12.471-58.714c0-79.364-64.571-143.931-143.932-143.931a142.943 142.943 0 0 0-58.714 12.482 4 4 0 0 1-3.263-7.3 150.894 150.894 0 0 1 61.978-13.177c83.772 0 151.928 68.154 151.928 151.927a150.691 150.691 0 0 1-13.174 61.979 3.988 3.988 0 0 1-3.647 2.364z"/>
    <path class="g" d="M501.734 510.846c-15.1 0-55.364-19.928-161.173-114.039a4 4 0 1 1 5.31-5.973c103.739 92.26 151.31 117.717 156.908 112.094 10.636-10.643-68.646-119.622-221.939-272.916C127.557 76.742 18.598-2.595 7.912 8.072c-5.606 5.614 19.869 53.173 112.106 156.893a4 4 0 1 1-5.974 5.31C-.475 41.505-5.149 9.837 2.254 2.423c22.849-22.774 182.5 120.208 284.242 221.94 101.725 101.728 244.78 261.371 221.938 284.22-1.317 1.326-3.417 2.263-6.7 2.263z"/>
    <path class="g" d="M435.113 440.263c-5.475 0-20.061-9.245-75.925-57.168a4 4 0 1 1 5.2-6.068c40.379 34.632 58.026 47.883 65.655 52.615-12.119-21.739-78.915-98.2-164.771-184.06C181.801 162.123 104.97 100.875 82.196 88.923c4.845 6.146 13.99 16.043 22.337 25.078 9.269 10.034 19.776 21.4 29.9 33.187a4 4 0 0 1-6.068 5.209c-10.031-11.674-20.482-22.984-29.705-32.968C73.25 91.923 67.434 85.25 72.274 80.423c13.048-13.02 134.38 95.244 198.651 159.507 44.275 44.283 88.23 90.964 120.59 128.07 54.724 62.76 50.21 67.281 46.907 70.576a4.3 4.3 0 0 1-3.309 1.687z"/>
</svg>
