<svg xmlns="http://www.w3.org/2000/svg" viewBox="0 0 511.788 463.777">
    <defs>
        <style>
            .a{fill:#5c9eff}.b{fill:#d7e9ff}.c{fill:#fff}.d{fill:#94c1ff}.e{fill:#ccd1d9}.f{fill:#116fff}
        </style>
    </defs>
    <g transform="translate(-.106 -24.111)">
        <path class="a" d="M483.674 375.942H451.69a15.992 15.992 0 0 0 0-31.984h-31.984a15.993 15.993 0 0 0 0-31.985h-47.978a15.992 15.992 0 1 0 0-31.984h87.958a15.992 15.992 0 0 0 0-31.984h-39.98a15.992 15.992 0 0 0 0-31.984h-15.992a15.993 15.993 0 0 0 0-31.985h79.961a15.993 15.993 0 0 0 0-31.985h-31.984a15.992 15.992 0 1 0 0-31.984h-31.984a15.992 15.992 0 1 0 0-31.984h-23.988a15.993 15.993 0 0 0 0-31.985H155.832a15.992 15.992 0 1 0 0 31.983H99.858a15.992 15.992 0 0 0 0 31.984H83.866a15.992 15.992 0 0 0 0 31.984h47.977a15.993 15.993 0 1 0 0 31.985H43.886a15.993 15.993 0 1 0 0 31.985h39.98a15.992 15.992 0 0 0 0 31.984h-39.98a15.992 15.992 0 1 0 0 31.984H27.893a15.992 15.992 0 0 0 0 31.984h39.981a15.993 15.993 0 0 0 0 31.985H51.882a15.992 15.992 0 1 0 0 31.984h79.961a15.992 15.992 0 1 0 0 31.984H99.858a15.993 15.993 0 0 0 0 31.985h271.869a15.993 15.993 0 1 0 0-31.985h111.946a15.991 15.991 0 1 0 0-31.982z"/>
        <circle class="b" cx="31.984" cy="31.984" r="31.984" transform="translate(403.713 52.099)"/>
        <path class="c" d="M411.709 84.083A31.882 31.882 0 0 1 439.7 52.5a31.365 31.365 0 0 0-4-.4 31.985 31.985 0 0 0 0 63.969 31.365 31.365 0 0 0 4-.4 31.881 31.881 0 0 1-27.991-31.586z"/>
        <path class="d" d="M459.686 84.083a31.881 31.881 0 0 1-27.986 31.582 31.328 31.328 0 0 0 4 .4 31.985 31.985 0 0 0 0-63.969 31.328 31.328 0 0 0-4 .4 31.882 31.882 0 0 1 27.986 31.587z"/>
        <path class="e" d="M403.713 248a147.929 147.929 0 1 1-147.929-147.925A147.934 147.934 0 0 1 403.713 248z"/>
        <path class="b" d="M403.713 248a147.929 147.929 0 1 1-147.929-147.925A147.934 147.934 0 0 1 403.713 248z"/>
        <path class="c" d="M139.839 248a147.92 147.92 0 0 1 131.936-147.027 147.929 147.929 0 1 0 0 294.064A147.918 147.918 0 0 1 139.839 248z"/>
        <path class="d" d="M371.728 248a147.918 147.918 0 0 1-131.937 147.035 147.929 147.929 0 1 0 0-294.064A147.927 147.927 0 0 1 371.728 248z"/>
        <circle class="d" cx="11.994" cy="11.994" r="11.994" transform="translate(235.793 124.064)"/>
        <path class="d" d="M291.767 164.044a8 8 0 1 0 8 8 8 8 0 0 0-8-8z"/>
        <path class="d" d="M227.8 196.029a8 8 0 1 0 8 8 8 8 0 0 0-8-8z"/>
        <path class="d" d="M275.773 236.01A15.992 15.992 0 1 0 291.766 252a15.993 15.993 0 0 0-15.993-15.99z"/>
        <path class="d" d="M335.745 315.971a11.994 11.994 0 1 0 11.994 11.994 11.992 11.992 0 0 0-11.994-11.994z"/>
        <path class="d" d="M347.739 267.994a8 8 0 1 0 8 8 7.991 7.991 0 0 0-8-8z"/>
        <path class="d" d="M339.743 220.018a8 8 0 1 0 8-8 7.992 7.992 0 0 0-8 8z"/>
        <path class="d" d="M167.826 188.033a11.994 11.994 0 1 0 11.994 11.994 11.993 11.993 0 0 0-11.994-11.994z"/>
        <path class="d" d="M339.743 172.04a8 8 0 1 0-8-8 7.991 7.991 0 0 0 8 8z"/>
        <path class="d" d="M215.8 283.986a11.994 11.994 0 1 0 12 11.994 11.992 11.992 0 0 0-12-11.994z"/>
        <path class="d" d="M187.816 339.96a8 8 0 1 0 8 8 7.991 7.991 0 0 0-8-8z"/>
        <path class="d" d="M259.781 347.956a8 8 0 1 0 8 8 7.992 7.992 0 0 0-8-8z"/>
        <path class="d" d="M139.839 252a8 8 0 1 0 8 8 7.992 7.992 0 0 0-8-8z"/>
        <path class="b" d="M95.86 419.921a8 8 0 1 1-8-8 7.994 7.994 0 0 1 8 8z"/>
        <path class="f" d="M371.962 48.1a4.027 4.027 0 0 1-4.029-4 3.961 3.961 0 0 1 3.951-4h.078a4 4 0 0 1 0 8z"/>
        <path class="f" d="M236.031 32.107a4.032 4.032 0 0 1-4.037-4 3.962 3.962 0 0 1 3.959-4h.078a4 4 0 1 1 0 8z"/>
        <path class="f" d="M52.12 128.062a4.032 4.032 0 0 1-4.038-4 3.963 3.963 0 0 1 3.959-4h.078a4 4 0 0 1 0 8z"/>
        <path class="f" d="M4.143 184.035a4.032 4.032 0 0 1-4.037-4 3.962 3.962 0 0 1 3.959-4h.078a4 4 0 0 1 0 8z"/>
        <path class="f" d="M100.1 367.946a4.032 4.032 0 0 1-4.037-4 3.962 3.962 0 0 1 3.959-4h.078a4 4 0 1 1 0 8z"/>
        <path class="f" d="M148.074 64.092a4.032 4.032 0 0 1-4.037-4 3.962 3.962 0 0 1 3.959-4h.078a4 4 0 0 1 0 8z"/>
        <path class="f" d="M307.993 64.092a4.028 4.028 0 0 1-4.029-4 3.961 3.961 0 0 1 3.951-4h.078a4 4 0 0 1 0 8z"/>
        <path class="f" d="M36.127 335.962a4.032 4.032 0 0 1-4.037-4 3.964 3.964 0 0 1 3.959-4h.078a4 4 0 0 1 0 8z"/>
        <path class="f" d="M220.039 431.916a4.032 4.032 0 0 1-4.037-4 3.962 3.962 0 0 1 3.959-4h.078a4 4 0 1 1 0 8z"/>
        <path class="f" d="M188.055 487.889a4.032 4.032 0 0 1-4.037-4 3.962 3.962 0 0 1 3.959-4h.078a4 4 0 1 1 0 8z"/>
        <path class="f" d="M411.943 471.9a4.027 4.027 0 0 1-4.029-4 3.961 3.961 0 0 1 3.951-4h.078a4 4 0 1 1 0 8z"/>
        <path class="f" d="M403.947 399.931a4.027 4.027 0 0 1-4.029-4 3.96 3.96 0 0 1 3.951-4h.078a4 4 0 0 1 0 8z"/>
        <path class="f" d="M323.985 463.9a4.028 4.028 0 0 1-4.029-4 3.961 3.961 0 0 1 3.951-4h.078a4 4 0 1 1 0 8z"/>
        <path class="f" d="M435.932 335.962a4.027 4.027 0 0 1-4.029-4 3.962 3.962 0 0 1 3.951-4h.078a4 4 0 0 1 0 8z"/>
        <path class="f" d="M491.9 271.992a4.027 4.027 0 0 1-4.029-4 3.961 3.961 0 0 1 3.951-4h.078a4 4 0 0 1 0 8z"/>
        <path class="f" d="M467.916 200.027a4.027 4.027 0 0 1-4.029-4 3.961 3.961 0 0 1 3.951-4h.078a4 4 0 0 1 0 8z"/>
        <path class="f" d="M507.9 144.054a4.028 4.028 0 0 1-4.029-4 3.961 3.961 0 0 1 3.951-4h.078a4 4 0 0 1 0 8z"/>
        <path class="f" d="M87.864 431.916a11.994 11.994 0 1 1 11.994-11.995 12.008 12.008 0 0 1-11.994 11.995zm0-15.993a4 4 0 1 0 4 4 4 4 0 0 0-4-4z"/>
        <path class="f" d="M151.837 463.9a4.789 4.789 0 0 1-.812-.078c-39.7-8.2-60.572-33.984-61.443-35.077a4 4 0 0 1 6.259-4.981c.195.249 20.061 24.644 56.8 32.219a4 4 0 0 1-.8 7.917z"/>
        <path class="f" d="M252.023 319.969a4.031 4.031 0 0 1-4.037-4 3.963 3.963 0 0 1 3.959-4h.078a4 4 0 1 1 0 8z"/>
        <path class="f" d="M172.062 319.969a4.031 4.031 0 0 1-4.037-4 3.964 3.964 0 0 1 3.959-4h.078a4 4 0 1 1 0 8z"/>
        <path class="f" d="M172.062 279.988a4.032 4.032 0 0 1-4.037-4 3.963 3.963 0 0 1 3.959-4h.078a4 4 0 1 1 0 8z"/>
        <path class="f" d="M220.039 256a4.032 4.032 0 0 1-4.039-4 3.962 3.962 0 0 1 3.959-4h.078a4 4 0 0 1 0 8z"/>
        <path class="f" d="M228.035 359.95a4.032 4.032 0 0 1-4.037-4 3.962 3.962 0 0 1 3.959-4h.078a4 4 0 1 1 0 8z"/>
        <path class="f" d="M300 351.954a4.028 4.028 0 0 1-4.03-4 3.962 3.962 0 0 1 3.952-4H300a4 4 0 0 1 0 8z"/>
        <path class="f" d="M315.989 303.977a4.027 4.027 0 0 1-4.029-4 3.961 3.961 0 0 1 3.951-4h.078a4 4 0 1 1 0 8z"/>
        <path class="f" d="M284 295.98a4.028 4.028 0 0 1-4.029-4 3.962 3.962 0 0 1 3.951-4H284a4 4 0 0 1 0 8z"/>
        <path class="f" d="M315.989 256a4.027 4.027 0 0 1-4.029-4 3.961 3.961 0 0 1 3.951-4h.078a4 4 0 0 1 0 8z"/>
        <path class="f" d="M307.993 216.02a4.028 4.028 0 0 1-4.029-4 3.961 3.961 0 0 1 3.951-4h.078a4 4 0 0 1 0 8z"/>
        <path class="f" d="M204.047 128.062a4.032 4.032 0 0 1-4.037-4 3.962 3.962 0 0 1 3.959-4h.078a4 4 0 1 1 0 8z"/>
        <path class="f" d="M212.043 168.042a4.032 4.032 0 0 1-4.037-4 3.963 3.963 0 0 1 3.959-4h.078a4 4 0 0 1 0 8z"/>
        <path class="f" d="M188.055 240.008a4.032 4.032 0 0 1-4.037-4 3.962 3.962 0 0 1 3.959-4h.078a4 4 0 0 1 0 8z"/>
        <path class="f" d="M140.077 232.012a4.032 4.032 0 0 1-4.037-4 3.963 3.963 0 0 1 3.959-4h.078a4 4 0 0 1 0 8z"/>
        <path class="f" d="M164.066 168.042a4.032 4.032 0 0 1-4.037-4 3.964 3.964 0 0 1 3.959-4h.078a4 4 0 1 1 0 8z"/>
        <path class="f" d="M260.02 216.02a4.033 4.033 0 0 1-4.037-4 3.963 3.963 0 0 1 3.959-4h.078a4 4 0 0 1 0 8z"/>
        <path class="f" d="M363.966 192.031a4.027 4.027 0 0 1-4.029-4 3.961 3.961 0 0 1 3.951-4h.078a4 4 0 0 1 0 8z"/>
        <path class="f" d="M300 144.054a4.028 4.028 0 0 1-4.03-4 3.962 3.962 0 0 1 3.952-4H300a4 4 0 0 1 0 8z"/>
        <path class="f" d="M379.958 248a4.027 4.027 0 0 1-4.029-4 3.961 3.961 0 0 1 3.951-4h.078a4 4 0 0 1 0 8z"/>
        <path class="f" d="M363.966 311.973a4.027 4.027 0 0 1-4.029-4 3.961 3.961 0 0 1 3.951-4h.078a4 4 0 0 1 0 8z"/>
        <path class="f" d="M260.02 383.938a4.032 4.032 0 0 1-4.037-4 3.963 3.963 0 0 1 3.959-4h.078a4 4 0 0 1 0 8z"/>
        <path class="f" d="M255.784 399.931c-83.772 0-151.927-68.154-151.927-151.927S172.011 96.077 255.784 96.077 407.711 164.231 407.711 248s-68.155 151.931-151.927 151.931zm0-295.858c-79.364 0-143.931 64.566-143.931 143.931s64.567 143.931 143.931 143.931S399.715 327.373 399.715 248s-64.564-143.927-143.931-143.927z"/>
        <path class="f" d="M247.787 152.05a15.992 15.992 0 1 1 15.992-15.992 16.008 16.008 0 0 1-15.992 15.992zm0-23.988a8 8 0 1 0 8 8 8.006 8.006 0 0 0-8-8z"/>
        <path class="f" d="M291.767 184.035a11.994 11.994 0 1 1 11.994-11.995 12.008 12.008 0 0 1-11.994 11.995zm0-15.993a4 4 0 1 0 4 4 4 4 0 0 0-4-4z"/>
        <path class="f" d="M227.8 216.02a11.994 11.994 0 1 1 11.994-11.995A12.008 12.008 0 0 1 227.8 216.02zm0-15.993a4 4 0 1 0 4 4 4 4 0 0 0-4-4z"/>
        <path class="f" d="M275.773 271.992A19.99 19.99 0 1 1 295.764 252a20.012 20.012 0 0 1-19.991 19.992zm0-31.984A11.994 11.994 0 1 0 287.768 252a12.008 12.008 0 0 0-11.995-11.992z"/>
        <path class="f" d="M335.745 343.958a15.993 15.993 0 1 1 15.992-15.993 16 16 0 0 1-15.992 15.993zm0-23.989a8 8 0 1 0 8 8 8.012 8.012 0 0 0-8-8z"/>
        <path class="f" d="M347.739 287.984a11.994 11.994 0 1 1 11.994-11.994 12.007 12.007 0 0 1-11.994 11.994zm0-15.992a4 4 0 1 0 4 4 4.006 4.006 0 0 0-4-4z"/>
        <path class="f" d="M347.739 232.012a11.994 11.994 0 1 1 11.994-11.994 12.007 12.007 0 0 1-11.994 11.994zm0-15.992a4 4 0 1 0 4 4 4 4 0 0 0-4-4z"/>
        <path class="f" d="M167.826 216.02a15.993 15.993 0 1 1 15.992-15.993 16.009 16.009 0 0 1-15.992 15.993zm0-23.989a8 8 0 1 0 8 8 8.007 8.007 0 0 0-8-8z"/>
        <path class="f" d="M339.743 176.039a11.994 11.994 0 1 1 11.994-11.995 12.007 12.007 0 0 1-11.994 11.995zm0-15.993a4 4 0 1 0 4 4 4 4 0 0 0-4-4z"/>
        <path class="f" d="M215.8 311.973a15.992 15.992 0 1 1 15.992-15.992 16.005 16.005 0 0 1-15.992 15.992zm0-23.989a8 8 0 1 0 8 8 8.009 8.009 0 0 0-8-8z"/>
        <path class="f" d="M187.816 359.95a11.994 11.994 0 1 1 11.994-11.994 12.007 12.007 0 0 1-11.994 11.994zm0-15.992a4 4 0 1 0 4 4 4 4 0 0 0-4-4z"/>
        <path class="f" d="M259.781 367.946a11.994 11.994 0 1 1 11.994-11.994 12.008 12.008 0 0 1-11.994 11.994zm0-15.992a4 4 0 1 0 4 4 4 4 0 0 0-4-4z"/>
        <path class="f" d="M139.839 271.992A11.994 11.994 0 1 1 151.833 260a12.008 12.008 0 0 1-11.994 11.992zm0-15.992a4 4 0 1 0 4 4 4 4 0 0 0-4-4z"/>
        <path class="f" d="M459.686 439.912a4 4 0 0 1-4-4v-31.983a4 4 0 1 1 8 0v31.985a4 4 0 0 1-4 3.998z"/>
        <path class="f" d="M467.682 423.92H451.69a4 4 0 0 1 0-8h15.992a4 4 0 0 1 0 8z"/>
        <path class="f" d="M43.886 279.988a4 4 0 0 1-4-4v-31.982a4 4 0 0 1 8 0v31.984a4 4 0 0 1-4 3.998z"/>
        <path class="f" d="M51.882 264H35.889a4 4 0 0 1 0-8h15.993a4 4 0 1 1 0 8z"/>
        <path class="f" d="M435.7 120.065a35.982 35.982 0 1 1 35.982-35.982 36.022 36.022 0 0 1-35.982 35.982zm0-63.969a27.986 27.986 0 1 0 27.986 27.987A28.02 28.02 0 0 0 435.7 56.1z"/>
        <path class="f" d="M420.782 83.649a42.268 42.268 0 0 1-17.9-4.01 4 4 0 0 1 3.662-7.111c.133.059 13.923 6.927 27.315 0 17.116-8.843 33.929-.371 34.647 0a4 4 0 0 1-3.662 7.11c-.133-.062-13.924-6.919-27.315 0a36.173 36.173 0 0 1-16.747 4.011z"/>
        <path class="f" d="M420.782 99.642a42.268 42.268 0 0 1-17.9-4.01 4 4 0 0 1 3.662-7.11c.133.066 13.923 6.922 27.315 0 17.116-8.847 33.929-.371 34.647 0a4 4 0 0 1-3.662 7.11c-.133-.062-13.924-6.919-27.315 0a36.2 36.2 0 0 1-16.747 4.01z"/>
    </g>
</svg>
