<svg xmlns="http://www.w3.org/2000/svg" viewBox="0 0 503.992 511.754">
    <defs>
        <style>
            .a{fill:#94c1ff}.b{fill:#d7e9ff}.c{fill:#5c9eff}.d{fill:#116fff}
        </style>
    </defs>
    <path class="a" d="M476.264 59.468a32.484 32.484 0 1 1-32.484-32.484 32.483 32.483 0 0 1 32.484 32.484z"/>
    <path class="b" d="M419.296 59.468a32.382 32.382 0 0 1 28.486-32.083 31.955 31.955 0 0 0-4-.4 32.486 32.486 0 0 0 0 64.972 31.954 31.954 0 0 0 4-.4 32.379 32.379 0 0 1-28.486-32.089z"/>
    <path class="c" d="M467.767 59.477a32.38 32.38 0 0 1-28.486 32.082 31.955 31.955 0 0 0 4 .4 32.486 32.486 0 0 0 0-64.972 31.954 31.954 0 0 0-4 .4 32.381 32.381 0 0 1 28.486 32.09z"/>
    <path class="c" d="M479.769 387.814h-31.984a15.992 15.992 0 0 0 0-31.984h-31.989a15.993 15.993 0 0 0 0-31.985h-47.973a15.992 15.992 0 1 0 0-31.984h87.958a15.992 15.992 0 0 0 0-31.984h-39.985a15.992 15.992 0 0 0 0-31.984h-15.987a15.993 15.993 0 0 0 0-31.985h79.961a15.993 15.993 0 0 0 0-31.985h-31.984a15.992 15.992 0 0 0 0-31.984h-31.984a15.992 15.992 0 1 0 0-31.984h-23.988a15.993 15.993 0 0 0 0-31.985H151.928a15.992 15.992 0 0 0 0 31.985H95.954a15.992 15.992 0 0 0 0 31.984H79.962a15.992 15.992 0 0 0 0 31.984h47.977a15.993 15.993 0 0 0 0 31.985H39.982a15.993 15.993 0 1 0 0 31.985h39.98a15.992 15.992 0 0 0 0 31.984h-39.98a15.992 15.992 0 1 0 0 31.984H23.989a15.992 15.992 0 1 0 0 31.984H63.97a15.993 15.993 0 0 0 0 31.985H47.978a15.992 15.992 0 1 0 0 31.984h79.961a15.992 15.992 0 0 0 0 31.984H95.954a15.993 15.993 0 0 0 0 31.985h271.869a15.993 15.993 0 1 0 0-31.985h111.946a15.992 15.992 0 0 0 0-31.984z"/>
    <path class="b" d="M51.976 499.76a8 8 0 1 1-8-8 7.994 7.994 0 0 1 8 8z"/>
    <path class="a" d="M399.808 259.877a147.929 147.929 0 1 1-147.929-147.931 147.934 147.934 0 0 1 147.929 147.931z"/>
    <path class="b" d="M135.935 259.877a147.92 147.92 0 0 1 131.936-147.033 147.929 147.929 0 1 0 0 294.063 147.917 147.917 0 0 1-131.936-147.03z"/>
    <path class="c" d="M367.823 259.877a147.918 147.918 0 0 1-131.936 147.029 147.93 147.93 0 1 0 0-294.063 147.924 147.924 0 0 1 131.936 147.034z"/>
    <path class="c" d="M335.839 227.891c0 6.622-12.533 11.994-27.986 11.994s-27.987-5.373-27.987-11.994 12.525-11.994 27.987-11.994 27.986 5.372 27.986 11.994z"/>
    <path class="c" d="M231.889 167.919c0 4.42-7.16 8-15.992 8s-15.992-3.577-15.992-8 7.161-8 15.992-8 15.992 3.581 15.992 8z"/>
    <path class="c" d="M207.896 295.857c0 4.42-10.741 8-23.988 8s-23.989-3.576-23.989-8 10.741-8 23.989-8 23.988 3.588 23.988 8z"/>
    <path class="c" d="M327.843 335.839c0 4.419-8.957 8-19.99 8s-19.99-3.577-19.99-8 8.948-8 19.99-8 19.99 3.588 19.99 8z"/>
    <path class="d" d="M20.229 215.897a4.032 4.032 0 0 1-4.037-4 3.963 3.963 0 0 1 3.959-4h.078a4 4 0 1 1 0 8z"/>
    <path class="d" d="M228.129 495.762a4.032 4.032 0 0 1-4.037-4 3.962 3.962 0 0 1 3.959-4h.078a4 4 0 1 1 0 8z"/>
    <path class="d" d="M180.153 439.789a4.032 4.032 0 0 1-4.037-4 3.962 3.962 0 0 1 3.959-4h.078a4 4 0 1 1 0 8z"/>
    <path class="d" d="M116.183 479.77a4.032 4.032 0 0 1-4.037-4 3.962 3.962 0 0 1 3.959-4h.078a4 4 0 1 1 0 8z"/>
    <path class="d" d="M356.063 463.777a4.035 4.035 0 0 1-4.037-4 3.962 3.962 0 0 1 3.959-4h.078a4 4 0 1 1 0 8z"/>
    <path class="d" d="M36.222 311.85a4.032 4.032 0 0 1-4.037-4 3.963 3.963 0 0 1 3.959-4h.078a4 4 0 1 1 0 8z"/>
    <path class="d" d="M76.203 135.935a4.032 4.032 0 0 1-4.037-4 3.962 3.962 0 0 1 3.959-4h.078a4 4 0 1 1 0 8z"/>
    <path class="d" d="M60.21 407.804a4.032 4.032 0 0 1-4.037-4 3.962 3.962 0 0 1 3.959-4h.078a4 4 0 1 1 0 8z"/>
    <path class="d" d="M108.187 31.984a4.032 4.032 0 0 1-4.037-4 3.962 3.962 0 0 1 3.959-4h.078a4 4 0 1 1 0 8z"/>
    <path class="d" d="M292.096 79.961a4.035 4.035 0 0 1-4.037-4 3.964 3.964 0 0 1 3.959-4h.078a4 4 0 0 1 0 8z"/>
    <path class="d" d="M340.071 7.996a4.034 4.034 0 0 1-4.037-4 3.962 3.962 0 0 1 3.959-4h.078a4 4 0 1 1 0 8z"/>
    <path class="d" d="M212.137 7.996a4.032 4.032 0 0 1-4.037-4 3.962 3.962 0 0 1 3.959-4h.078a4 4 0 1 1 0 8z"/>
    <path class="d" d="M452.017 183.912a4.035 4.035 0 0 1-4.037-4 3.962 3.962 0 0 1 3.959-4h.078a4 4 0 0 1 0 8z"/>
    <path class="d" d="M499.996 319.846a4.033 4.033 0 0 1-4.037-4 3.963 3.963 0 0 1 3.959-4h.078a4 4 0 1 1 0 8z"/>
    <path class="d" d="M420.033 383.815a4.034 4.034 0 0 1-4.037-4 3.962 3.962 0 0 1 3.959-4h.078a4 4 0 1 1 0 8z"/>
    <path class="d" d="M475.764 495.762a4 4 0 0 1-4-4v-31.985a4 4 0 1 1 8 0v31.984a4 4 0 0 1-4 4.001z"/>
    <path class="d" d="M483.76 479.77h-15.992a4 4 0 1 1 0-8h15.992a4 4 0 1 1 0 8z"/>
    <path class="d" d="M35.979 71.965a4 4 0 0 1-4-4V35.977a4 4 0 0 1 8 0v31.99a4 4 0 0 1-4 3.998z"/>
    <path class="d" d="M43.976 55.977H27.983a4 4 0 0 1 0-8h15.993a4 4 0 0 1 0 8z"/>
    <path class="d" d="M43.98 511.754a11.994 11.994 0 1 1 11.994-11.994 12.008 12.008 0 0 1-11.994 11.994zm0-15.992a4 4 0 1 0 4 4 4 4 0 0 0-4-4z"/>
    <path class="d" d="M37.635 498.908a4.017 4.017 0 0 1-2.483-.866c-1.093-.875-26.874-21.747-35.069-61.439a4 4 0 1 1 7.832-1.624c7.614 36.889 31.965 56.613 32.211 56.8a4 4 0 0 1-2.491 7.128z"/>
    <path class="d" d="M251.879 411.802c-83.772 0-151.927-68.154-151.927-151.927s68.155-151.927 151.927-151.927 151.927 68.154 151.927 151.929-68.155 151.925-151.927 151.925zm0-295.858c-79.364 0-143.931 64.566-143.931 143.931s64.567 143.931 143.931 143.931S395.81 339.244 395.81 259.877s-64.571-143.933-143.931-143.933z"/>
    <path class="d" d="M167.92 227.891h-59.558a4 4 0 1 1 0-8h59.558a4 4 0 1 1 0 8z"/>
    <path class="d" d="M395.396 299.856H271.869a4 4 0 0 1 0-8h123.527a4 4 0 0 1 0 8z"/>
    <path class="d" d="M367.753 171.917h-39.91a4 4 0 0 1 0-8h39.91a4 4 0 0 1 0 8z"/>
    <path class="d" d="M247.881 363.825H142.83a4 4 0 1 1 0-8h105.051a4 4 0 1 1 0 8z"/>
    <path class="d" d="M307.852 243.883c-15.9 0-31.985-5.493-31.985-15.992 0-21 63.97-21 63.97 0 0 10.499-16.094 15.992-31.985 15.992zm0-23.988c-14.884 0-23.989 5.177-23.989 8s9.105 8 23.989 8 23.988-5.177 23.988-8-9.112-8-23.988-8z"/>
    <path class="d" d="M215.896 179.914c-11.4 0-19.99-5.158-19.99-11.995s8.594-11.994 19.99-11.994 19.99 5.158 19.99 11.994-8.59 11.995-19.99 11.995zm0-15.993c-7.738 0-11.994 3-11.994 4s4.256 4 11.994 4 11.994-3 11.994-4-4.255-4-11.994-4z"/>
    <path class="d" d="M183.913 307.852c-13.931 0-27.987-3.709-27.987-11.994s14.056-11.994 27.987-11.994 27.983 3.713 27.983 11.994-14.053 11.994-27.983 11.994zm-19.628-11.995c1.878 1.484 8.574 4 19.627 4s17.749-2.514 19.627-4c-1.878-1.476-8.582-4-19.627-4s-17.749 2.525-19.627 4z"/>
    <path class="d" d="M307.852 347.833c-11.558 0-23.989-3.749-23.989-11.994s12.432-11.995 23.989-11.995 23.988 3.749 23.988 11.995-12.444 11.994-23.988 11.994zm0-15.992c-9.933 0-15.493 3.014-16.031 4.216.538.766 6.091 3.78 16.031 3.78s15.484-3.015 16.023-4.217c-.538-.765-6.098-3.779-16.023-3.779z"/>
    <path class="d" d="M443.779 95.954a35.983 35.983 0 1 1 35.982-35.983 36.022 36.022 0 0 1-35.982 35.983zm0-63.97a27.987 27.987 0 1 0 27.986 27.987 28.021 28.021 0 0 0-27.986-27.987z"/>
    <path class="d" d="M423.096 65.527a50.714 50.714 0 0 1-12.268-1.679 4 4 0 0 1 1.937-7.754c15.157 3.776 20.889-.5 28.158-5.931 6.935-5.173 14.751-10.986 30.782-10.179a4 4 0 0 1 3.779 4.209 4.069 4.069 0 0 1-4.209 3.779c-13.079-.71-19.154 3.815-25.565 8.6-5.921 4.418-11.996 8.955-22.614 8.955z"/>
    <path class="d" d="M451.775 79.961h-8a4 4 0 0 1 0-8h8a4 4 0 0 1 0 8z"/>
</svg>
