<svg xmlns="http://www.w3.org/2000/svg" viewBox="0 0 512 511.754">
    <defs>
        <style>
            .a{fill:#94c1ff}.b{fill:#d7e9ff}.c{fill:#5c9eff}.d{fill:#fff}.e{fill:#116fff}
        </style>
    </defs>
    <g transform="translate(0 -.123)">
        <circle class="a" cx="31.984" cy="31.984" r="31.984" transform="translate(411.799 20.114)"/>
        <path class="b" d="M419.8 52.1a31.882 31.882 0 0 1 27.986-31.583 32.007 32.007 0 1 0 0 63.166A31.882 31.882 0 0 1 419.8 52.1z"/>
        <path class="c" d="M467.771 52.1a31.883 31.883 0 0 1-27.986 31.583 32.378 32.378 0 0 0 4 .4 31.985 31.985 0 0 0 0-63.97 32.378 32.378 0 0 0-4 .4A31.882 31.882 0 0 1 467.771 52.1z"/>
        <path class="b" d="M467.771 436.078a8 8 0 1 1-8-8 8.007 8.007 0 0 1 8 8z"/>
        <path class="c" d="M483.764 383.782H451.78a15.992 15.992 0 0 0 0-31.984H419.8a15.993 15.993 0 0 0 0-31.985h-47.982a15.992 15.992 0 1 0 0-31.984h87.958a15.99 15.99 0 1 0 0-31.98H419.8a15.992 15.992 0 0 0 0-31.984h-16a15.993 15.993 0 0 0 0-31.985h79.961a15.993 15.993 0 0 0 0-31.985h-31.98a15.992 15.992 0 1 0 0-31.984H419.8a15.992 15.992 0 1 0 0-31.984h-23.991a15.992 15.992 0 0 0 0-31.985H155.91a15.992 15.992 0 0 0 0 31.985H99.937a15.992 15.992 0 0 0 0 31.984H83.944a15.992 15.992 0 0 0 0 31.984h47.977a15.993 15.993 0 0 0 0 31.985H43.964a15.993 15.993 0 1 0 0 31.985h39.98a15.992 15.992 0 0 0 0 31.984h-39.98a15.99 15.99 0 1 0 0 31.98H27.971a15.992 15.992 0 0 0 0 31.984h39.981a15.993 15.993 0 0 0 0 31.985H51.96a15.992 15.992 0 1 0 0 31.984h79.961a15.993 15.993 0 0 0 0 31.985H99.937a15.992 15.992 0 0 0 0 31.984h271.881a15.992 15.992 0 1 0 0-31.984h111.946a15.993 15.993 0 0 0 0-31.985z"/>
        <path class="b" d="M403.8 255.848a147.932 147.932 0 1 1-147.931-147.929A147.929 147.929 0 0 1 403.8 255.848z"/>
        <path class="d" d="M139.925 255.848a147.921 147.921 0 0 1 131.94-147.031 147.913 147.913 0 1 0-16 294.956 150.086 150.086 0 0 0 16-.89 147.931 147.931 0 0 1-131.94-147.035z"/>
        <path class="a" d="M371.817 255.848a147.93 147.93 0 0 1-131.94 147.035 150.187 150.187 0 0 0 15.992.89 147.927 147.927 0 1 0-15.992-294.956 147.92 147.92 0 0 1 131.94 147.031z"/>
        <path class="c" d="M451.779 52.1c0 4.419-5.373 8-11.994 8-6.638 0-11.994-3.577-11.994-8s5.356-8 11.994-8c6.621 0 11.994 3.578 11.994 8z"/>
        <path class="e" d="M500.006 287.984a4.031 4.031 0 0 1-4.045-4 3.961 3.961 0 0 1 3.951-4h.094a4 4 0 0 1 0 8z"/>
        <path class="e" d="M116.187 8.119a4.029 4.029 0 0 1-4.037-4 3.961 3.961 0 0 1 3.951-4h.086a4 4 0 0 1 0 8z"/>
        <path class="e" d="M212.141 48.1a4.029 4.029 0 0 1-4.037-4 3.961 3.961 0 0 1 3.951-4h.086a4 4 0 1 1 0 8z"/>
        <path class="e" d="M92.2 112.069a4.029 4.029 0 0 1-4.037-4 3.961 3.961 0 0 1 3.951-4h.086a4 4 0 0 1 0 8z"/>
        <path class="e" d="M508 144.054a4.031 4.031 0 0 1-4.045-4 3.961 3.961 0 0 1 3.951-4H508a4 4 0 0 1 0 8z"/>
        <path class="e" d="M428.041 168.042a4.031 4.031 0 0 1-4.045-4 3.961 3.961 0 0 1 3.951-4h.094a4 4 0 0 1 0 8z"/>
        <path class="e" d="M428.041 367.946a4.031 4.031 0 0 1-4.045-4 3.961 3.961 0 0 1 3.951-4h.094a4 4 0 0 1 0 8z"/>
        <path class="e" d="M108.19 415.923a4.029 4.029 0 0 1-4.037-4 3.961 3.961 0 0 1 3.951-4h.086a4 4 0 1 1 0 8z"/>
        <path class="e" d="M4.24 359.95a4.029 4.029 0 0 1-4.037-4 3.961 3.961 0 0 1 3.951-4h.086a4 4 0 1 1 0 8z"/>
        <path class="e" d="M36.225 256a4.029 4.029 0 0 1-4.037-4 3.961 3.961 0 0 1 3.951-4h.086a4 4 0 1 1 0 8z"/>
        <path class="e" d="M324.091 455.9a4.031 4.031 0 0 1-4.045-4 3.961 3.961 0 0 1 3.951-4h.094a4 4 0 0 1 0 8z"/>
        <path class="e" d="M11.995 136.058a4 4 0 0 1-4-4v-31.982a4 4 0 0 1 8 0v31.984a4 4 0 0 1-4 3.998z"/>
        <path class="e" d="M19.991 120.065H4a4 4 0 0 1 0-8h15.991a4 4 0 0 1 0 8z"/>
        <path class="e" d="M59.972 511.877a4 4 0 0 1-4-4V475.9a4 4 0 0 1 8 0v31.984a4 4 0 0 1-4 3.993z"/>
        <path class="e" d="M67.968 495.885H51.976a4 4 0 1 1 0-8h15.992a4 4 0 1 1 0 8z"/>
        <path class="e" d="M183.443 389.014a3.95 3.95 0 0 1-1.96-.515A152.246 152.246 0 0 1 103.95 256c0-76.459 57.121-141.268 132.874-150.748a4 4 0 0 1 1 7.933c-71.763 8.98-125.878 70.381-125.878 142.815A144.239 144.239 0 0 0 185.4 381.532a4 4 0 0 1-1.96 7.482z"/>
        <path class="e" d="M255.877 407.927a152.2 152.2 0 0 1-42.612-6.06 3.993 3.993 0 1 1 2.235-7.667 144.5 144.5 0 0 0 40.379 5.731C335.241 399.93 399.8 335.368 399.8 256a143.41 143.41 0 0 0-129.308-143.2 3.986 3.986 0 0 1-3.576-4.38 4.124 4.124 0 0 1 4.373-3.577A151.385 151.385 0 0 1 407.8 256c0 83.772-68.154 151.927-151.923 151.927z"/>
        <path class="e" d="M209.954 503.389a11.789 11.789 0 0 1-2.382-.273c-29.345-5.747-11.112-155.6 8.309-254.924S274.864 3.11 304.162 8.889c4.951.968 20.007 3.908 14.041 94.192a4 4 0 1 1-7.981-.531c4.357-65.855-3.062-84.928-7.591-85.814-9.792-1.987-45.6 62.579-78.911 232.985s-24.074 243.7-14.618 245.538c4.74.938 18.608-14.056 39.341-76.65a4 4 0 1 1 7.59 2.515c-24.833 74.976-39.465 82.265-46.079 82.265z"/>
        <path class="e" d="M459.791 448.08a12.671 12.671 0 0 1-1.937-.156 11.986 11.986 0 1 1 1.937.156zm.484-15.954c-2.53 0-4.139 1.4-4.451 3.319a3.993 3.993 0 0 0 3.311 4.576l.656.062a4 4 0 0 0 .626-7.949.853.853 0 0 0-.142-.008z"/>
        <path class="e" d="M404.724 479.729a4 4 0 0 1-.983-7.871c36.2-9.223 46.462-31.664 46.571-31.9a3.992 3.992 0 0 1 7.324 3.178c-.453 1.07-11.666 26.214-51.929 36.467a3.936 3.936 0 0 1-.983.126z"/>
        <path class="e" d="M443.783 88.081A35.983 35.983 0 1 1 479.765 52.1a36.027 36.027 0 0 1-35.982 35.981zm0-63.97A27.986 27.986 0 1 0 471.769 52.1a28.021 28.021 0 0 0-27.986-27.989z"/>
        <path class="e" d="M427.791 40.1h-11.713a4 4 0 0 1 0-8h11.713a4 4 0 0 1 0 8z"/>
        <path class="e" d="M471.457 72.088h-11.682a4 4 0 0 1 0-8h11.682a4 4 0 0 1 0 8z"/>
        <path class="e" d="M439.785 64.092c-8.965 0-15.992-5.267-15.992-11.994S430.82 40.1 439.785 40.1s15.992 5.268 15.992 11.995-7.027 11.997-15.992 11.997zm0-15.992c-4.873 0-8 2.366-8 4s3.123 4 8 4c4.889 0 8-2.366 8-4s-3.111-4-8-4z"/>
    </g>
</svg>
