<svg xmlns="http://www.w3.org/2000/svg" viewBox="-6475 -15162 256 235.984">
    <defs>
        <style>
            .cls-1{opacity:.35}.cls-2{fill:#afd5f6}.cls-3{fill:#fff}.cls-4{fill:#8abfef}.cls-5{fill:rgba(44,147,233,.75)}.cls-6{fill:#d7e9ff}.cls-7{opacity:.5}.cls-8{fill:#1c6fbb}
        </style>
    </defs>
    <g id="_10._neptune_planet_space_star_astronomy_discovery" data-name="10. neptune, planet, space, star, astronomy, discovery" class="cls-1" transform="translate(-6475.105 -15182.113)">
        <g id="Group_763" data-name="Group 763" transform="translate(205.993 22.113)">
            <circle id="Ellipse_31" data-name="Ellipse 31" class="cls-2" cx="15.999" cy="15.999" r="15.999"/>
        </g>
        <g id="Group_764" data-name="Group 764" transform="translate(205.993 22.113)">
            <path id="Path_221" data-name="Path 221" class="cls-3" d="M415.709 40.11a15.948 15.948 0 0 1 14-15.8 15.837 15.837 0 0 0-2-.2 16 16 0 0 0 0 32 15.837 15.837 0 0 0 2-.2 15.948 15.948 0 0 1-14-15.8z" transform="translate(-411.709 -24.111)"/>
        </g>
        <g id="Group_765" data-name="Group 765" transform="translate(219.992 22.113)">
            <path id="Path_222" data-name="Path 222" class="cls-4" d="M453.695 40.11a15.948 15.948 0 0 1-14 15.8 15.67 15.67 0 0 0 2 .2 16 16 0 0 0 0-32 15.669 15.669 0 0 0-2 .2 15.948 15.948 0 0 1 14 15.8z" transform="translate(-439.696 -24.111)"/>
        </g>
        <g id="Group_766" data-name="Group 766" transform="translate(6.008 44.097)">
            <path id="Path_223" data-name="Path 223" class="cls-5" d="M247.895 228.049h-16a8 8 0 0 0 0-16h-16a8 8 0 0 0 0-16h-24a8 8 0 1 0 0-16h44a8 8 0 0 0 0-16h-20a8 8 0 0 0 0-16h-8a8 8 0 0 0 0-16h40a8 8 0 0 0 0-16h-16a8 8 0 0 0 0-16h-16a8 8 0 1 0 0-16h-12a8 8 0 0 0 0-16H83.9a8 8 0 0 0 0 16h-28a8 8 0 1 0 0 16h-8a8 8 0 0 0 0 16h24a8 8 0 1 0 0 16h-44a8 8 0 1 0 0 16h20a8 8 0 0 0 0 16h-20a8 8 0 1 0 0 16h-8a8 8 0 0 0 0 16h20a8 8 0 0 0 0 16h-8a8 8 0 1 0 0 16h40a8 8 0 1 0 0 16h-16a8 8 0 0 0 0 16h136a8 8 0 1 0 0-16h56a8 8 0 1 0 0-16z" transform="translate(-11.905 -68.061)"/>
        </g>
        <g id="Group_767" data-name="Group 767" transform="translate(38.002 226.1)">
            <path id="Path_224" data-name="Path 224" class="cls-6" d="M83.865 435.916a4 4 0 1 1-4-4 4 4 0 0 1 4 4z" transform="translate(-75.866 -431.916)"/>
        </g>
        <g id="Group_768" data-name="Group 768" class="cls-7" transform="translate(215.992 34.112)">
            <path id="Path_225" data-name="Path 225" class="cls-3" d="M437.7 49.131a3.513 3.513 0 1 0-4.97 4.969l4.969 4.969 4.969-4.969a3.513 3.513 0 0 0-4.969-4.969z" transform="translate(-431.698 -48.1)"/>
        </g>
        <g id="Group_769" data-name="Group 769" transform="translate(54.001 66.11)">
            <path id="Path_226" data-name="Path 226" class="cls-2" d="M255.843 186.064a74 74 0 1 1-74-74 74 74 0 0 1 74 74z" transform="translate(-107.851 -112.069)"/>
        </g>
        <g id="Group_770" data-name="Group 770" transform="translate(54 66.11)">
            <path id="Path_227" data-name="Path 227" class="cls-6" d="M123.849 186.064a73.992 73.992 0 0 1 66-73.546 74 74 0 1 0 0 147.092 73.993 73.993 0 0 1-66-73.546z" transform="translate(-107.85 -112.069)"/>
        </g>
        <g id="Group_771" data-name="Group 771" transform="translate(119.997 66.11)">
            <path id="Path_228" data-name="Path 228" class="cls-4" d="M305.785 186.064a73.992 73.992 0 0 1-66 73.546 74 74 0 1 0 0-147.092 73.994 73.994 0 0 1 66 73.546z" transform="translate(-239.788 -112.068)"/>
        </g>
        <g id="Group_772" data-name="Group 772" transform="translate(109.997 134.09)">
            <path id="Path_229" data-name="Path 229" class="cls-6" d="M255.8 253.973c0 3.316-8.055 6-18 6s-18-2.683-18-6 8.062-6 18-6 18 2.687 18 6z" transform="translate(-219.797 -247.973)"/>
        </g>
        <g id="_x31_0._neptune_x2C__planet_x2C__space_x2C__star_x2C__astronomy_x2C__discovery" transform="translate(.106 20.113)">
            <g id="Group_773" data-name="Group 773" transform="translate(235.986 103.994)">
                <path id="Path_230" data-name="Path 230" class="cls-8" d="M473.9 232.014a2.014 2.014 0 0 1-2.015-2 1.981 1.981 0 0 1 1.976-2h.039a2 2 0 0 1 0 4z" transform="translate(-471.883 -228.014)"/>
            </g>
            <g id="Group_774" data-name="Group 774" transform="translate(211.988 63.996)">
                <path id="Path_231" data-name="Path 231" class="cls-8" d="M425.922 152.052a2.014 2.014 0 0 1-2.015-2 1.981 1.981 0 0 1 1.976-2h.039a2 2 0 0 1 0 4z" transform="translate(-423.907 -148.052)"/>
            </g>
            <g id="Group_775" data-name="Group 775" transform="translate(127.991 4)">
                <path id="Path_232" data-name="Path 232" class="cls-8" d="M258 32.109a2.016 2.016 0 0 1-2.019-2 1.981 1.981 0 0 1 1.976-2H258a2 2 0 0 1 0 4z" transform="translate(-255.983 -28.109)"/>
            </g>
            <g id="Group_776" data-name="Group 776" transform="translate(59.996 39.998)">
                <path id="Path_233" data-name="Path 233" class="cls-8" d="M122.067 104.075a2.015 2.015 0 0 1-2.019-2 1.981 1.981 0 0 1 1.976-2h.043a2 2 0 0 1 0 4z" transform="translate(-120.048 -100.075)"/>
            </g>
            <g id="Group_777" data-name="Group 777" transform="translate(0 71.995)">
                <path id="Path_234" data-name="Path 234" class="cls-8" d="M2.125 168.044a2.015 2.015 0 0 1-2.019-2 1.982 1.982 0 0 1 1.976-2h.043a2 2 0 1 1 0 4z" transform="translate(-.106 -164.044)"/>
            </g>
            <g id="Group_778" data-name="Group 778" transform="translate(251.985 159.99)">
                <path id="Path_235" data-name="Path 235" class="cls-8" d="M505.882 343.96a2.015 2.015 0 0 1-2.015-2 1.981 1.981 0 0 1 1.976-2h.039a2 2 0 1 1 0 4z" transform="translate(-503.867 -339.96)"/>
            </g>
            <g id="Group_779" data-name="Group 779" transform="translate(215.988 187.988)">
                <path id="Path_236" data-name="Path 236" class="cls-8" d="M433.918 399.933a2.014 2.014 0 0 1-2.015-2 1.981 1.981 0 0 1 1.976-2h.039a2 2 0 0 1 0 4z" transform="translate(-431.903 -395.933)"/>
            </g>
            <g id="Group_780" data-name="Group 780" transform="translate(163.991 227.985)">
                <path id="Path_237" data-name="Path 237" class="cls-8" d="M329.967 479.895a2.014 2.014 0 0 1-2.015-2 1.981 1.981 0 0 1 1.976-2h.039a2 2 0 1 1 0 4z" transform="translate(-327.952 -475.895)"/>
            </g>
            <g id="Group_781" data-name="Group 781" transform="translate(107.993 219.986)">
                <path id="Path_238" data-name="Path 238" class="cls-8" d="M218.021 463.9a2.016 2.016 0 0 1-2.019-2 1.981 1.981 0 0 1 1.976-2h.043a2 2 0 1 1 0 4z" transform="translate(-216.002 -459.902)"/>
            </g>
            <g id="Group_782" data-name="Group 782" transform="translate(19.999 131.991)">
                <path id="Path_239" data-name="Path 239" class="cls-8" d="M42.106 287.986a2.016 2.016 0 0 1-2.019-2 1.982 1.982 0 0 1 1.976-2h.043a2 2 0 1 1 0 4z" transform="translate(-40.087 -283.986)"/>
            </g>
            <g id="Group_783" data-name="Group 783" transform="translate(4 191.988)">
                <path id="Path_240" data-name="Path 240" class="cls-8" d="M10.121 407.929a2.016 2.016 0 0 1-2.019-2 1.981 1.981 0 0 1 1.976-2h.043a2 2 0 1 1 0 4z" transform="translate(-8.102 -403.929)"/>
            </g>
            <g id="Group_786" data-name="Group 786" transform="translate(235.885 211.987)">
                <g id="Group_784" data-name="Group 784" transform="translate(4)">
                    <path id="Path_241" data-name="Path 241" class="cls-8" d="M481.676 463.909a2 2 0 0 1-2-2v-16a2 2 0 1 1 4 0v16a2 2 0 0 1-2 2z" transform="translate(-479.676 -443.911)"/>
                </g>
                <g id="Group_785" data-name="Group 785" transform="translate(0 7.999)">
                    <path id="Path_242" data-name="Path 242" class="cls-8" d="M481.679 463.9h-8a2 2 0 1 1 0-4h8a2 2 0 0 1 0 4z" transform="translate(-471.68 -459.902)"/>
                </g>
            </g>
            <g id="Group_789" data-name="Group 789" transform="translate(11.897)">
                <g id="Group_787" data-name="Group 787" transform="translate(4)">
                    <path id="Path_243" data-name="Path 243" class="cls-8" d="M33.887 40.112a2 2 0 0 1-2-2v-16a2 2 0 0 1 4 0v16a2 2 0 0 1-2 2z" transform="translate(-31.887 -20.113)"/>
                </g>
                <g id="Group_788" data-name="Group 788" transform="translate(0 8)">
                    <path id="Path_244" data-name="Path 244" class="cls-8" d="M33.891 40.106h-8a2 2 0 0 1 0-4h8a2 2 0 0 1 0 4z" transform="translate(-23.891 -36.106)"/>
                </g>
            </g>
            <g id="Group_800" data-name="Group 800" transform="translate(51.895 43.997)">
                <g id="Group_790" data-name="Group 790">
                    <path id="Path_245" data-name="Path 245" class="cls-8" d="M179.848 260.061a75.995 75.995 0 1 1 76-75.995 76.081 76.081 0 0 1-76 75.995zm0-147.99a72 72 0 1 0 72 72 72.078 72.078 0 0 0-72-72z" transform="translate(-103.853 -108.071)"/>
                </g>
                <g id="Group_791" data-name="Group 791" transform="translate(55.996 67.996)">
                    <path id="Path_246" data-name="Path 246" class="cls-8" d="M235.8 260c-9.632 0-20-2.5-20-8s10.367-8 20-8 20 2.5 20 8-10.368 8-20 8zm0-12c-10.5 0-16 2.972-16 4s5.5 4 16 4 16-2.972 16-4-5.5-3.994-16-3.994z" transform="translate(-215.799 -244.006)"/>
                </g>
                <g id="Group_794" data-name="Group 794" transform="translate(10.008 55.994)">
                    <g id="Group_792" data-name="Group 792">
                        <path id="Path_247" data-name="Path 247" class="cls-8" d="M127.723 226.009a13.45 13.45 0 0 1-2.191-.178 2 2 0 0 1-1.645-2.3 1.976 1.976 0 0 1 2.3-1.644 8.634 8.634 0 0 0 4.566-.43l1.129-.523a12.512 12.512 0 0 1 9.425 0l1.121.51a8.656 8.656 0 0 0 6.078.011l1.125-.523a12.523 12.523 0 0 1 9.429 0l1.117.508a8.594 8.594 0 0 0 6.07.008l1.148-.523a12.518 12.518 0 0 1 9.413.008l1.117.508a8.638 8.638 0 0 0 6.07.008l1.148-.523a12.578 12.578 0 0 1 9.415 0l1.133.533a8.635 8.635 0 0 0 6.062-.012l1.133-.519a12.558 12.558 0 0 1 9.421 0l1.117.511a8.637 8.637 0 0 0 6.078 0l1.148-.521a12.534 12.534 0 0 1 9.406.006l1.117.511a8.637 8.637 0 0 0 6.077 0l1.148-.521a12.534 12.534 0 0 1 9.406.006l1.125.51a8.414 8.414 0 0 0 4.578.434 2.035 2.035 0 0 1 2.3 1.638 2 2 0 0 1-1.641 2.306 12.5 12.5 0 0 1-6.913-.744l-1.117-.51a8.6 8.6 0 0 0-6.07-.008l-1.148.524a12.56 12.56 0 0 1-9.421-.006l-1.117-.512a8.578 8.578 0 0 0-6.062-.006l-1.148.524a12.56 12.56 0 0 1-9.421-.006l-1.117-.512a8.6 8.6 0 0 0-6.078 0l-1.133.52a12.6 12.6 0 0 1-9.413.006l-1.138-.533a8.64 8.64 0 0 0-6.063.008l-1.144.522a12.51 12.51 0 0 1-9.409-.006l-1.121-.51a8.589 8.589 0 0 0-6.074-.006l-1.144.522a12.464 12.464 0 0 1-9.413-.008l-1.117-.508a8.589 8.589 0 0 0-6.074-.01l-1.128.526a12.579 12.579 0 0 1-9.429-.008l-1.117-.508a8.589 8.589 0 0 0-6.074-.01l-1.129.526a11.566 11.566 0 0 1-4.711.934z" transform="translate(-123.86 -220.013)"/>
                    </g>
                    <g id="Group_793" data-name="Group 793" transform="translate(1.077 35.999)">
                        <path id="Path_248" data-name="Path 248" class="cls-8" d="M128.81 297.973c-.309 0-.617-.012-.929-.031a2 2 0 0 1-1.863-2.125 2.04 2.04 0 0 1 2.129-1.867 8.1 8.1 0 0 0 3.684-.523l1.129-.527a12.509 12.509 0 0 1 9.425 0l1.121.508a8.659 8.659 0 0 0 6.078.012l1.125-.523a12.521 12.521 0 0 1 9.429 0l1.117.508a8.6 8.6 0 0 0 6.07.008l1.148-.523a12.513 12.513 0 0 1 9.413.008l1.117.508a8.641 8.641 0 0 0 6.07.008l1.148-.523a12.573 12.573 0 0 1 9.415 0l1.133.531a8.638 8.638 0 0 0 6.062-.008l1.133-.523a12.549 12.549 0 0 1 9.421.008l1.117.508a8.62 8.62 0 0 0 6.078.008l1.148-.523a12.511 12.511 0 0 1 9.406.008l1.117.508a8.621 8.621 0 0 0 6.077.008l1.148-.523a12.51 12.51 0 0 1 9.406.008l1.125.508a7.821 7.821 0 0 0 3.7.539 2.049 2.049 0 0 1 2.125 1.863 1.993 1.993 0 0 1-1.859 2.129 12.026 12.026 0 0 1-5.632-.9l-1.117-.508a8.594 8.594 0 0 0-6.07-.008l-1.148.523a12.555 12.555 0 0 1-9.421-.008l-1.117-.508a8.551 8.551 0 0 0-6.062-.008l-1.148.523a12.555 12.555 0 0 1-9.421-.008l-1.117-.508a8.615 8.615 0 0 0-6.078-.008l-1.133.523a12.611 12.611 0 0 1-9.413 0l-1.138-.535a8.656 8.656 0 0 0-6.062.008l-1.144.523a12.507 12.507 0 0 1-9.409-.008l-1.121-.508a8.605 8.605 0 0 0-6.074-.008l-1.144.523a12.464 12.464 0 0 1-9.413-.008l-1.117-.508a8.584 8.584 0 0 0-6.074-.008l-1.128.523a12.574 12.574 0 0 1-9.429-.008l-1.117-.508a8.584 8.584 0 0 0-6.074-.008l-1.129.523a11.49 11.49 0 0 1-4.713.935z" transform="translate(-126.013 -291.981)"/>
                    </g>
                </g>
                <g id="Group_795" data-name="Group 795" transform="translate(13.069 31.998)">
                    <path id="Path_249" data-name="Path 249" class="cls-8" d="M190.906 176.04h-58.925a2 2 0 0 1 0-4h58.926a2 2 0 1 1 0 4z" transform="translate(-129.981 -172.04)"/>
                </g>
                <g id="Group_796" data-name="Group 796" transform="translate(95.996 15.999)">
                    <path id="Path_250" data-name="Path 250" class="cls-8" d="M321.755 144.079h-.008l-23.982-.023a2 2 0 0 1 0-4l23.99.024a2 2 0 0 1 0 4z" transform="translate(-295.765 -140.056)"/>
                </g>
                <g id="Group_797" data-name="Group 797" transform="translate(19.452 123.992)">
                    <path id="Path_251" data-name="Path 251" class="cls-8" d="M189.284 359.952H144.74a2 2 0 1 1 0-4h44.544a2 2 0 1 1 0 4z" transform="translate(-142.74 -355.952)"/>
                </g>
                <g id="Group_798" data-name="Group 798" transform="translate(87.996 135.991)">
                    <path id="Path_252" data-name="Path 252" class="cls-8" d="M307.661 383.941h-25.889a2 2 0 0 1 0-4h25.889a2 2 0 1 1 0 4z" transform="translate(-279.772 -379.941)"/>
                </g>
                <g id="Group_799" data-name="Group 799" transform="translate(127.993 111.993)">
                    <path id="Path_253" data-name="Path 253" class="cls-8" d="M371.24 335.964h-9.507a2 2 0 0 1 0-4h9.507a2 2 0 0 1 0 4z" transform="translate(-359.733 -331.964)"/>
                </g>
            </g>
            <g id="Group_801" data-name="Group 801" transform="translate(203.887)">
                <path id="Path_254" data-name="Path 254" class="cls-8" d="M425.709 56.111a18 18 0 1 1 18-18 18.016 18.016 0 0 1-18 18zm0-32a14 14 0 1 0 14 14 14.016 14.016 0 0 0-14-13.998z" transform="translate(-407.711 -20.113)"/>
            </g>
            <g id="Group_802" data-name="Group 802" transform="translate(213.886 12.02)">
                <path id="Path_255" data-name="Path 255" class="cls-8" d="M435.7 59.09a1.987 1.987 0 0 1-1.414-.586l-4.969-4.969a5.508 5.508 0 0 1 0-7.8 5.621 5.621 0 0 1 6.383-1.027 5.617 5.617 0 0 1 6.383 1.031 5.5 5.5 0 0 1-.008 7.8l-4.961 4.961a2 2 0 0 1-1.414.59zm-2.484-10.968a1.521 1.521 0 0 0-1.516 1.518 1.484 1.484 0 0 0 .446 1.066l3.554 3.556 3.554-3.554a1.508 1.508 0 0 0 0-2.14 1.541 1.541 0 0 0-2.14 0 1.994 1.994 0 0 1-1.414.584h-.008a2 2 0 0 1-1.414-.59 1.472 1.472 0 0 0-1.062-.44z" transform="translate(-427.701 -44.143)"/>
            </g>
            <g id="Group_803" data-name="Group 803" transform="translate(35.896 203.987)">
                <path id="Path_256" data-name="Path 256" class="cls-8" d="M77.867 439.917a6 6 0 1 1 6-6 6.006 6.006 0 0 1-6 6zm0-8a2 2 0 1 0 2 2 2 2 0 0 0-2-1.999z" transform="translate(-71.868 -427.918)"/>
            </g>
            <g id="Group_804" data-name="Group 804" transform="translate(42.324 211.16)">
                <path id="Path_257" data-name="Path 257" class="cls-8" d="M112.288 467.083a2.046 2.046 0 0 1-.8-.164c-18.776-8.179-26.209-21.139-26.518-21.686a2 2 0 0 1 3.488-1.961c.071.125 7.152 12.37 24.624 19.976a2 2 0 0 1-.8 3.836z" transform="translate(-84.719 -442.259)"/>
            </g>
        </g>
    </g>
</svg>
