<svg xmlns="http://www.w3.org/2000/svg" viewBox="0 0 24 24">
    <defs>
        <style>
            .a{fill:#1c7ed6}.b{fill:none}
        </style>
    </defs>
    <path class="a" d="M7 18a2 2 0 1 0 2 2 2 2 0 0 0-2-2zM1 2v2h2l3.6 7.59-1.35 2.45A1.933 1.933 0 0 0 5 15a2.006 2.006 0 0 0 2 2h12v-2H7.42a.248.248 0 0 1-.25-.25l.03-.12.9-1.63h7.45a1.991 1.991 0 0 0 1.75-1.03l3.58-6.49A.977.977 0 0 0 21 5a1 1 0 0 0-1-1H5.21l-.94-2H1zm16 16a2 2 0 1 0 2 2 2 2 0 0 0-2-2z"/>
    <path class="b" d="M0 0h24v24H0z"/>
</svg>
