<?xml version="1.0" encoding="UTF-8"?><!DOCTYPE svg PUBLIC "-//W3C//DTD SVG 1.1//EN" "http://www.w3.org/Graphics/SVG/1.1/DTD/svg11.dtd"><svg xmlns="http://www.w3.org/2000/svg"><defs>
        <style>
            .a{fill:#fff}
        </style>
    
        <style>
            .a,.b{fill:none;stroke:#1c7ed6;stroke-miterlimit:10;stroke-width:2px}.b{stroke-linejoin:round}
        </style>
    
        <style>
            .a{opacity:.35}.b,.c{fill:red;stroke:#fff;stroke-miterlimit:10;stroke-width:2px}.c{stroke-linejoin:round}
        </style>
    
        <style>
            .a{fill:#495057}
        </style>
    
        <style>
            .a{fill:#868e96}
        </style>
    
        <style>
            .a{fill:#1c7ed6}
        </style>
    
        <style>
            .a,.b{fill:none;stroke:#1c7ed6;stroke-miterlimit:10;stroke-width:2px}.a{stroke-linejoin:round}
        </style>
    
        <style>
            .a{fill:#495057}
        </style>
    
        <style>
            .a{fill:none;stroke:#1c7ed6;stroke-miterlimit:10;stroke-width:2px}
        </style>
    
        <style>
            .a{fill:none;stroke:#1c7ed6;stroke-linejoin:round;stroke-miterlimit:10;stroke-width:2px}
        </style>
    
        <style>
            .a{fill:#fff}
        </style>
    
        <style>
            .a,.b{fill:none;stroke:#1c7ed6;stroke-miterlimit:10;stroke-width:2px}.a{stroke-linejoin:round}
        </style>
    
        <style>
            .a,.b{fill:none;stroke:#1c7ed6;stroke-miterlimit:10;stroke-width:2px}.b{stroke-linejoin:round}
        </style>
    
        <style>
            .a,.b{fill:none;stroke:#1c7ed6;stroke-miterlimit:10;stroke-width:2px}.b{stroke-linejoin:round}
        </style>
    
        <style>
            .a{fill:#1c7ed6}
        </style>
    
        <style>
            .a{fill:#fff}
        </style>
    
        <style>
            .a,.b{fill:none;stroke:#1c7ed6;stroke-miterlimit:10;stroke-width:2px}.b{stroke-linejoin:round}
        </style>
    
        <style>
            .a,.b{fill:none;stroke:#1c7ed6;stroke-miterlimit:10;stroke-width:2px}.a{stroke-linejoin:round}
        </style>
    
        <style>
            .a{fill:#5c9eff}.b{fill:#d7e9ff}.c{fill:#fff}.d{fill:#94c1ff}.e{fill:#ccd1d9}.f{fill:#116fff}
        </style>
    
        <style>
            .a{fill:#94c1ff}.b{fill:#d7e9ff}.c{fill:#5c9eff}.d{fill:#116fff}
        </style>
    
        <style>
            .a{fill:#5c9eff}.b{fill:#ffce54}.c{fill:#d7e9ff}.d{fill:#fff}.e{fill:#94c1ff}.f{opacity:.7}.g{fill:#116fff}
        </style>
    
        <style>
            .a{fill:#94c1ff}.b{fill:#d7e9ff}.c{fill:#5c9eff}.d{fill:#fff}.e{fill:#116fff}
        </style>
    
        <style>
            .a{fill:#1c7ed6}
        </style>
    
        <style>
            .a{fill:#868e96}
        </style>
    
        <style>
            .a{fill:#fff;fill-rule:evenodd}
        </style>
    
        <style>
            .a,.b{fill:none;stroke:#1c7ed6;stroke-miterlimit:10;stroke-width:2px}.b{stroke-linejoin:round}
        </style>
    
        <style>
            .a{fill:#fff}
        </style>
    
        <style>
            .a{fill:#1c7ed6}
        </style>
    </defs><symbol id="icon-arrow" viewBox="0 0 22.105 14">
    
    <path class="a" d="M18.888 7.942H.938a.942.942 0 0 1 0-1.885h17.95l-4.449-4.448A.943.943 0 0 1 15.772.276l6.058 6.058a.942.942 0 0 1 0 1.333l-6.058 6.058a.943.943 0 1 1-1.333-1.333l4.449-4.45z"/>
</symbol><symbol id="icon-bank-building" viewBox="0 0 64 64">
    
    <path class="a" d="M44 7h9l7 14"/>
    <path class="a" d="M4 21l7-14h9"/>
    <path class="a" d="M17 16a15 15 0 0 1 30 0"/>
    <path class="b" d="M64 21H0"/>
    <path class="a" d="M8 51V32"/>
    <path class="a" d="M14 32v19"/>
    <path class="a" d="M6 25h10v4H6z"/>
    <path class="a" d="M6 51h10v4H6z"/>
    <path class="a" d="M22 51V32"/>
    <path class="a" d="M28 32v19"/>
    <path class="a" d="M20 25h10v4H20z"/>
    <path class="a" d="M20 51h10v4H20z"/>
    <path class="a" d="M36 51V32"/>
    <path class="a" d="M42 32v19"/>
    <path class="a" d="M34 25h10v4H34z"/>
    <path class="a" d="M34 51h10v4H34z"/>
    <path class="a" d="M50 51V32"/>
    <path class="a" d="M56 32v19"/>
    <path class="a" d="M48 25h10v4H48z"/>
    <path class="a" d="M48 51h10v4H48z"/>
    <path class="a" d="M64 25H0"/>
    <path class="a" d="M3 55h58"/>
    <circle class="a" cx="4" cy="4" r="4" transform="translate(28 7)"/>
    <path class="a" d="M39 11h2"/>
    <path class="a" d="M25 11h-2"/>
    <path class="a" d="M1 59h62v4H1z"/>
</symbol><symbol id="icon-bullet" viewBox="0 0 64 64">
    
    <g class="a">
        <path class="b" d="M61 21a30.7 30.7 0 0 1 2 11A31 31 0 1 1 32 1a30.7 30.7 0 0 1 11 2"/>
        <path class="b" d="M32 32l22-22 9-9"/>
        <path class="b" d="M64 7h-7V0"/>
        <path class="b" d="M60 11h-7V4"/>
        <circle class="b" cx="25" cy="25" r="25" transform="translate(7 7)"/>
        <circle class="b" cx="19" cy="19" r="19" transform="translate(13 13)"/>
        <circle class="b" cx="13" cy="13" r="13" transform="translate(19 19)"/>
        <circle class="b" cx="7" cy="7" r="7" transform="translate(25 25)"/>
        <circle class="b" cx="1" cy="1" r="1" transform="translate(31 31)"/>
        <path class="c" d="M12 56l-7 7H1l6-12"/>
        <path class="c" d="M52 56l7 7h4l-6-12"/>
    </g>
</symbol><symbol id="icon-burger" viewBox="0 0 22 16">
    
    <g transform="translate(-33 -24)">
        <rect class="a" width="22" height="2" rx="1" transform="translate(33 31)"/>
        <rect class="a" width="22" height="2" rx="1" transform="translate(33 24)"/>
        <rect class="a" width="22" height="2" rx="1" transform="translate(33 38)"/>
    </g>
</symbol><symbol id="icon-caret" viewBox="0 0 4.94 8">
    
    <path class="a" d="M0 7.06L3.053 4 0 .94.94 0l4 4-4 4z"/>
</symbol><symbol id="icon-check" viewBox="0 0 18.309 12.898">
    
    <path class="a" d="M7.191 12.9l-1.439-1.389-5.754-5.558 1.389-1.439 5.754 5.559L16.87.003l1.438 1.389z"/>
</symbol><symbol id="icon-chip" viewBox="0 0 64 64">
    
    <path class="a" d="M14 4V0"/>
    <path class="a" d="M18 4V0"/>
    <path class="a" d="M22 4V0"/>
    <path class="a" d="M26 4V0"/>
    <path class="a" d="M30 4V0"/>
    <path class="a" d="M34 4V0"/>
    <path class="a" d="M38 4V0"/>
    <path class="a" d="M42 4V0"/>
    <path class="a" d="M46 4V0"/>
    <path class="a" d="M50 4V0"/>
    <path class="a" d="M14 64v-4"/>
    <path class="a" d="M18 64v-4"/>
    <path class="a" d="M22 64v-4"/>
    <path class="a" d="M26 64v-4"/>
    <path class="a" d="M30 64v-4"/>
    <path class="a" d="M34 64v-4"/>
    <path class="a" d="M38 64v-4"/>
    <path class="a" d="M42 64v-4"/>
    <path class="a" d="M46 64v-4"/>
    <path class="a" d="M50 64v-4"/>
    <path class="a" d="M60 14h4"/>
    <path class="a" d="M60 18h4"/>
    <path class="a" d="M60 22h4"/>
    <path class="a" d="M60 26h4"/>
    <path class="a" d="M60 30h4"/>
    <path class="a" d="M60 34h4"/>
    <path class="a" d="M60 38h4"/>
    <path class="a" d="M60 42h4"/>
    <path class="a" d="M60 46h4"/>
    <path class="a" d="M60 50h4"/>
    <path class="a" d="M0 14h4"/>
    <path class="a" d="M0 18h4"/>
    <path class="a" d="M0 22h4"/>
    <path class="a" d="M0 26h4"/>
    <path class="a" d="M0 30h4"/>
    <path class="a" d="M0 34h4"/>
    <path class="a" d="M0 38h4"/>
    <path class="a" d="M0 42h4"/>
    <path class="a" d="M0 46h4"/>
    <path class="a" d="M0 50h4"/>
    <path class="a" d="M52 53h2"/>
    <path class="a" d="M57 55a2.006 2.006 0 0 1-2 2H9a2.006 2.006 0 0 1-2-2V9a2.006 2.006 0 0 1 2-2h46a2.006 2.006 0 0 1 2 2z"/>
    <path class="a" d="M31 23h2"/>
    <path class="a" d="M27 23h2"/>
    <path class="a" d="M35 23h2"/>
    <path class="a" d="M50 53H11V11h42v39"/>
    <path class="b" d="M17 17h30v12H17z"/>
    <path class="a" d="M16 33h21"/>
    <path class="a" d="M16 37h13"/>
</symbol><symbol id="icon-close" viewBox="0 0 15.557 15.559">
    
    <g transform="translate(-213.223 -23.221)">
        <rect class="a" width="20" height="2" rx="1" transform="rotate(-45 151.713 -238.7)"/>
        <rect class="a" width="20" height="2" rx="1" transform="rotate(45 79.287 270.7)"/>
    </g>
</symbol><symbol id="icon-energy" viewBox="0 0 64 60">
    
    <path class="a" d="M34 42s3-9.5 3-12V19h18v11c0 6 8 22 8 24v5H52"/>
    <path class="a" d="M37 30h18"/>
    <path class="a" d="M25 41v-8H13v8"/>
    <path class="a" d="M34 59H1V45h48v7"/>
    <path class="a" d="M17 33v-9"/>
    <path class="a" d="M21 33v-5"/>
    <path class="a" d="M1 42V9h8v20l4 4"/>
    <path class="a" d="M7 41h23v4H7z"/>
    <path class="a" d="M17 36v2"/>
    <path class="a" d="M21 36v2"/>
    <path class="a" d="M5 22v2"/>
    <path class="a" d="M5 26v2"/>
    <path class="a" d="M5 30v2"/>
    <path class="a" d="M1 13h8"/>
    <path class="a" d="M1 17h8"/>
    <path class="a" d="M37 23h18"/>
    <path class="a" d="M63 55H52"/>
    <path class="a" d="M4 55h6"/>
    <path class="a" d="M12 55h6"/>
    <path class="a" d="M20 55h6"/>
    <path class="a" d="M28 55h6"/>
    <path class="a" d="M32 1c-1.7 0-3 2-3 2s-1.3 2-3 2-3-2-3-2-1.3-2-3-2-3 2-3 2-1.3 2-3 2-3-2-3-2-1.3-2-3-2"/>
    <path class="a" d="M8 1"/>
    <path class="a" d="M5 4a2.946 2.946 0 0 1 3-3"/>
    <path class="a" d="M5 4v2"/>
    <path class="a" d="M64 11c-1.7 0-3 2-3 2s-1.3 2-3 2-3-2-3-2-1.3-2-3-2"/>
    <path class="a" d="M52 11"/>
    <path class="a" d="M49 14a2.946 2.946 0 0 1 3-3"/>
    <path class="a" d="M49 14v2"/>
    <path class="a" d="M52 11h-6"/>
    <path class="a" d="M46 11"/>
    <path class="a" d="M43 14a2.946 2.946 0 0 1 3-3"/>
    <path class="a" d="M43 14v2"/>
    <path class="a" d="M37 55h12v4H37z"/>
</symbol><symbol id="icon-engagement" viewBox="0 0 64 60">
    
    <path class="a" d="M28 9h7a4.012 4.012 0 0 1 4 4v7l6 14v1h-6v10a4.012 4.012 0 0 1-4 4H17v10L7 49H5a4.012 4.012 0 0 1-4-4V13a4.012 4.012 0 0 1 4-4h17"/>
    <path class="a" d="M42 41h5v10l10-10h2a4.012 4.012 0 0 0 4-4V5a4.012 4.012 0 0 0-4-4H29a4.012 4.012 0 0 0-4 4v9l-6 14v1h6v8a4.012 4.012 0 0 0 4 4h7"/>
    <path class="a" d="M44 9h14"/>
    <path class="a" d="M44 13h14"/>
    <path class="a" d="M44 17h10"/>
    <path class="a" d="M6 15h12"/>
    <path class="a" d="M6 19h12"/>
    <path class="a" d="M6 23h8"/>
</symbol><symbol id="icon-facebook" viewBox="0 0 7.934 17">
    
    <path class="a" d="M1.715 3.29v2.341H.004v2.866h1.715v8.5h3.523v-8.5h2.362s.221-1.372.329-2.873H5.254V3.663a.831.831 0 0 1 .764-.686h1.919v-2.98H5.324c-3.696 0-3.609 2.866-3.609 3.293z"/>
</symbol><symbol id="icon-gamepad" viewBox="0 0 64 56">
    
    <path class="a" d="M21 15h22"/>
    <path class="a" d="M28 35h8"/>
    <path class="a" d="M44 14v-4a.945.945 0 0 1 1-1h8a.945.945 0 0 1 1 1v4"/>
    <path class="a" d="M10 14v-4a.945.945 0 0 1 1-1h8a.945.945 0 0 1 1 1v4"/>
    <circle class="a" cx="5" cy="5" r="5" transform="translate(36 30)"/>
    <circle class="a" cx="5" cy="5" r="5" transform="translate(18 30)"/>
    <path class="a" d="M39.9 30.1A10.518 10.518 0 0 1 38 24a11 11 0 1 1 11 11h-3"/>
    <path class="a" d="M18 35h-3a11 11 0 1 1 11-11 10.518 10.518 0 0 1-1.9 6.1"/>
    <path class="a" d="M17 42S12 55 7 55c-3.9 0-6-2-6-6s3-25 3-25"/>
    <path class="a" d="M47 42s5 13 10 13c3.9 0 6-2 6-6s-3-25-3-25"/>
    <path class="a" d="M15 19v10"/>
    <path class="a" d="M10 24h10"/>
    <path class="a" d="M31 31h2"/>
    <path class="a" d="M29 21h2"/>
    <path class="a" d="M33 21h2"/>
    <circle class="a" cx="1" cy="1" r="1" transform="translate(48 19)"/>
    <circle class="a" cx="1" cy="1" r="1" transform="translate(48 27)"/>
    <circle class="a" cx="1" cy="1" r="1" transform="translate(52 23)"/>
    <circle class="a" cx="1" cy="1" r="1" transform="translate(44 23)"/>
    <path class="b" d="M32 15v-3a2.946 2.946 0 0 1 3-3h2a2.946 2.946 0 0 0 3-3 2.946 2.946 0 0 0-3-3H27a2.946 2.946 0 0 1-3-3"/>
</symbol><symbol id="icon-insurance" viewBox="0 0 64 60">
    
    <path class="a" d="M19 60v-7c0-10 7-9 14-13"/>
    <path class="a" d="M49 40c7 4 14 3 14 13v7"/>
    <path class="a" d="M45 44l-4-2-4 2-4-4 2-3 6 1 6-1 2 3z"/>
    <path class="a" d="M46 33v4"/>
    <path class="a" d="M36 37v-4"/>
    <path class="a" d="M40 51h2"/>
    <path class="a" d="M40 47h2"/>
    <path class="a" d="M50 20c0-6.1-2.9-9-9-9s-9 2.9-9 9v4c1 7 4 9 4 9a13 13 0 0 0 10 0s3-2 4-9z"/>
    <path class="a" d="M32 20l4-2 5 2 5 2 4-2"/>
    <path class="a" d="M27 60v-6"/>
    <path class="a" d="M55 60v-6"/>
    <path class="b" d="M17 43C11.2 39.5 1 30.8 1 13V7h6l14-6 14 6"/>
    <path class="a" d="M29.6 30.9A30.079 30.079 0 0 1 21 38S7 31 7 15v-2h3l11-5 9 4.1"/>
    <path class="b" d="M21 14v2"/>
    <path class="b" d="M21 18v2"/>
    <path class="b" d="M21 22v2"/>
</symbol><symbol id="icon-laboratory" viewBox="0 0 64 60">
    
    <path class="a" d="M0 59h64"/>
    <path class="a" d="M27 25v28a6.018 6.018 0 0 1-6 6H11a6.018 6.018 0 0 1-6-6V34l-4-7v-2z"/>
    <path class="a" d="M5 40h19"/>
    <path class="a" d="M5 36h5"/>
    <path class="a" d="M5 48h5"/>
    <path class="a" d="M5 44h5"/>
    <path class="a" d="M5 52h5"/>
    <path class="a" d="M37 9v21l14 20a8.963 8.963 0 0 1-9 9H26a8.963 8.963 0 0 1-9-9l14-20V9"/>
    <path class="a" d="M28 9h12"/>
    <path class="a" d="M18 50h6"/>
    <path class="a" d="M30 50h20"/>
    <path class="a" d="M37 15h-3"/>
    <path class="a" d="M37 19h-3"/>
    <path class="a" d="M37 23h-3"/>
    <path class="a" d="M37 27h-3"/>
    <path class="b" d="M43 27l6-4h12a2.006 2.006 0 0 0 2-2v-8a2.006 2.006 0 0 0-2-2H45a2.006 2.006 0 0 0-2 2z"/>
    <path class="b" d="M54 17h-2"/>
    <path class="b" d="M58 17h-2"/>
    <path class="b" d="M50 17h-2"/>
    <circle class="a" cx="4" cy="4" r="4" transform="translate(15 13)"/>
    <circle class="a" cx="3" cy="3" r="3" transform="translate(5 9)"/>
    <circle class="a" cx="3" cy="3" r="3" transform="translate(13 1)"/>
    <path class="a" d="M12 19h-2"/>
    <path class="a" d="M8 5H6"/>
    <path class="a" d="M24 9h-2"/>
</symbol><symbol id="icon-link" viewBox="0 0 17 17">
    
    <path class="a" d="M15.678 7.7l-3.191 3.19a4.459 4.459 0 0 1-7.066-.91L6.904 8.5a1.065 1.065 0 0 1 .241-.16 2.22 2.22 0 0 0 .553.96 2.258 2.258 0 0 0 3.19 0l3.19-3.19a2.256 2.256 0 0 0-3.19-3.191l-1.13 1.133a5.661 5.661 0 0 0-2.878-.313l2.418-2.418a4.512 4.512 0 1 1 6.38 6.379zm-8.436 5.248l-1.135 1.136a2.256 2.256 0 1 1-3.191-3.191L6.107 7.7a2.257 2.257 0 0 1 3.19 0 2.233 2.233 0 0 1 .557.956 1.084 1.084 0 0 0 .244-.156l1.483-1.482a4.434 4.434 0 0 0-.685-.91 4.512 4.512 0 0 0-6.381 0L1.321 9.3a4.512 4.512 0 0 0 6.377 6.379l2.418-2.418a5.657 5.657 0 0 1-2.874-.313z"/>
</symbol><symbol id="icon-linkedin" viewBox="0 0 16.744 16">
    
    <path class="a" d="M16.744 9.81V16h-3.589v-5.776c0-1.451-.519-2.441-1.818-2.441A1.964 1.964 0 0 0 9.5 9.096a2.456 2.456 0 0 0-.119.875V16H5.787s.048-9.782 0-10.8h3.59v1.53l-.024.035h.024V6.73a3.564 3.564 0 0 1 3.235-1.784c2.361.004 4.132 1.548 4.132 4.864zM2.031 0a1.871 1.871 0 1 0-.048 3.731h.024A1.871 1.871 0 1 0 2.031 0zM.213 16H3.8V5.2H.213z"/>
</symbol><symbol id="icon-logo" viewBox="0 0 250 43.002">
    <path d="M33.587 4.937l4.111 7.148a3.243 3.243 0 0 0 2.828 1.623h4.9a1.64 1.64 0 0 0 1.41-2.457l-.34-.6a1.431 1.431 0 0 1 1.231-2.147h19.35a1.426 1.426 0 0 1 1.231 2.147l-9.663 16.752a1.425 1.425 0 0 1-2.461 0l-3.168-5.5a3.267 3.267 0 0 0-2.828-1.65h-4.243a2.034 2.034 0 0 0-1.754 3.037l10.4 18.041a3.268 3.268 0 0 0 5.656 0l21-36.37a3.265 3.265 0 0 0-2.828-4.9h-42a3.223 3.223 0 0 0-2.828 4.87zM21.28 15.358a3.212 3.212 0 0 1 2.828-1.623h7.043a1.36 1.36 0 0 0 1.178-2.042L26.543 1.638a3.268 3.268 0 0 0-5.656 0L8.319 23.397a3.265 3.265 0 0 0 2.828 4.9h19.824a3.273 3.273 0 0 1 0 6.546H4.051a4.045 4.045 0 1 0 0 8.091h40.69a3.265 3.265 0 0 0 2.828-4.9l-9.348-16.156a3.243 3.243 0 0 0-2.828-1.627H24.108a3.265 3.265 0 0 1-2.828-4.9zm78.841-2.985c0-1.2-1.414-1.466-3.142-1.571-3.718-.262-6.153-1.545-6.206-5.263-.157-7.384 13.145-7.384 13.066 0h-4.168c0-2.278-4.608-2.069-4.739-.052-.1 1.309 1.178 1.571 2.723 1.728 3.4.367 6.729.89 6.729 5.158 0 7.2-13.93 7.305-13.851-.209h4.242c-.026 2.2 5.342 2.226 5.342.209zM122.692.251h1.571v17.176h-4.478V9.781l-3.64 3.823h-.5l-3.61-3.823v7.62h-4.478V.251h1.623l6.7 7.436 6.812-7.436zm15.789 15h-6.756l-.995 2.147h-4.268v-.628l7.7-16.706h1.885l7.724 16.708v.628h-4.268l-1.022-2.149zm-3.378-8.248l-1.911 4.5h3.879zm25.368 9.769v.628h-4.9l-2.933-5.027h-2.267V17.4h-4.373V.276h7.515c6.729.026 7.96 8.117 3.613 11.05zM153.51 4.204c-1.021-.026-2.095 0-3.142 0v4.241h3.142c2.383 0 2.488-4.215 0-4.241zm7.934 0V.302h12.727v3.9h-4.189v13.2h-4.32V4.204zM96.979 42.642h-6.468V25.518h6.468c11.154.052 11.154 17.072 0 17.124zm-2.069-4.006h2.069c5.446 0 5.446-9.138 0-9.138H94.91zm24.461-9.217h-6.337v2.409h5.813v3.9h-5.813v3.013h6.537v3.9h-10.914V25.518h10.683c.031 1.256.031 2.592.031 3.901zm10.369 5.813h.131l3.9-9.714h4.216v.655l-7.253 16.653h-1.863l-7.332-16.653v-.655h4.216zm21.471-5.813h-6.34v2.409h5.813v3.9h-5.813v3.013h6.546v3.9h-10.92V25.518h10.683c.026 1.257.026 2.592.026 3.9zm8.379 9.269h6.206v3.928h-10.6v-17.1h4.4v13.172zm8.17-4.582c0-11.835 17.57-11.835 17.57 0-.032 11.861-17.575 11.861-17.575 0zm13.066 0a4.305 4.305 0 1 0-8.588 0 4.308 4.308 0 1 0 8.583 0zm7.777 8.536V25.518h7.541c8.2.026 8.2 12.752 0 12.752h-3.142v4.373zm7.515-13.223c-1.021-.026-2.121 0-3.142 0v4.9h3.142c2.409 0 2.54-4.87 0-4.9zm20.162 0h-6.337v2.409h5.813v3.9h-5.813v3.013h6.546v3.9h-10.924V25.518h10.683c.026 1.257.026 2.592.026 3.9zm18.434 12.568v.628h-4.9l-2.933-5.027h-2.28v5.027h-4.373V25.491h7.515c6.729.026 7.96 8.117 3.613 11.05l3.352 5.446zm-6.965-12.568c-1.021-.026-2.095 0-3.142 0v4.242h3.142c2.35 0 2.481-4.216-.006-4.242zm17.989 8.091c0-1.2-1.414-1.388-3.142-1.493-3.718-.262-6.153-1.545-6.206-5.263-.157-7.384 13.145-7.384 13.066 0h-4.163c0-2.278-4.608-2.069-4.739-.052-.1 1.309 1.178 1.571 2.723 1.728 3.4.367 6.729.812 6.729 5.08 0 7.2-13.93 7.384-13.851-.157h4.242c0 2.226 5.342 2.173 5.342.157z"/>
</symbol><symbol id="icon-medicine" viewBox="0 0 64 64">
    
    <path class="a" d="M32 39V9"/>
    <path class="a" d="M32 63V43"/>
    <circle class="a" cx="4" cy="4" r="4" transform="translate(28 1)"/>
    <path class="a" d="M32 53c2 1 5 2.2 5 5a5 5 0 0 1-10 0 5.142 5.142 0 0 1 1-3"/>
    <path class="a" d="M32 53c-2-1-7-3-7-7 0-2.5 2-3.8 4-5"/>
    <path class="a" d="M36 51a5.2 5.2 0 0 0 3-5c0-3.9-5-6-7-7"/>
    <path class="a" d="M35 25c2 0 5 2 5 6 0 4.4-6 7-8 8-2-1-8-3.6-8-8 0-4 3-6 5-6"/>
    <path class="b" d="M29 21h-4C11 21 3 16 1 10c14 0 14-5 19-5a4.148 4.148 0 0 1 4 4v3a2.946 2.946 0 0 0 3 3h2"/>
    <path class="a" d="M22 21v-4"/>
    <path class="a" d="M18 21v-5"/>
    <path class="a" d="M14 20v-5"/>
    <path class="a" d="M10 18v-4"/>
    <path class="b" d="M35 21h4c14 0 22-5 24-11-14 0-14-5-19-5a4.148 4.148 0 0 0-4 4v3a2.946 2.946 0 0 1-3 3h-2"/>
    <path class="a" d="M42 21v-4"/>
    <path class="a" d="M46 21v-5"/>
    <path class="a" d="M50 20v-5"/>
    <path class="a" d="M54 18v-4"/>
</symbol><symbol id="icon-milk" viewBox="0 0 64 64">
    
    <path class="a" d="M29 26l3-8v-7"/>
    <path class="a" d="M50 63H34"/>
    <path class="a" d="M42 11v7l5 13v9"/>
    <path class="a" d="M29 35h18"/>
    <path class="a" d="M39 51h-8"/>
    <path class="a" d="M32 7h10a2 2 0 0 1 0 4H32a2 2 0 0 1 0-4z"/>
    <path class="a" d="M19 41h12v22H19z"/>
    <path class="a" d="M19 41H1v22h18"/>
    <path class="a" d="M19 41l6-14 6 14"/>
    <path class="a" d="M1 41l6-14h18"/>
    <path class="a" d="M25 27v-4H7v4"/>
    <circle class="a" cx="12" cy="12" r="12" transform="translate(39 39)"/>
    <path class="a" d="M51 42v2"/>
    <path class="a" d="M59 51a8.024 8.024 0 0 1-8 8"/>
    <path class="b" d="M6 59h8"/>
    <path class="a" d="M7 20V1h44v35"/>
    <path class="b" d="M10 5h16"/>
    <path class="b" d="M10 9h8"/>
    <path class="a" d="M51 1l6 6v29"/>
    <circle class="a" cx="3" cy="3" r="3" transform="translate(10 31)"/>
    <path class="a" d="M25 44v2"/>
    <path class="a" d="M25 48v2"/>
    <path class="a" d="M25 52v2"/>
</symbol><symbol id="icon-planet-00" viewBox="0 0 511.788 463.777">
    
    <g transform="translate(-.106 -24.111)">
        <path class="a" d="M483.674 375.942H451.69a15.992 15.992 0 0 0 0-31.984h-31.984a15.993 15.993 0 0 0 0-31.985h-47.978a15.992 15.992 0 1 0 0-31.984h87.958a15.992 15.992 0 0 0 0-31.984h-39.98a15.992 15.992 0 0 0 0-31.984h-15.992a15.993 15.993 0 0 0 0-31.985h79.961a15.993 15.993 0 0 0 0-31.985h-31.984a15.992 15.992 0 1 0 0-31.984h-31.984a15.992 15.992 0 1 0 0-31.984h-23.988a15.993 15.993 0 0 0 0-31.985H155.832a15.992 15.992 0 1 0 0 31.983H99.858a15.992 15.992 0 0 0 0 31.984H83.866a15.992 15.992 0 0 0 0 31.984h47.977a15.993 15.993 0 1 0 0 31.985H43.886a15.993 15.993 0 1 0 0 31.985h39.98a15.992 15.992 0 0 0 0 31.984h-39.98a15.992 15.992 0 1 0 0 31.984H27.893a15.992 15.992 0 0 0 0 31.984h39.981a15.993 15.993 0 0 0 0 31.985H51.882a15.992 15.992 0 1 0 0 31.984h79.961a15.992 15.992 0 1 0 0 31.984H99.858a15.993 15.993 0 0 0 0 31.985h271.869a15.993 15.993 0 1 0 0-31.985h111.946a15.991 15.991 0 1 0 0-31.982z"/>
        <circle class="b" cx="31.984" cy="31.984" r="31.984" transform="translate(403.713 52.099)"/>
        <path class="c" d="M411.709 84.083A31.882 31.882 0 0 1 439.7 52.5a31.365 31.365 0 0 0-4-.4 31.985 31.985 0 0 0 0 63.969 31.365 31.365 0 0 0 4-.4 31.881 31.881 0 0 1-27.991-31.586z"/>
        <path class="d" d="M459.686 84.083a31.881 31.881 0 0 1-27.986 31.582 31.328 31.328 0 0 0 4 .4 31.985 31.985 0 0 0 0-63.969 31.328 31.328 0 0 0-4 .4 31.882 31.882 0 0 1 27.986 31.587z"/>
        <path class="e" d="M403.713 248a147.929 147.929 0 1 1-147.929-147.925A147.934 147.934 0 0 1 403.713 248z"/>
        <path class="b" d="M403.713 248a147.929 147.929 0 1 1-147.929-147.925A147.934 147.934 0 0 1 403.713 248z"/>
        <path class="c" d="M139.839 248a147.92 147.92 0 0 1 131.936-147.027 147.929 147.929 0 1 0 0 294.064A147.918 147.918 0 0 1 139.839 248z"/>
        <path class="d" d="M371.728 248a147.918 147.918 0 0 1-131.937 147.035 147.929 147.929 0 1 0 0-294.064A147.927 147.927 0 0 1 371.728 248z"/>
        <circle class="d" cx="11.994" cy="11.994" r="11.994" transform="translate(235.793 124.064)"/>
        <path class="d" d="M291.767 164.044a8 8 0 1 0 8 8 8 8 0 0 0-8-8z"/>
        <path class="d" d="M227.8 196.029a8 8 0 1 0 8 8 8 8 0 0 0-8-8z"/>
        <path class="d" d="M275.773 236.01A15.992 15.992 0 1 0 291.766 252a15.993 15.993 0 0 0-15.993-15.99z"/>
        <path class="d" d="M335.745 315.971a11.994 11.994 0 1 0 11.994 11.994 11.992 11.992 0 0 0-11.994-11.994z"/>
        <path class="d" d="M347.739 267.994a8 8 0 1 0 8 8 7.991 7.991 0 0 0-8-8z"/>
        <path class="d" d="M339.743 220.018a8 8 0 1 0 8-8 7.992 7.992 0 0 0-8 8z"/>
        <path class="d" d="M167.826 188.033a11.994 11.994 0 1 0 11.994 11.994 11.993 11.993 0 0 0-11.994-11.994z"/>
        <path class="d" d="M339.743 172.04a8 8 0 1 0-8-8 7.991 7.991 0 0 0 8 8z"/>
        <path class="d" d="M215.8 283.986a11.994 11.994 0 1 0 12 11.994 11.992 11.992 0 0 0-12-11.994z"/>
        <path class="d" d="M187.816 339.96a8 8 0 1 0 8 8 7.991 7.991 0 0 0-8-8z"/>
        <path class="d" d="M259.781 347.956a8 8 0 1 0 8 8 7.992 7.992 0 0 0-8-8z"/>
        <path class="d" d="M139.839 252a8 8 0 1 0 8 8 7.992 7.992 0 0 0-8-8z"/>
        <path class="b" d="M95.86 419.921a8 8 0 1 1-8-8 7.994 7.994 0 0 1 8 8z"/>
        <path class="f" d="M371.962 48.1a4.027 4.027 0 0 1-4.029-4 3.961 3.961 0 0 1 3.951-4h.078a4 4 0 0 1 0 8z"/>
        <path class="f" d="M236.031 32.107a4.032 4.032 0 0 1-4.037-4 3.962 3.962 0 0 1 3.959-4h.078a4 4 0 1 1 0 8z"/>
        <path class="f" d="M52.12 128.062a4.032 4.032 0 0 1-4.038-4 3.963 3.963 0 0 1 3.959-4h.078a4 4 0 0 1 0 8z"/>
        <path class="f" d="M4.143 184.035a4.032 4.032 0 0 1-4.037-4 3.962 3.962 0 0 1 3.959-4h.078a4 4 0 0 1 0 8z"/>
        <path class="f" d="M100.1 367.946a4.032 4.032 0 0 1-4.037-4 3.962 3.962 0 0 1 3.959-4h.078a4 4 0 1 1 0 8z"/>
        <path class="f" d="M148.074 64.092a4.032 4.032 0 0 1-4.037-4 3.962 3.962 0 0 1 3.959-4h.078a4 4 0 0 1 0 8z"/>
        <path class="f" d="M307.993 64.092a4.028 4.028 0 0 1-4.029-4 3.961 3.961 0 0 1 3.951-4h.078a4 4 0 0 1 0 8z"/>
        <path class="f" d="M36.127 335.962a4.032 4.032 0 0 1-4.037-4 3.964 3.964 0 0 1 3.959-4h.078a4 4 0 0 1 0 8z"/>
        <path class="f" d="M220.039 431.916a4.032 4.032 0 0 1-4.037-4 3.962 3.962 0 0 1 3.959-4h.078a4 4 0 1 1 0 8z"/>
        <path class="f" d="M188.055 487.889a4.032 4.032 0 0 1-4.037-4 3.962 3.962 0 0 1 3.959-4h.078a4 4 0 1 1 0 8z"/>
        <path class="f" d="M411.943 471.9a4.027 4.027 0 0 1-4.029-4 3.961 3.961 0 0 1 3.951-4h.078a4 4 0 1 1 0 8z"/>
        <path class="f" d="M403.947 399.931a4.027 4.027 0 0 1-4.029-4 3.96 3.96 0 0 1 3.951-4h.078a4 4 0 0 1 0 8z"/>
        <path class="f" d="M323.985 463.9a4.028 4.028 0 0 1-4.029-4 3.961 3.961 0 0 1 3.951-4h.078a4 4 0 1 1 0 8z"/>
        <path class="f" d="M435.932 335.962a4.027 4.027 0 0 1-4.029-4 3.962 3.962 0 0 1 3.951-4h.078a4 4 0 0 1 0 8z"/>
        <path class="f" d="M491.9 271.992a4.027 4.027 0 0 1-4.029-4 3.961 3.961 0 0 1 3.951-4h.078a4 4 0 0 1 0 8z"/>
        <path class="f" d="M467.916 200.027a4.027 4.027 0 0 1-4.029-4 3.961 3.961 0 0 1 3.951-4h.078a4 4 0 0 1 0 8z"/>
        <path class="f" d="M507.9 144.054a4.028 4.028 0 0 1-4.029-4 3.961 3.961 0 0 1 3.951-4h.078a4 4 0 0 1 0 8z"/>
        <path class="f" d="M87.864 431.916a11.994 11.994 0 1 1 11.994-11.995 12.008 12.008 0 0 1-11.994 11.995zm0-15.993a4 4 0 1 0 4 4 4 4 0 0 0-4-4z"/>
        <path class="f" d="M151.837 463.9a4.789 4.789 0 0 1-.812-.078c-39.7-8.2-60.572-33.984-61.443-35.077a4 4 0 0 1 6.259-4.981c.195.249 20.061 24.644 56.8 32.219a4 4 0 0 1-.8 7.917z"/>
        <path class="f" d="M252.023 319.969a4.031 4.031 0 0 1-4.037-4 3.963 3.963 0 0 1 3.959-4h.078a4 4 0 1 1 0 8z"/>
        <path class="f" d="M172.062 319.969a4.031 4.031 0 0 1-4.037-4 3.964 3.964 0 0 1 3.959-4h.078a4 4 0 1 1 0 8z"/>
        <path class="f" d="M172.062 279.988a4.032 4.032 0 0 1-4.037-4 3.963 3.963 0 0 1 3.959-4h.078a4 4 0 1 1 0 8z"/>
        <path class="f" d="M220.039 256a4.032 4.032 0 0 1-4.039-4 3.962 3.962 0 0 1 3.959-4h.078a4 4 0 0 1 0 8z"/>
        <path class="f" d="M228.035 359.95a4.032 4.032 0 0 1-4.037-4 3.962 3.962 0 0 1 3.959-4h.078a4 4 0 1 1 0 8z"/>
        <path class="f" d="M300 351.954a4.028 4.028 0 0 1-4.03-4 3.962 3.962 0 0 1 3.952-4H300a4 4 0 0 1 0 8z"/>
        <path class="f" d="M315.989 303.977a4.027 4.027 0 0 1-4.029-4 3.961 3.961 0 0 1 3.951-4h.078a4 4 0 1 1 0 8z"/>
        <path class="f" d="M284 295.98a4.028 4.028 0 0 1-4.029-4 3.962 3.962 0 0 1 3.951-4H284a4 4 0 0 1 0 8z"/>
        <path class="f" d="M315.989 256a4.027 4.027 0 0 1-4.029-4 3.961 3.961 0 0 1 3.951-4h.078a4 4 0 0 1 0 8z"/>
        <path class="f" d="M307.993 216.02a4.028 4.028 0 0 1-4.029-4 3.961 3.961 0 0 1 3.951-4h.078a4 4 0 0 1 0 8z"/>
        <path class="f" d="M204.047 128.062a4.032 4.032 0 0 1-4.037-4 3.962 3.962 0 0 1 3.959-4h.078a4 4 0 1 1 0 8z"/>
        <path class="f" d="M212.043 168.042a4.032 4.032 0 0 1-4.037-4 3.963 3.963 0 0 1 3.959-4h.078a4 4 0 0 1 0 8z"/>
        <path class="f" d="M188.055 240.008a4.032 4.032 0 0 1-4.037-4 3.962 3.962 0 0 1 3.959-4h.078a4 4 0 0 1 0 8z"/>
        <path class="f" d="M140.077 232.012a4.032 4.032 0 0 1-4.037-4 3.963 3.963 0 0 1 3.959-4h.078a4 4 0 0 1 0 8z"/>
        <path class="f" d="M164.066 168.042a4.032 4.032 0 0 1-4.037-4 3.964 3.964 0 0 1 3.959-4h.078a4 4 0 1 1 0 8z"/>
        <path class="f" d="M260.02 216.02a4.033 4.033 0 0 1-4.037-4 3.963 3.963 0 0 1 3.959-4h.078a4 4 0 0 1 0 8z"/>
        <path class="f" d="M363.966 192.031a4.027 4.027 0 0 1-4.029-4 3.961 3.961 0 0 1 3.951-4h.078a4 4 0 0 1 0 8z"/>
        <path class="f" d="M300 144.054a4.028 4.028 0 0 1-4.03-4 3.962 3.962 0 0 1 3.952-4H300a4 4 0 0 1 0 8z"/>
        <path class="f" d="M379.958 248a4.027 4.027 0 0 1-4.029-4 3.961 3.961 0 0 1 3.951-4h.078a4 4 0 0 1 0 8z"/>
        <path class="f" d="M363.966 311.973a4.027 4.027 0 0 1-4.029-4 3.961 3.961 0 0 1 3.951-4h.078a4 4 0 0 1 0 8z"/>
        <path class="f" d="M260.02 383.938a4.032 4.032 0 0 1-4.037-4 3.963 3.963 0 0 1 3.959-4h.078a4 4 0 0 1 0 8z"/>
        <path class="f" d="M255.784 399.931c-83.772 0-151.927-68.154-151.927-151.927S172.011 96.077 255.784 96.077 407.711 164.231 407.711 248s-68.155 151.931-151.927 151.931zm0-295.858c-79.364 0-143.931 64.566-143.931 143.931s64.567 143.931 143.931 143.931S399.715 327.373 399.715 248s-64.564-143.927-143.931-143.927z"/>
        <path class="f" d="M247.787 152.05a15.992 15.992 0 1 1 15.992-15.992 16.008 16.008 0 0 1-15.992 15.992zm0-23.988a8 8 0 1 0 8 8 8.006 8.006 0 0 0-8-8z"/>
        <path class="f" d="M291.767 184.035a11.994 11.994 0 1 1 11.994-11.995 12.008 12.008 0 0 1-11.994 11.995zm0-15.993a4 4 0 1 0 4 4 4 4 0 0 0-4-4z"/>
        <path class="f" d="M227.8 216.02a11.994 11.994 0 1 1 11.994-11.995A12.008 12.008 0 0 1 227.8 216.02zm0-15.993a4 4 0 1 0 4 4 4 4 0 0 0-4-4z"/>
        <path class="f" d="M275.773 271.992A19.99 19.99 0 1 1 295.764 252a20.012 20.012 0 0 1-19.991 19.992zm0-31.984A11.994 11.994 0 1 0 287.768 252a12.008 12.008 0 0 0-11.995-11.992z"/>
        <path class="f" d="M335.745 343.958a15.993 15.993 0 1 1 15.992-15.993 16 16 0 0 1-15.992 15.993zm0-23.989a8 8 0 1 0 8 8 8.012 8.012 0 0 0-8-8z"/>
        <path class="f" d="M347.739 287.984a11.994 11.994 0 1 1 11.994-11.994 12.007 12.007 0 0 1-11.994 11.994zm0-15.992a4 4 0 1 0 4 4 4.006 4.006 0 0 0-4-4z"/>
        <path class="f" d="M347.739 232.012a11.994 11.994 0 1 1 11.994-11.994 12.007 12.007 0 0 1-11.994 11.994zm0-15.992a4 4 0 1 0 4 4 4 4 0 0 0-4-4z"/>
        <path class="f" d="M167.826 216.02a15.993 15.993 0 1 1 15.992-15.993 16.009 16.009 0 0 1-15.992 15.993zm0-23.989a8 8 0 1 0 8 8 8.007 8.007 0 0 0-8-8z"/>
        <path class="f" d="M339.743 176.039a11.994 11.994 0 1 1 11.994-11.995 12.007 12.007 0 0 1-11.994 11.995zm0-15.993a4 4 0 1 0 4 4 4 4 0 0 0-4-4z"/>
        <path class="f" d="M215.8 311.973a15.992 15.992 0 1 1 15.992-15.992 16.005 16.005 0 0 1-15.992 15.992zm0-23.989a8 8 0 1 0 8 8 8.009 8.009 0 0 0-8-8z"/>
        <path class="f" d="M187.816 359.95a11.994 11.994 0 1 1 11.994-11.994 12.007 12.007 0 0 1-11.994 11.994zm0-15.992a4 4 0 1 0 4 4 4 4 0 0 0-4-4z"/>
        <path class="f" d="M259.781 367.946a11.994 11.994 0 1 1 11.994-11.994 12.008 12.008 0 0 1-11.994 11.994zm0-15.992a4 4 0 1 0 4 4 4 4 0 0 0-4-4z"/>
        <path class="f" d="M139.839 271.992A11.994 11.994 0 1 1 151.833 260a12.008 12.008 0 0 1-11.994 11.992zm0-15.992a4 4 0 1 0 4 4 4 4 0 0 0-4-4z"/>
        <path class="f" d="M459.686 439.912a4 4 0 0 1-4-4v-31.983a4 4 0 1 1 8 0v31.985a4 4 0 0 1-4 3.998z"/>
        <path class="f" d="M467.682 423.92H451.69a4 4 0 0 1 0-8h15.992a4 4 0 0 1 0 8z"/>
        <path class="f" d="M43.886 279.988a4 4 0 0 1-4-4v-31.982a4 4 0 0 1 8 0v31.984a4 4 0 0 1-4 3.998z"/>
        <path class="f" d="M51.882 264H35.889a4 4 0 0 1 0-8h15.993a4 4 0 1 1 0 8z"/>
        <path class="f" d="M435.7 120.065a35.982 35.982 0 1 1 35.982-35.982 36.022 36.022 0 0 1-35.982 35.982zm0-63.969a27.986 27.986 0 1 0 27.986 27.987A28.02 28.02 0 0 0 435.7 56.1z"/>
        <path class="f" d="M420.782 83.649a42.268 42.268 0 0 1-17.9-4.01 4 4 0 0 1 3.662-7.111c.133.059 13.923 6.927 27.315 0 17.116-8.843 33.929-.371 34.647 0a4 4 0 0 1-3.662 7.11c-.133-.062-13.924-6.919-27.315 0a36.173 36.173 0 0 1-16.747 4.011z"/>
        <path class="f" d="M420.782 99.642a42.268 42.268 0 0 1-17.9-4.01 4 4 0 0 1 3.662-7.11c.133.066 13.923 6.922 27.315 0 17.116-8.847 33.929-.371 34.647 0a4 4 0 0 1-3.662 7.11c-.133-.062-13.924-6.919-27.315 0a36.2 36.2 0 0 1-16.747 4.01z"/>
    </g>
</symbol><symbol id="icon-planet-01" viewBox="0 0 503.992 511.754">
    
    <path class="a" d="M476.264 59.468a32.484 32.484 0 1 1-32.484-32.484 32.483 32.483 0 0 1 32.484 32.484z"/>
    <path class="b" d="M419.296 59.468a32.382 32.382 0 0 1 28.486-32.083 31.955 31.955 0 0 0-4-.4 32.486 32.486 0 0 0 0 64.972 31.954 31.954 0 0 0 4-.4 32.379 32.379 0 0 1-28.486-32.089z"/>
    <path class="c" d="M467.767 59.477a32.38 32.38 0 0 1-28.486 32.082 31.955 31.955 0 0 0 4 .4 32.486 32.486 0 0 0 0-64.972 31.954 31.954 0 0 0-4 .4 32.381 32.381 0 0 1 28.486 32.09z"/>
    <path class="c" d="M479.769 387.814h-31.984a15.992 15.992 0 0 0 0-31.984h-31.989a15.993 15.993 0 0 0 0-31.985h-47.973a15.992 15.992 0 1 0 0-31.984h87.958a15.992 15.992 0 0 0 0-31.984h-39.985a15.992 15.992 0 0 0 0-31.984h-15.987a15.993 15.993 0 0 0 0-31.985h79.961a15.993 15.993 0 0 0 0-31.985h-31.984a15.992 15.992 0 0 0 0-31.984h-31.984a15.992 15.992 0 1 0 0-31.984h-23.988a15.993 15.993 0 0 0 0-31.985H151.928a15.992 15.992 0 0 0 0 31.985H95.954a15.992 15.992 0 0 0 0 31.984H79.962a15.992 15.992 0 0 0 0 31.984h47.977a15.993 15.993 0 0 0 0 31.985H39.982a15.993 15.993 0 1 0 0 31.985h39.98a15.992 15.992 0 0 0 0 31.984h-39.98a15.992 15.992 0 1 0 0 31.984H23.989a15.992 15.992 0 1 0 0 31.984H63.97a15.993 15.993 0 0 0 0 31.985H47.978a15.992 15.992 0 1 0 0 31.984h79.961a15.992 15.992 0 0 0 0 31.984H95.954a15.993 15.993 0 0 0 0 31.985h271.869a15.993 15.993 0 1 0 0-31.985h111.946a15.992 15.992 0 0 0 0-31.984z"/>
    <path class="b" d="M51.976 499.76a8 8 0 1 1-8-8 7.994 7.994 0 0 1 8 8z"/>
    <path class="a" d="M399.808 259.877a147.929 147.929 0 1 1-147.929-147.931 147.934 147.934 0 0 1 147.929 147.931z"/>
    <path class="b" d="M135.935 259.877a147.92 147.92 0 0 1 131.936-147.033 147.929 147.929 0 1 0 0 294.063 147.917 147.917 0 0 1-131.936-147.03z"/>
    <path class="c" d="M367.823 259.877a147.918 147.918 0 0 1-131.936 147.029 147.93 147.93 0 1 0 0-294.063 147.924 147.924 0 0 1 131.936 147.034z"/>
    <path class="c" d="M335.839 227.891c0 6.622-12.533 11.994-27.986 11.994s-27.987-5.373-27.987-11.994 12.525-11.994 27.987-11.994 27.986 5.372 27.986 11.994z"/>
    <path class="c" d="M231.889 167.919c0 4.42-7.16 8-15.992 8s-15.992-3.577-15.992-8 7.161-8 15.992-8 15.992 3.581 15.992 8z"/>
    <path class="c" d="M207.896 295.857c0 4.42-10.741 8-23.988 8s-23.989-3.576-23.989-8 10.741-8 23.989-8 23.988 3.588 23.988 8z"/>
    <path class="c" d="M327.843 335.839c0 4.419-8.957 8-19.99 8s-19.99-3.577-19.99-8 8.948-8 19.99-8 19.99 3.588 19.99 8z"/>
    <path class="d" d="M20.229 215.897a4.032 4.032 0 0 1-4.037-4 3.963 3.963 0 0 1 3.959-4h.078a4 4 0 1 1 0 8z"/>
    <path class="d" d="M228.129 495.762a4.032 4.032 0 0 1-4.037-4 3.962 3.962 0 0 1 3.959-4h.078a4 4 0 1 1 0 8z"/>
    <path class="d" d="M180.153 439.789a4.032 4.032 0 0 1-4.037-4 3.962 3.962 0 0 1 3.959-4h.078a4 4 0 1 1 0 8z"/>
    <path class="d" d="M116.183 479.77a4.032 4.032 0 0 1-4.037-4 3.962 3.962 0 0 1 3.959-4h.078a4 4 0 1 1 0 8z"/>
    <path class="d" d="M356.063 463.777a4.035 4.035 0 0 1-4.037-4 3.962 3.962 0 0 1 3.959-4h.078a4 4 0 1 1 0 8z"/>
    <path class="d" d="M36.222 311.85a4.032 4.032 0 0 1-4.037-4 3.963 3.963 0 0 1 3.959-4h.078a4 4 0 1 1 0 8z"/>
    <path class="d" d="M76.203 135.935a4.032 4.032 0 0 1-4.037-4 3.962 3.962 0 0 1 3.959-4h.078a4 4 0 1 1 0 8z"/>
    <path class="d" d="M60.21 407.804a4.032 4.032 0 0 1-4.037-4 3.962 3.962 0 0 1 3.959-4h.078a4 4 0 1 1 0 8z"/>
    <path class="d" d="M108.187 31.984a4.032 4.032 0 0 1-4.037-4 3.962 3.962 0 0 1 3.959-4h.078a4 4 0 1 1 0 8z"/>
    <path class="d" d="M292.096 79.961a4.035 4.035 0 0 1-4.037-4 3.964 3.964 0 0 1 3.959-4h.078a4 4 0 0 1 0 8z"/>
    <path class="d" d="M340.071 7.996a4.034 4.034 0 0 1-4.037-4 3.962 3.962 0 0 1 3.959-4h.078a4 4 0 1 1 0 8z"/>
    <path class="d" d="M212.137 7.996a4.032 4.032 0 0 1-4.037-4 3.962 3.962 0 0 1 3.959-4h.078a4 4 0 1 1 0 8z"/>
    <path class="d" d="M452.017 183.912a4.035 4.035 0 0 1-4.037-4 3.962 3.962 0 0 1 3.959-4h.078a4 4 0 0 1 0 8z"/>
    <path class="d" d="M499.996 319.846a4.033 4.033 0 0 1-4.037-4 3.963 3.963 0 0 1 3.959-4h.078a4 4 0 1 1 0 8z"/>
    <path class="d" d="M420.033 383.815a4.034 4.034 0 0 1-4.037-4 3.962 3.962 0 0 1 3.959-4h.078a4 4 0 1 1 0 8z"/>
    <path class="d" d="M475.764 495.762a4 4 0 0 1-4-4v-31.985a4 4 0 1 1 8 0v31.984a4 4 0 0 1-4 4.001z"/>
    <path class="d" d="M483.76 479.77h-15.992a4 4 0 1 1 0-8h15.992a4 4 0 1 1 0 8z"/>
    <path class="d" d="M35.979 71.965a4 4 0 0 1-4-4V35.977a4 4 0 0 1 8 0v31.99a4 4 0 0 1-4 3.998z"/>
    <path class="d" d="M43.976 55.977H27.983a4 4 0 0 1 0-8h15.993a4 4 0 0 1 0 8z"/>
    <path class="d" d="M43.98 511.754a11.994 11.994 0 1 1 11.994-11.994 12.008 12.008 0 0 1-11.994 11.994zm0-15.992a4 4 0 1 0 4 4 4 4 0 0 0-4-4z"/>
    <path class="d" d="M37.635 498.908a4.017 4.017 0 0 1-2.483-.866c-1.093-.875-26.874-21.747-35.069-61.439a4 4 0 1 1 7.832-1.624c7.614 36.889 31.965 56.613 32.211 56.8a4 4 0 0 1-2.491 7.128z"/>
    <path class="d" d="M251.879 411.802c-83.772 0-151.927-68.154-151.927-151.927s68.155-151.927 151.927-151.927 151.927 68.154 151.927 151.929-68.155 151.925-151.927 151.925zm0-295.858c-79.364 0-143.931 64.566-143.931 143.931s64.567 143.931 143.931 143.931S395.81 339.244 395.81 259.877s-64.571-143.933-143.931-143.933z"/>
    <path class="d" d="M167.92 227.891h-59.558a4 4 0 1 1 0-8h59.558a4 4 0 1 1 0 8z"/>
    <path class="d" d="M395.396 299.856H271.869a4 4 0 0 1 0-8h123.527a4 4 0 0 1 0 8z"/>
    <path class="d" d="M367.753 171.917h-39.91a4 4 0 0 1 0-8h39.91a4 4 0 0 1 0 8z"/>
    <path class="d" d="M247.881 363.825H142.83a4 4 0 1 1 0-8h105.051a4 4 0 1 1 0 8z"/>
    <path class="d" d="M307.852 243.883c-15.9 0-31.985-5.493-31.985-15.992 0-21 63.97-21 63.97 0 0 10.499-16.094 15.992-31.985 15.992zm0-23.988c-14.884 0-23.989 5.177-23.989 8s9.105 8 23.989 8 23.988-5.177 23.988-8-9.112-8-23.988-8z"/>
    <path class="d" d="M215.896 179.914c-11.4 0-19.99-5.158-19.99-11.995s8.594-11.994 19.99-11.994 19.99 5.158 19.99 11.994-8.59 11.995-19.99 11.995zm0-15.993c-7.738 0-11.994 3-11.994 4s4.256 4 11.994 4 11.994-3 11.994-4-4.255-4-11.994-4z"/>
    <path class="d" d="M183.913 307.852c-13.931 0-27.987-3.709-27.987-11.994s14.056-11.994 27.987-11.994 27.983 3.713 27.983 11.994-14.053 11.994-27.983 11.994zm-19.628-11.995c1.878 1.484 8.574 4 19.627 4s17.749-2.514 19.627-4c-1.878-1.476-8.582-4-19.627-4s-17.749 2.525-19.627 4z"/>
    <path class="d" d="M307.852 347.833c-11.558 0-23.989-3.749-23.989-11.994s12.432-11.995 23.989-11.995 23.988 3.749 23.988 11.995-12.444 11.994-23.988 11.994zm0-15.992c-9.933 0-15.493 3.014-16.031 4.216.538.766 6.091 3.78 16.031 3.78s15.484-3.015 16.023-4.217c-.538-.765-6.098-3.779-16.023-3.779z"/>
    <path class="d" d="M443.779 95.954a35.983 35.983 0 1 1 35.982-35.983 36.022 36.022 0 0 1-35.982 35.983zm0-63.97a27.987 27.987 0 1 0 27.986 27.987 28.021 28.021 0 0 0-27.986-27.987z"/>
    <path class="d" d="M423.096 65.527a50.714 50.714 0 0 1-12.268-1.679 4 4 0 0 1 1.937-7.754c15.157 3.776 20.889-.5 28.158-5.931 6.935-5.173 14.751-10.986 30.782-10.179a4 4 0 0 1 3.779 4.209 4.069 4.069 0 0 1-4.209 3.779c-13.079-.71-19.154 3.815-25.565 8.6-5.921 4.418-11.996 8.955-22.614 8.955z"/>
    <path class="d" d="M451.775 79.961h-8a4 4 0 0 1 0-8h8a4 4 0 0 1 0 8z"/>
</symbol><symbol id="icon-planet-02" viewBox="0 0 510.867 510.846">
    
    <path class="a" d="M483.234 383.431h-31.98a15.992 15.992 0 0 0 0-31.984H419.27a15.993 15.993 0 0 0 0-31.985h-47.978a15.992 15.992 0 1 0 0-31.984h87.958a15.994 15.994 0 0 0 0-31.988h-39.98a15.992 15.992 0 0 0 0-31.984h-15.992a15.993 15.993 0 0 0 0-31.985h79.956a15.993 15.993 0 0 0 0-31.985h-31.979a15.992 15.992 0 0 0 0-31.984h-31.984a15.992 15.992 0 1 0 0-31.984h-23.988a15.992 15.992 0 0 0 0-31.985H155.392a15.992 15.992 0 0 0 0 31.985H99.418a15.992 15.992 0 0 0 0 31.984H83.426a15.992 15.992 0 0 0 0 31.984h47.977a15.993 15.993 0 0 0 0 31.985H43.445a15.993 15.993 0 0 0 0 31.985h39.981a15.992 15.992 0 0 0 0 31.984H43.445a15.994 15.994 0 0 0 0 31.988H27.453a15.992 15.992 0 1 0 0 31.984h39.981a15.993 15.993 0 0 0 0 31.985H51.442a15.992 15.992 0 1 0 0 31.984h79.961a15.992 15.992 0 0 0 0 31.984H99.418a15.993 15.993 0 0 0 0 31.985h271.873a15.993 15.993 0 1 0 0-31.985h111.943a15.992 15.992 0 0 0 0-31.984z"/>
    <path class="b" d="M403.269 255.492a147.929 147.929 0 1 1-147.935-147.933 147.934 147.934 0 0 1 147.935 147.933z"/>
    <path class="c" d="M403.269 255.492a147.929 147.929 0 1 1-147.935-147.933 147.934 147.934 0 0 1 147.935 147.933z"/>
    <path class="d" d="M139.395 255.492a147.925 147.925 0 0 1 131.939-147.035 149.428 149.428 0 0 0-15.992-.9 147.933 147.933 0 0 0-.008 295.866 150.475 150.475 0 0 0 15.992-.9 147.927 147.927 0 0 1-131.931-147.031z"/>
    <path class="e" d="M371.284 255.485a147.925 147.925 0 0 1-131.937 147.038 150.284 150.284 0 0 0 15.992.9 147.931 147.931 0 0 0 0-295.862 149.5 149.5 0 0 0-15.992.9 147.925 147.925 0 0 1 131.937 147.024z"/>
    <path class="c" d="M378.64 326.583c-23.747-26.12-49.984-53.825-78.033-82.214-5.544-5.767-11.2-11.42-16.961-17.187-34.374-34.378-68.014-66.433-99.339-94.931C90.392 47.046 16.834-6.503 5.073 5.257c-10.967 10.966 36.408 77.459 111.95 162.387l11.588 11.588a140.713 140.713 0 0 1 13.517-18.827l-.457-.34-10.229-10.229c-28.217-32.855-59.936-62.989-56.371-66.554 7.063-7.067 102.283 68.811 193.028 159.45 5.653 5.654 11.252 11.362 16.906 17.016 83.9 85.381 157.189 169.4 150.568 176.017-3.562 3.562-41.387-27.932-73.785-55.691l-11.307-11.315a140.53 140.53 0 0 1-18.827 13.518l11.588 11.588c84.928 75.542 151.364 122.863 162.328 111.9 11.769-11.763-41.721-85.266-126.93-179.182z"/>
    <g class="f">
        <path class="d" d="M178.681 137.904c31.321 28.494 64.961 60.553 99.335 94.931 5.763 5.767 11.417 11.42 16.961 17.188 28.049 28.389 54.286 56.094 78.032 82.214 78.268 86.264 129.719 155.254 128.485 175.057a6.116 6.116 0 0 0 4.1-1.53c11.768-11.761-41.722-85.264-126.931-179.18-23.747-26.12-49.984-53.825-78.033-82.214-5.544-5.767-11.2-11.42-16.961-17.187-34.366-34.378-68.014-66.437-99.335-94.931C90.415 47.046 16.857-6.503 5.097 5.257A6.06 6.06 0 0 0 3.57 9.364c19.803-1.229 88.848 50.277 175.111 128.54z"/>
    </g>
    <path class="c" d="M483.613 51.613a23.988 23.988 0 1 1-23.988-23.99 23.992 23.992 0 0 1 23.988 23.99z"/>
    <path class="d" d="M443.634 51.613a23.946 23.946 0 0 1 19.988-23.59 23.992 23.992 0 1 0 0 47.173 23.95 23.95 0 0 1-19.988-23.583z"/>
    <path class="e" d="M475.617 51.613a23.947 23.947 0 0 1-19.99 23.587 23.992 23.992 0 1 0 0-47.173 23.951 23.951 0 0 1 19.99 23.586z"/>
    <path class="g" d="M491.851 231.531a4.029 4.029 0 0 1-4.037-4 3.961 3.961 0 0 1 3.951-4h.086a4 4 0 0 1 0 8z"/>
    <path class="g" d="M203.985 47.623a4.032 4.032 0 0 1-4.037-4 3.963 3.963 0 0 1 3.959-4h.078a4 4 0 1 1 0 8z"/>
    <path class="g" d="M4.081 143.573a4.032 4.032 0 0 1-4.037-4 3.962 3.962 0 0 1 3.959-4h.078a4 4 0 0 1 0 8z"/>
    <path class="g" d="M315.934 39.623a4.03 4.03 0 0 1-4.037-4 3.961 3.961 0 0 1 3.951-4h.086a4 4 0 0 1 0 8z"/>
    <path class="g" d="M427.882 159.566a4.028 4.028 0 0 1-4.037-4 3.96 3.96 0 0 1 3.951-4h.086a4 4 0 0 1 0 8z"/>
    <path class="g" d="M323.934 503.404a4.03 4.03 0 0 1-4.037-4 3.961 3.961 0 0 1 3.951-4h.086a4 4 0 0 1 0 8z"/>
    <path class="g" d="M195.989 471.423a4.032 4.032 0 0 1-4.037-4 3.963 3.963 0 0 1 3.959-4h.078a4 4 0 1 1 0 8z"/>
    <path class="g" d="M12.078 351.478a4.032 4.032 0 0 1-4.037-4 3.962 3.962 0 0 1 3.959-4h.078a4 4 0 1 1 0 8z"/>
    <path class="g" d="M76.047 399.454a4.032 4.032 0 0 1-4.037-4 3.963 3.963 0 0 1 3.959-4h.078a4 4 0 1 1 0 8z"/>
    <path class="g" d="M75.813 503.397a4 4 0 0 1-4-4v-31.974a4 4 0 0 1 8 0V499.4a4 4 0 0 1-4 3.997z"/>
    <path class="g" d="M83.805 487.404H67.816a4 4 0 1 1 0-8h15.989a4 4 0 1 1 0 8z"/>
    <path class="g" d="M35.828 271.516a4 4 0 0 1-4-4V235.53a4 4 0 0 1 8 0v31.993a4 4 0 0 1-4 3.993z"/>
    <path class="g" d="M43.824 255.523l-15.99-.011a4 4 0 0 1 0-8l15.993.008a4 4 0 1 1 0 8z"/>
    <path class="g" d="M467.621 343.482a4 4 0 0 1-4-4v-31.983a4 4 0 1 1 8 0v31.985a4 4 0 0 1-4 3.998z"/>
    <path class="g" d="M475.617 327.488h-15.993a4 4 0 1 1 0-8h15.992a4 4 0 0 1 0 8z"/>
    <path class="g" d="M459.624 79.592a27.979 27.979 0 1 1 27.986-27.987 28.016 28.016 0 0 1-27.986 27.987zm0-47.961a19.983 19.983 0 1 0 19.99 19.974 20.007 20.007 0 0 0-19.99-19.974z"/>
    <path class="g" d="M459.624 87.589a6.646 6.646 0 0 1-4.771-2.12c-5.333-5.322-7.223-21.564-7.223-33.855 0-6.005.578-35.967 11.994-35.967a4 4 0 0 1 .727 7.93c-1.711 1.917-4.725 11.752-4.725 28.037s3.014 26.125 4.717 28.045a4 4 0 0 1-.711 7.93z"/>
    <path class="g" d="M15.693 19.613a4.032 4.032 0 0 1-4.037-4 3.963 3.963 0 0 1 3.959-4h.078a4 4 0 0 1 0 8z"/>
    <path class="g" d="M31.685 35.606a4.032 4.032 0 0 1-4.037-4 3.962 3.962 0 0 1 3.959-4h.078a4 4 0 1 1 0 8z"/>
    <path class="g" d="M47.678 51.598a4.032 4.032 0 0 1-4.037-4 3.964 3.964 0 0 1 3.959-4h.078a4 4 0 0 1 0 8z"/>
    <path class="g" d="M79.663 51.598a4.032 4.032 0 0 1-4.037-4 3.963 3.963 0 0 1 3.959-4h.078a4 4 0 0 1 0 8z"/>
    <path class="g" d="M63.67 67.59a4.032 4.032 0 0 1-4.037-4 3.962 3.962 0 0 1 3.959-4h.078a4 4 0 1 1 0 8z"/>
    <path class="g" d="M47.678 83.583a4.032 4.032 0 0 1-4.037-4 3.964 3.964 0 0 1 3.959-4h.078a4 4 0 0 1 0 8z"/>
    <path class="g" d="M95.655 67.59a4.032 4.032 0 0 1-4.037-4 3.962 3.962 0 0 1 3.959-4h.078a4 4 0 0 1 0 8z"/>
    <path class="g" d="M79.663 83.583a4.032 4.032 0 0 1-4.037-4 3.963 3.963 0 0 1 3.959-4h.078a4 4 0 0 1 0 8z"/>
    <path class="g" d="M63.67 99.575a4.032 4.032 0 0 1-4.037-4 3.962 3.962 0 0 1 3.959-4h.078a4 4 0 1 1 0 8z"/>
    <path class="g" d="M111.647 83.583a4.032 4.032 0 0 1-4.037-4 3.963 3.963 0 0 1 3.959-4h.078a4 4 0 0 1 0 8z"/>
    <path class="g" d="M79.663 115.568a4.032 4.032 0 0 1-4.037-4 3.962 3.962 0 0 1 3.959-4h.078a4 4 0 1 1 0 8z"/>
    <path class="g" d="M127.639 99.575a4.032 4.032 0 0 1-4.037-4 3.962 3.962 0 0 1 3.959-4h.078a4 4 0 0 1 0 8z"/>
    <path class="g" d="M95.655 131.56a4.032 4.032 0 0 1-4.037-4 3.962 3.962 0 0 1 3.959-4h.078a4 4 0 0 1 0 8z"/>
    <path class="g" d="M143.634 115.568a4.032 4.032 0 0 1-4.037-4 3.963 3.963 0 0 1 3.959-4h.078a4 4 0 0 1 0 8z"/>
    <path class="g" d="M111.647 147.552a4.032 4.032 0 0 1-4.037-4 3.962 3.962 0 0 1 3.959-4h.078a4 4 0 1 1 0 8z"/>
    <path class="g" d="M159.624 131.56a4.032 4.032 0 0 1-4.037-4 3.962 3.962 0 0 1 3.959-4h.078a4 4 0 0 1 0 8z"/>
    <path class="g" d="M175.616 147.552a4.032 4.032 0 0 1-4.037-4 3.963 3.963 0 0 1 3.959-4h.078a4 4 0 1 1 0 8z"/>
    <path class="g" d="M191.609 163.544a4.032 4.032 0 0 1-4.037-4 3.962 3.962 0 0 1 3.959-4h.078a4 4 0 0 1 0 8z"/>
    <path class="g" d="M207.601 179.537a4.032 4.032 0 0 1-4.037-4 3.963 3.963 0 0 1 3.959-4h.078a4 4 0 0 1 0 8z"/>
    <path class="g" d="M223.593 195.529a4.032 4.032 0 0 1-4.037-4 3.962 3.962 0 0 1 3.959-4h.078a4 4 0 0 1 0 8z"/>
    <path class="g" d="M239.585 211.523a4.032 4.032 0 0 1-4.037-4 3.963 3.963 0 0 1 3.959-4h.078a4 4 0 0 1 0 8z"/>
    <path class="g" d="M255.578 227.514a4.032 4.032 0 0 1-4.037-4 3.962 3.962 0 0 1 3.959-4h.078a4 4 0 0 1 0 8z"/>
    <path class="g" d="M271.574 243.506a4.03 4.03 0 0 1-4.037-4 3.961 3.961 0 0 1 3.951-4h.086a4 4 0 0 1 0 8z"/>
    <path class="g" d="M287.566 259.498a4.03 4.03 0 0 1-4.037-4 3.961 3.961 0 0 1 3.951-4h.086a4 4 0 0 1 0 8z"/>
    <path class="g" d="M303.558 275.49a4.03 4.03 0 0 1-4.037-4 3.962 3.962 0 0 1 3.952-4h.085a4 4 0 1 1 0 8z"/>
    <path class="g" d="M319.551 291.483a4.029 4.029 0 0 1-4.037-4 3.961 3.961 0 0 1 3.951-4h.086a4 4 0 0 1 0 8z"/>
    <path class="g" d="M335.543 307.475a4.029 4.029 0 0 1-4.037-4 3.961 3.961 0 0 1 3.951-4h.086a4 4 0 0 1 0 8z"/>
    <path class="g" d="M351.534 323.467a4.028 4.028 0 0 1-4.037-4 3.961 3.961 0 0 1 3.951-4h.086a4 4 0 0 1 0 8z"/>
    <path class="g" d="M367.528 339.46a4.029 4.029 0 0 1-4.037-4 3.962 3.962 0 0 1 3.951-4h.086a4 4 0 0 1 0 8z"/>
    <path class="g" d="M383.52 355.452a4.029 4.029 0 0 1-4.037-4 3.961 3.961 0 0 1 3.951-4h.086a4 4 0 0 1 0 8z"/>
    <path class="g" d="M399.512 371.444a4.029 4.029 0 0 1-4.037-4 3.961 3.961 0 0 1 3.952-4h.085a4 4 0 1 1 0 8z"/>
    <path class="g" d="M367.528 403.429a4.029 4.029 0 0 1-4.037-4 3.961 3.961 0 0 1 3.951-4h.086a4 4 0 1 1 0 8z"/>
    <path class="g" d="M415.505 387.437a4.028 4.028 0 0 1-4.037-4 3.96 3.96 0 0 1 3.951-4h.086a4 4 0 0 1 0 8z"/>
    <path class="g" d="M383.52 419.423a4.029 4.029 0 0 1-4.037-4 3.961 3.961 0 0 1 3.951-4h.086a4 4 0 0 1 0 8z"/>
    <path class="g" d="M431.497 403.429a4.029 4.029 0 0 1-4.037-4 3.961 3.961 0 0 1 3.951-4h.086a4 4 0 1 1 0 8z"/>
    <path class="g" d="M399.512 435.414a4.03 4.03 0 0 1-4.037-4 3.96 3.96 0 0 1 3.952-4h.085a4 4 0 1 1 0 8z"/>
    <path class="g" d="M447.49 419.423a4.029 4.029 0 0 1-4.037-4 3.961 3.961 0 0 1 3.951-4h.086a4 4 0 1 1 0 8z"/>
    <path class="g" d="M415.505 451.406a4.029 4.029 0 0 1-4.037-4 3.96 3.96 0 0 1 3.951-4h.086a4 4 0 0 1 0 8z"/>
    <path class="g" d="M463.482 435.414a4.03 4.03 0 0 1-4.037-4 3.96 3.96 0 0 1 3.951-4h.086a4 4 0 0 1 0 8z"/>
    <path class="g" d="M447.49 451.406a4.03 4.03 0 0 1-4.037-4 3.961 3.961 0 0 1 3.951-4h.086a4 4 0 0 1 0 8z"/>
    <path class="g" d="M431.497 467.399a4.03 4.03 0 0 1-4.037-4 3.961 3.961 0 0 1 3.951-4h.086a4 4 0 1 1 0 8z"/>
    <path class="g" d="M463.482 467.399a4.03 4.03 0 0 1-4.037-4 3.961 3.961 0 0 1 3.951-4h.086a4 4 0 1 1 0 8z"/>
    <path class="g" d="M479.474 483.391a4.029 4.029 0 0 1-4.037-4 3.961 3.961 0 0 1 3.951-4h.086a4 4 0 0 1 0 8z"/>
    <path class="g" d="M495.466 499.383a4.029 4.029 0 0 1-4.037-4 3.961 3.961 0 0 1 3.951-4h.086a4 4 0 0 1 0 8z"/>
    <path class="g" d="M255.334 407.423c-83.772 0-151.927-68.154-151.927-151.927a151.155 151.155 0 0 1 42.992-105.883 4 4 0 1 1 5.731 5.575A143.192 143.192 0 0 0 111.407 255.5c0 79.368 64.567 143.931 143.931 143.931a143.166 143.166 0 0 0 100.319-40.723 4 4 0 0 1 5.575 5.731 151.125 151.125 0 0 1-105.898 42.984z"/>
    <path class="g" d="M390.447 319.844a3.989 3.989 0 0 1-3.647-5.63 142.849 142.849 0 0 0 12.471-58.714c0-79.364-64.571-143.931-143.932-143.931a142.943 142.943 0 0 0-58.714 12.482 4 4 0 0 1-3.263-7.3 150.894 150.894 0 0 1 61.978-13.177c83.772 0 151.928 68.154 151.928 151.927a150.691 150.691 0 0 1-13.174 61.979 3.988 3.988 0 0 1-3.647 2.364z"/>
    <path class="g" d="M501.734 510.846c-15.1 0-55.364-19.928-161.173-114.039a4 4 0 1 1 5.31-5.973c103.739 92.26 151.31 117.717 156.908 112.094 10.636-10.643-68.646-119.622-221.939-272.916C127.557 76.742 18.598-2.595 7.912 8.072c-5.606 5.614 19.869 53.173 112.106 156.893a4 4 0 1 1-5.974 5.31C-.475 41.505-5.149 9.837 2.254 2.423c22.849-22.774 182.5 120.208 284.242 221.94 101.725 101.728 244.78 261.371 221.938 284.22-1.317 1.326-3.417 2.263-6.7 2.263z"/>
    <path class="g" d="M435.113 440.263c-5.475 0-20.061-9.245-75.925-57.168a4 4 0 1 1 5.2-6.068c40.379 34.632 58.026 47.883 65.655 52.615-12.119-21.739-78.915-98.2-164.771-184.06C181.801 162.123 104.97 100.875 82.196 88.923c4.845 6.146 13.99 16.043 22.337 25.078 9.269 10.034 19.776 21.4 29.9 33.187a4 4 0 0 1-6.068 5.209c-10.031-11.674-20.482-22.984-29.705-32.968C73.25 91.923 67.434 85.25 72.274 80.423c13.048-13.02 134.38 95.244 198.651 159.507 44.275 44.283 88.23 90.964 120.59 128.07 54.724 62.76 50.21 67.281 46.907 70.576a4.3 4.3 0 0 1-3.309 1.687z"/>
</symbol><symbol id="icon-planet-03" viewBox="0 0 512 511.754">
    
    <g transform="translate(0 -.123)">
        <circle class="a" cx="31.984" cy="31.984" r="31.984" transform="translate(411.799 20.114)"/>
        <path class="b" d="M419.8 52.1a31.882 31.882 0 0 1 27.986-31.583 32.007 32.007 0 1 0 0 63.166A31.882 31.882 0 0 1 419.8 52.1z"/>
        <path class="c" d="M467.771 52.1a31.883 31.883 0 0 1-27.986 31.583 32.378 32.378 0 0 0 4 .4 31.985 31.985 0 0 0 0-63.97 32.378 32.378 0 0 0-4 .4A31.882 31.882 0 0 1 467.771 52.1z"/>
        <path class="b" d="M467.771 436.078a8 8 0 1 1-8-8 8.007 8.007 0 0 1 8 8z"/>
        <path class="c" d="M483.764 383.782H451.78a15.992 15.992 0 0 0 0-31.984H419.8a15.993 15.993 0 0 0 0-31.985h-47.982a15.992 15.992 0 1 0 0-31.984h87.958a15.99 15.99 0 1 0 0-31.98H419.8a15.992 15.992 0 0 0 0-31.984h-16a15.993 15.993 0 0 0 0-31.985h79.961a15.993 15.993 0 0 0 0-31.985h-31.98a15.992 15.992 0 1 0 0-31.984H419.8a15.992 15.992 0 1 0 0-31.984h-23.991a15.992 15.992 0 0 0 0-31.985H155.91a15.992 15.992 0 0 0 0 31.985H99.937a15.992 15.992 0 0 0 0 31.984H83.944a15.992 15.992 0 0 0 0 31.984h47.977a15.993 15.993 0 0 0 0 31.985H43.964a15.993 15.993 0 1 0 0 31.985h39.98a15.992 15.992 0 0 0 0 31.984h-39.98a15.99 15.99 0 1 0 0 31.98H27.971a15.992 15.992 0 0 0 0 31.984h39.981a15.993 15.993 0 0 0 0 31.985H51.96a15.992 15.992 0 1 0 0 31.984h79.961a15.993 15.993 0 0 0 0 31.985H99.937a15.992 15.992 0 0 0 0 31.984h271.881a15.992 15.992 0 1 0 0-31.984h111.946a15.993 15.993 0 0 0 0-31.985z"/>
        <path class="b" d="M403.8 255.848a147.932 147.932 0 1 1-147.931-147.929A147.929 147.929 0 0 1 403.8 255.848z"/>
        <path class="d" d="M139.925 255.848a147.921 147.921 0 0 1 131.94-147.031 147.913 147.913 0 1 0-16 294.956 150.086 150.086 0 0 0 16-.89 147.931 147.931 0 0 1-131.94-147.035z"/>
        <path class="a" d="M371.817 255.848a147.93 147.93 0 0 1-131.94 147.035 150.187 150.187 0 0 0 15.992.89 147.927 147.927 0 1 0-15.992-294.956 147.92 147.92 0 0 1 131.94 147.031z"/>
        <path class="c" d="M451.779 52.1c0 4.419-5.373 8-11.994 8-6.638 0-11.994-3.577-11.994-8s5.356-8 11.994-8c6.621 0 11.994 3.578 11.994 8z"/>
        <path class="e" d="M500.006 287.984a4.031 4.031 0 0 1-4.045-4 3.961 3.961 0 0 1 3.951-4h.094a4 4 0 0 1 0 8z"/>
        <path class="e" d="M116.187 8.119a4.029 4.029 0 0 1-4.037-4 3.961 3.961 0 0 1 3.951-4h.086a4 4 0 0 1 0 8z"/>
        <path class="e" d="M212.141 48.1a4.029 4.029 0 0 1-4.037-4 3.961 3.961 0 0 1 3.951-4h.086a4 4 0 1 1 0 8z"/>
        <path class="e" d="M92.2 112.069a4.029 4.029 0 0 1-4.037-4 3.961 3.961 0 0 1 3.951-4h.086a4 4 0 0 1 0 8z"/>
        <path class="e" d="M508 144.054a4.031 4.031 0 0 1-4.045-4 3.961 3.961 0 0 1 3.951-4H508a4 4 0 0 1 0 8z"/>
        <path class="e" d="M428.041 168.042a4.031 4.031 0 0 1-4.045-4 3.961 3.961 0 0 1 3.951-4h.094a4 4 0 0 1 0 8z"/>
        <path class="e" d="M428.041 367.946a4.031 4.031 0 0 1-4.045-4 3.961 3.961 0 0 1 3.951-4h.094a4 4 0 0 1 0 8z"/>
        <path class="e" d="M108.19 415.923a4.029 4.029 0 0 1-4.037-4 3.961 3.961 0 0 1 3.951-4h.086a4 4 0 1 1 0 8z"/>
        <path class="e" d="M4.24 359.95a4.029 4.029 0 0 1-4.037-4 3.961 3.961 0 0 1 3.951-4h.086a4 4 0 1 1 0 8z"/>
        <path class="e" d="M36.225 256a4.029 4.029 0 0 1-4.037-4 3.961 3.961 0 0 1 3.951-4h.086a4 4 0 1 1 0 8z"/>
        <path class="e" d="M324.091 455.9a4.031 4.031 0 0 1-4.045-4 3.961 3.961 0 0 1 3.951-4h.094a4 4 0 0 1 0 8z"/>
        <path class="e" d="M11.995 136.058a4 4 0 0 1-4-4v-31.982a4 4 0 0 1 8 0v31.984a4 4 0 0 1-4 3.998z"/>
        <path class="e" d="M19.991 120.065H4a4 4 0 0 1 0-8h15.991a4 4 0 0 1 0 8z"/>
        <path class="e" d="M59.972 511.877a4 4 0 0 1-4-4V475.9a4 4 0 0 1 8 0v31.984a4 4 0 0 1-4 3.993z"/>
        <path class="e" d="M67.968 495.885H51.976a4 4 0 1 1 0-8h15.992a4 4 0 1 1 0 8z"/>
        <path class="e" d="M183.443 389.014a3.95 3.95 0 0 1-1.96-.515A152.246 152.246 0 0 1 103.95 256c0-76.459 57.121-141.268 132.874-150.748a4 4 0 0 1 1 7.933c-71.763 8.98-125.878 70.381-125.878 142.815A144.239 144.239 0 0 0 185.4 381.532a4 4 0 0 1-1.96 7.482z"/>
        <path class="e" d="M255.877 407.927a152.2 152.2 0 0 1-42.612-6.06 3.993 3.993 0 1 1 2.235-7.667 144.5 144.5 0 0 0 40.379 5.731C335.241 399.93 399.8 335.368 399.8 256a143.41 143.41 0 0 0-129.308-143.2 3.986 3.986 0 0 1-3.576-4.38 4.124 4.124 0 0 1 4.373-3.577A151.385 151.385 0 0 1 407.8 256c0 83.772-68.154 151.927-151.923 151.927z"/>
        <path class="e" d="M209.954 503.389a11.789 11.789 0 0 1-2.382-.273c-29.345-5.747-11.112-155.6 8.309-254.924S274.864 3.11 304.162 8.889c4.951.968 20.007 3.908 14.041 94.192a4 4 0 1 1-7.981-.531c4.357-65.855-3.062-84.928-7.591-85.814-9.792-1.987-45.6 62.579-78.911 232.985s-24.074 243.7-14.618 245.538c4.74.938 18.608-14.056 39.341-76.65a4 4 0 1 1 7.59 2.515c-24.833 74.976-39.465 82.265-46.079 82.265z"/>
        <path class="e" d="M459.791 448.08a12.671 12.671 0 0 1-1.937-.156 11.986 11.986 0 1 1 1.937.156zm.484-15.954c-2.53 0-4.139 1.4-4.451 3.319a3.993 3.993 0 0 0 3.311 4.576l.656.062a4 4 0 0 0 .626-7.949.853.853 0 0 0-.142-.008z"/>
        <path class="e" d="M404.724 479.729a4 4 0 0 1-.983-7.871c36.2-9.223 46.462-31.664 46.571-31.9a3.992 3.992 0 0 1 7.324 3.178c-.453 1.07-11.666 26.214-51.929 36.467a3.936 3.936 0 0 1-.983.126z"/>
        <path class="e" d="M443.783 88.081A35.983 35.983 0 1 1 479.765 52.1a36.027 36.027 0 0 1-35.982 35.981zm0-63.97A27.986 27.986 0 1 0 471.769 52.1a28.021 28.021 0 0 0-27.986-27.989z"/>
        <path class="e" d="M427.791 40.1h-11.713a4 4 0 0 1 0-8h11.713a4 4 0 0 1 0 8z"/>
        <path class="e" d="M471.457 72.088h-11.682a4 4 0 0 1 0-8h11.682a4 4 0 0 1 0 8z"/>
        <path class="e" d="M439.785 64.092c-8.965 0-15.992-5.267-15.992-11.994S430.82 40.1 439.785 40.1s15.992 5.268 15.992 11.995-7.027 11.997-15.992 11.997zm0-15.992c-4.873 0-8 2.366-8 4s3.123 4 8 4c4.889 0 8-2.366 8-4s-3.111-4-8-4z"/>
    </g>
</symbol><symbol id="icon-plus" viewBox="0 0 10.002 10.001">
    
    <path class="a" d="M4.002 10.001v-4h-4v-2h4v-4h2v4h4v2h-4v4z"/>
</symbol><symbol id="icon-search" viewBox="0 0 18 18">
    
    <path class="a" d="M13.117 11.96l4.643 4.64a.82.82 0 1 1-1.16 1.16l-4.64-4.643a7.363 7.363 0 1 1 1.157-1.157zm-5.753 1.131a5.727 5.727 0 1 0-5.728-5.727 5.727 5.727 0 0 0 5.728 5.727z"/>
</symbol><symbol id="icon-send" viewBox="0 0 18 15.549">
    
    <path class="a" d="M13.165 6.956L2.21 2.299l1.643 4.656h9.312zM.049 1.092A.818.818 0 0 1 1.14.067l16.364 6.954a.818.818 0 0 1 0 1.506L1.14 15.481a.818.818 0 0 1-1.091-1.026l2.355-6.681L.049 1.092z"/>
</symbol><symbol id="icon-travels" viewBox="0 0 64 64">
    
    <path class="a" d="M39 62a.945.945 0 0 1-1 1H2a.945.945 0 0 1-1-1V10a.945.945 0 0 1 1-1h36a.945.945 0 0 1 1 1z"/>
    <circle class="a" cx="13" cy="13" r="13" transform="translate(7 17)"/>
    <path class="a" d="M8 26h24"/>
    <path class="a" d="M8 34h24"/>
    <path class="a" d="M20 17v26"/>
    <ellipse class="a" cx="7" cy="13" rx="7" ry="13" transform="translate(13 17)"/>
    <path class="a" d="M6 49h28"/>
    <path class="a" d="M6 53h28"/>
    <path class="a" d="M54 41h-2"/>
    <path class="a" d="M58 41h-2"/>
    <path class="a" d="M50 41h-2"/>
    <path class="a" d="M46 41h-2"/>
    <path class="a" d="M51 46v12"/>
    <path class="a" d="M47 46v12"/>
    <path class="a" d="M51 20v16"/>
    <path class="a" d="M47 20v16"/>
    <path class="b" d="M49 6v10"/>
    <path class="b" d="M47 17l2-2 2 2"/>
    <path class="b" d="M45 13l4-4 4 4"/>
    <path class="b" d="M57 44v19"/>
    <path class="b" d="M57 1v37"/>
    <path class="a" d="M39 1v5"/>
    <path class="a" d="M29 6V4a2.946 2.946 0 0 1 3-3h28a2.946 2.946 0 0 1 3 3v34a2.946 2.946 0 0 1-3 3 2.946 2.946 0 0 1 3 3v16a2.946 2.946 0 0 1-3 3H42"/>
</symbol><symbol id="icon-twitter" viewBox="0 0 18.465 15">
    
    <path class="a" d="M18.464 1.775a7.565 7.565 0 0 1-2.175.6A3.8 3.8 0 0 0 17.954.281a7.637 7.637 0 0 1-2.407.92 3.791 3.791 0 0 0-6.45 3.449A10.755 10.755 0 0 1 1.29.692a3.793 3.793 0 0 0 1.167 5.057 3.788 3.788 0 0 1-1.716-.475v.047a3.792 3.792 0 0 0 3.038 3.715 3.838 3.838 0 0 1-1 .133 3.636 3.636 0 0 1-.713-.07 3.79 3.79 0 0 0 3.54 2.63 7.6 7.6 0 0 1-4.709 1.619 8.053 8.053 0 0 1-.9-.052 10.708 10.708 0 0 0 5.807 1.7A10.7 10.7 0 0 0 16.582 4.222l-.013-.49a7.565 7.565 0 0 0 1.895-1.957z"/>
</symbol><symbol id="icon-vk" viewBox="0 0 22 12.553">
    
    <path class="a" d="M21.883 11.336a1.506 1.506 0 0 0-.075-.143 11.4 11.4 0 0 0-2.188-2.532l-.023-.023-.011-.011-.012-.012h-.012q-.733-.7-.928-.939a.882.882 0 0 1-.161-.928 8.649 8.649 0 0 1 1.031-1.5q.47-.607.744-.974Q22.23 1.639 21.966.906l-.068-.114a.67.67 0 0 0-.355-.189 1.8 1.8 0 0 0-.733-.029l-3.3.023a.428.428 0 0 0-.229.006l-.149.034-.057.029-.046.034a.509.509 0 0 0-.126.12.786.786 0 0 0-.114.2 18.7 18.7 0 0 1-1.226 2.577q-.424.71-.779 1.231a5.925 5.925 0 0 1-.6.767 4.155 4.155 0 0 1-.435.4q-.195.149-.3.126l-.195-.046a.762.762 0 0 1-.258-.281 1.257 1.257 0 0 1-.132-.447q-.034-.269-.04-.464t.006-.55q.012-.355.012-.481 0-.435.017-.945t.029-.807q.012-.3.011-.63a2.647 2.647 0 0 0-.04-.521 1.783 1.783 0 0 0-.12-.367.617.617 0 0 0-.235-.275 1.324 1.324 0 0 0-.384-.155 7.623 7.623 0 0 0-1.546-.149 7.514 7.514 0 0 0-2.738.275 1.543 1.543 0 0 0-.435.344q-.206.252-.057.275a1.4 1.4 0 0 1 .974.492l.069.138a2.191 2.191 0 0 1 .16.527 5.316 5.316 0 0 1 .1.836 8.916 8.916 0 0 1 0 1.432q-.057.6-.109.928a1.858 1.858 0 0 1-.155.538 2.272 2.272 0 0 1-.138.252.2.2 0 0 1-.057.057.858.858 0 0 1-.309.057.726.726 0 0 1-.389-.16 2.748 2.748 0 0 1-.475-.441 5.894 5.894 0 0 1-.556-.785q-.309-.5-.641-1.191l-.183-.332q-.172-.321-.47-.933t-.527-1.186A.755.755 0 0 0 4.363.76L4.306.726a.783.783 0 0 0-.183-.1A1.217 1.217 0 0 0 3.86.552L.721.575a.8.8 0 0 0-.653.218L.022.862a.371.371 0 0 0-.034.183.912.912 0 0 0 .069.309Q.744 2.969 1.552 4.47t1.4 2.417q.6.916 1.214 1.73T5 9.658q.2.229.315.344l.286.275a6.8 6.8 0 0 0 .807.659 13.779 13.779 0 0 0 1.18.756 6.4 6.4 0 0 0 1.506.607 5.209 5.209 0 0 0 1.672.189h1.317a.912.912 0 0 0 .607-.252l.046-.057a.759.759 0 0 0 .086-.212 1.164 1.164 0 0 0 .04-.315 3.774 3.774 0 0 1 .074-.888 2.334 2.334 0 0 1 .195-.6 1.464 1.464 0 0 1 .246-.338 1 1 0 0 1 .2-.166.754.754 0 0 1 .091-.04.727.727 0 0 1 .647.178 3.8 3.8 0 0 1 .7.664q.326.4.785.888a5.391 5.391 0 0 0 .8.733l.229.137a2.788 2.788 0 0 0 .6.252 1.284 1.284 0 0 0 .641.057l2.93-.041a1.329 1.329 0 0 0 .676-.143.568.568 0 0 0 .286-.315.887.887 0 0 0 .006-.39 1.437 1.437 0 0 0-.085-.304z"/>
</symbol></svg>